  0
SECTION
  2
HEADER
  9
$ACADVER
  1
AC1015
  9
$ACADMAINTVER
 70
6
  9
$DWGCODEPAGE
  3
ANSI_1252
  9
$INSBASE
 10
0.0
 20
0.0
 30
0.0
  9
$EXTMIN
 10
1e+20
 20
1e+20
 30
1e+20
  9
$EXTMAX
 10
-1e+20
 20
-1e+20
 30
-1e+20
  9
$LIMMIN
 10
0.0
 20
0.0
  9
$LIMMAX
 10
420.0
 20
297.0
  9
$ORTHOMODE
 70
0
  9
$REGENMODE
 70
1
  9
$FILLMODE
 70
1
  9
$QTEXTMODE
 70
0
  9
$MIRRTEXT
 70
1
  9
$LTSCALE
 40
1.0
  9
$ATTMODE
 70
1
  9
$TEXTSIZE
 40
2.5
  9
$TRACEWID
 40
1.0
  9
$TEXTSTYLE
  7
Standard
  9
$CLAYER
  8
0
  9
$CELTYPE
  6
ByLayer
  9
$CECOLOR
 62
256
  9
$CELTSCALE
 40
1.0
  9
$DISPSILH
 70
0
  9
$DIMSCALE
 40
1.0
  9
$DIMASZ
 40
2.5
  9
$DIMEXO
 40
0.625
  9
$DIMDLI
 40
3.75
  9
$DIMRND
 40
0.0
  9
$DIMDLE
 40
0.0
  9
$DIMEXE
 40
1.25
  9
$DIMTP
 40
0.0
  9
$DIMTM
 40
0.0
  9
$DIMTXT
 40
2.5
  9
$DIMCEN
 40
2.5
  9
$DIMTSZ
 40
0.0
  9
$DIMTOL
 70
0
  9
$DIMLIM
 70
0
  9
$DIMTIH
 70
0
  9
$DIMTOH
 70
0
  9
$DIMSE1
 70
0
  9
$DIMSE2
 70
0
  9
$DIMTAD
 70
1
  9
$DIMZIN
 70
8
  9
$DIMBLK
  1

  9
$DIMASO
 70
1
  9
$DIMSHO
 70
1
  9
$DIMPOST
  1

  9
$DIMAPOST
  1

  9
$DIMALT
 70
0
  9
$DIMALTD
 70
3
  9
$DIMALTF
 40
0.03937007874
  9
$DIMLFAC
 40
1.0
  9
$DIMTOFL
 70
1
  9
$DIMTVP
 40
0.0
  9
$DIMTIX
 70
0
  9
$DIMSOXD
 70
0
  9
$DIMSAH
 70
0
  9
$DIMBLK1
  1

  9
$DIMBLK2
  1

  9
$DIMSTYLE
  2
ISO-25
  9
$DIMCLRD
 70
0
  9
$DIMCLRE
 70
0
  9
$DIMCLRT
 70
0
  9
$DIMTFAC
 40
1.0
  9
$DIMGAP
 40
0.625
  9
$DIMJUST
 70
0
  9
$DIMSD1
 70
0
  9
$DIMSD2
 70
0
  9
$DIMTOLJ
 70
0
  9
$DIMTZIN
 70
8
  9
$DIMALTZ
 70
0
  9
$DIMALTTZ
 70
0
  9
$DIMUPT
 70
0
  9
$DIMDEC
 70
2
  9
$DIMTDEC
 70
2
  9
$DIMALTU
 70
2
  9
$DIMALTTD
 70
3
  9
$DIMTXSTY
  7
Standard
  9
$DIMAUNIT
 70
0
  9
$DIMADEC
 70
0
  9
$DIMALTRND
 40
0.0
  9
$DIMAZIN
 70
0
  9
$DIMDSEP
 70
44
  9
$DIMATFIT
 70
3
  9
$DIMFRAC
 70
0
  9
$DIMLDRBLK
  1

  9
$DIMLUNIT
 70
2
  9
$DIMLWD
 70
-2
  9
$DIMLWE
 70
-2
  9
$DIMTMOVE
 70
0
  9
$LUNITS
 70
2
  9
$LUPREC
 70
4
  9
$SKETCHINC
 40
1.0
  9
$FILLETRAD
 40
10.0
  9
$AUNITS
 70
0
  9
$AUPREC
 70
2
  9
$MENU
  1
.
  9
$ELEVATION
 40
0.0
  9
$PELEVATION
 40
0.0
  9
$THICKNESS
 40
0.0
  9
$LIMCHECK
 70
0
  9
$CHAMFERA
 40
0.0
  9
$CHAMFERB
 40
0.0
  9
$CHAMFERC
 40
0.0
  9
$CHAMFERD
 40
0.0
  9
$SKPOLY
 70
0
  9
$TDCREATE
 40
2461174.760150463
  9
$TDUCREATE
 40
2458532.153996898
  9
$TDUPDATE
 40
2461174.760150463
  9
$TDUUPDATE
 40
2458532.1544311
  9
$TDINDWG
 40
0.0
  9
$TDUSRTIMER
 40
0.0
  9
$USRTIMER
 70
1
  9
$ANGBASE
 50
0.0
  9
$ANGDIR
 70
0
  9
$PDMODE
 70
0
  9
$PDSIZE
 40
0.0
  9
$PLINEWID
 40
0.0
  9
$SPLFRAME
 70
0
  9
$SPLINETYPE
 70
6
  9
$SPLINESEGS
 70
8
  9
$HANDSEED
  5
36
  9
$SURFTAB1
 70
6
  9
$SURFTAB2
 70
6
  9
$SURFTYPE
 70
6
  9
$SURFU
 70
6
  9
$SURFV
 70
6
  9
$UCSBASE
  2

  9
$UCSNAME
  2

  9
$UCSORG
 10
0.0
 20
0.0
 30
0.0
  9
$UCSXDIR
 10
1.0
 20
0.0
 30
0.0
  9
$UCSYDIR
 10
0.0
 20
1.0
 30
0.0
  9
$UCSORTHOREF
  2

  9
$UCSORTHOVIEW
 70
0
  9
$UCSORGTOP
 10
0.0
 20
0.0
 30
0.0
  9
$UCSORGBOTTOM
 10
0.0
 20
0.0
 30
0.0
  9
$UCSORGLEFT
 10
0.0
 20
0.0
 30
0.0
  9
$UCSORGRIGHT
 10
0.0
 20
0.0
 30
0.0
  9
$UCSORGFRONT
 10
0.0
 20
0.0
 30
0.0
  9
$UCSORGBACK
 10
0.0
 20
0.0
 30
0.0
  9
$PUCSBASE
  2

  9
$PUCSNAME
  2

  9
$PUCSORG
 10
0.0
 20
0.0
 30
0.0
  9
$PUCSXDIR
 10
1.0
 20
0.0
 30
0.0
  9
$PUCSYDIR
 10
0.0
 20
1.0
 30
0.0
  9
$PUCSORTHOREF
  2

  9
$PUCSORTHOVIEW
 70
0
  9
$PUCSORGTOP
 10
0.0
 20
0.0
 30
0.0
  9
$PUCSORGBOTTOM
 10
0.0
 20
0.0
 30
0.0
  9
$PUCSORGLEFT
 10
0.0
 20
0.0
 30
0.0
  9
$PUCSORGRIGHT
 10
0.0
 20
0.0
 30
0.0
  9
$PUCSORGFRONT
 10
0.0
 20
0.0
 30
0.0
  9
$PUCSORGBACK
 10
0.0
 20
0.0
 30
0.0
  9
$USERI1
 70
0
  9
$USERI2
 70
0
  9
$USERI3
 70
0
  9
$USERI4
 70
0
  9
$USERI5
 70
0
  9
$USERR1
 40
0.0
  9
$USERR2
 40
0.0
  9
$USERR3
 40
0.0
  9
$USERR4
 40
0.0
  9
$USERR5
 40
0.0
  9
$WORLDVIEW
 70
1
  9
$SHADEDGE
 70
3
  9
$SHADEDIF
 70
70
  9
$TILEMODE
 70
1
  9
$MAXACTVP
 70
64
  9
$PINSBASE
 10
0.0
 20
0.0
 30
0.0
  9
$PLIMCHECK
 70
0
  9
$PEXTMIN
 10
1e+20
 20
1e+20
 30
1e+20
  9
$PEXTMAX
 10
-1e+20
 20
-1e+20
 30
-1e+20
  9
$PLIMMIN
 10
0.0
 20
0.0
  9
$PLIMMAX
 10
420.0
 20
297.0
  9
$UNITMODE
 70
0
  9
$VISRETAIN
 70
1
  9
$PLINEGEN
 70
0
  9
$PSLTSCALE
 70
1
  9
$TREEDEPTH
 70
3020
  9
$CMLSTYLE
  2
Standard
  9
$CMLJUST
 70
0
  9
$CMLSCALE
 40
20.0
  9
$PROXYGRAPHICS
 70
1
  9
$MEASUREMENT
 70
1
  9
$CELWEIGHT
370
-1
  9
$ENDCAPS
280
0
  9
$JOINSTYLE
280
0
  9
$LWDISPLAY
290
0
  9
$INSUNITS
 70
6
  9
$HYPERLINKBASE
  1

  9
$STYLESHEET
  1

  9
$XEDIT
290
1
  9
$CEPSNTYPE
380
0
  9
$PSTYLEMODE
290
1
  9
$FINGERPRINTGUID
  2
{601F5AD9-030D-4314-AFA8-2D65064EE388}
  9
$VERSIONGUID
  2
{2DB6D43A-8703-4194-8480-BD998601C40C}
  9
$EXTNAMES
290
1
  9
$PSVPSCALE
 40
0.0
  9
$OLESTARTUP
290
0
  0
ENDSEC
  0
SECTION
  2
CLASSES
  0
CLASS
  1
ACDBDICTIONARYWDFLT
  2
AcDbDictionaryWithDefault
  3
ObjectDBX Classes
 90
0
280
0
281
0
  0
CLASS
  1
SUN
  2
AcDbSun
  3
SCENEOE
 90
1153
280
0
281
0
  0
CLASS
  1
VISUALSTYLE
  2
AcDbVisualStyle
  3
ObjectDBX Classes
 90
4095
280
0
281
0
  0
CLASS
  1
MATERIAL
  2
AcDbMaterial
  3
ObjectDBX Classes
 90
1153
280
0
281
0
  0
CLASS
  1
SCALE
  2
AcDbScale
  3
ObjectDBX Classes
 90
1153
280
0
281
0
  0
CLASS
  1
TABLESTYLE
  2
AcDbTableStyle
  3
ObjectDBX Classes
 90
4095
280
0
281
0
  0
CLASS
  1
MLEADERSTYLE
  2
AcDbMLeaderStyle
  3
ACDB_MLEADERSTYLE_CLASS
 90
4095
280
0
281
0
  0
CLASS
  1
DICTIONARYVAR
  2
AcDbDictionaryVar
  3
ObjectDBX Classes
 90
0
280
0
281
0
  0
CLASS
  1
CELLSTYLEMAP
  2
AcDbCellStyleMap
  3
ObjectDBX Classes
 90
1152
280
0
281
0
  0
CLASS
  1
MENTALRAYRENDERSETTINGS
  2
AcDbMentalRayRenderSettings
  3
SCENEOE
 90
1024
280
0
281
0
  0
CLASS
  1
ACDBDETAILVIEWSTYLE
  2
AcDbDetailViewStyle
  3
ObjectDBX Classes
 90
1025
280
0
281
0
  0
CLASS
  1
ACDBSECTIONVIEWSTYLE
  2
AcDbSectionViewStyle
  3
ObjectDBX Classes
 90
1025
280
0
281
0
  0
CLASS
  1
RASTERVARIABLES
  2
AcDbRasterVariables
  3
ISM
 90
0
280
0
281
0
  0
CLASS
  1
ACDBPLACEHOLDER
  2
AcDbPlaceHolder
  3
ObjectDBX Classes
 90
0
280
0
281
0
  0
CLASS
  1
LAYOUT
  2
AcDbLayout
  3
ObjectDBX Classes
 90
0
280
0
281
0
  0
ENDSEC
  0
SECTION
  2
TABLES
  0
TABLE
  2
VPORT
  5
8
330
0
100
AcDbSymbolTable
 70
1
  0
VPORT
  5
23
330
8
100
AcDbSymbolTableRecord
100
AcDbViewportTableRecord
  2
*Active
 70
0
 10
0.0
 20
0.0
 11
1.0
 21
1.0
 12
0.0
 22
0.0
 13
0.0
 23
0.0
 14
0.5
 24
0.5
 15
0.5
 25
0.5
 16
0.0
 26
0.0
 36
1.0
 17
0.0
 27
0.0
 37
0.0
 40
1000.0
 41
1.34
 42
50.0
 43
0.0
 44
0.0
 50
0.0
 51
0.0
 71
0
 72
1000
 73
1
 74
3
 75
0
 76
0
 77
0
 78
0
281
0
 65
0
146
0.0
  0
ENDTAB
  0
TABLE
  2
LTYPE
  5
2
330
0
100
AcDbSymbolTable
 70
3
  0
LTYPE
  5
24
330
2
100
AcDbSymbolTableRecord
100
AcDbLinetypeTableRecord
  2
ByBlock
 70
0
  3

 72
65
 73
0
 40
0.0
  0
LTYPE
  5
25
330
2
100
AcDbSymbolTableRecord
100
AcDbLinetypeTableRecord
  2
ByLayer
 70
0
  3

 72
65
 73
0
 40
0.0
  0
LTYPE
  5
26
330
2
100
AcDbSymbolTableRecord
100
AcDbLinetypeTableRecord
  2
Continuous
 70
0
  3

 72
65
 73
0
 40
0.0
  0
ENDTAB
  0
TABLE
  2
LAYER
  5
1
330
0
100
AcDbSymbolTable
 70
3
  0
LAYER
  5
27
330
1
100
AcDbSymbolTableRecord
100
AcDbLayerTableRecord
  2
0
 70
0
 62
7
  6
Continuous
370
-3
390
13
  0
LAYER
  5
28
330
1
100
AcDbSymbolTableRecord
100
AcDbLayerTableRecord
  2
Defpoints
 70
0
 62
7
  6
Continuous
290
0
370
-3
390
13
  0
LAYER
  5
2F
330
1
100
AcDbSymbolTableRecord
100
AcDbLayerTableRecord
  2
LAYER_1
 70
0
 62
7
  6
CONTINUOUS
370
-3
390
13
  0
ENDTAB
  0
TABLE
  2
STYLE
  5
5
330
0
100
AcDbSymbolTable
 70
1
  0
STYLE
  5
29
330
5
100
AcDbSymbolTableRecord
100
AcDbTextStyleTableRecord
  2
Standard
 70
0
 40
0.0
 41
1.0
 50
0.0
 71
0
 42
2.5
  3
txt
  4

  0
ENDTAB
  0
TABLE
  2
VIEW
  5
7
330
0
100
AcDbSymbolTable
 70
0
  0
ENDTAB
  0
TABLE
  2
UCS
  5
6
330
0
100
AcDbSymbolTable
 70
0
  0
ENDTAB
  0
TABLE
  2
APPID
  5
3
330
0
100
AcDbSymbolTable
 70
3
  0
APPID
  5
2A
330
3
100
AcDbSymbolTableRecord
100
AcDbRegAppTableRecord
  2
ACAD
 70
0
  0
APPID
  5
33
330
3
100
AcDbSymbolTableRecord
100
AcDbRegAppTableRecord
  2
HATCHBACKGROUNDCOLOR
 70
0
  0
APPID
  5
34
330
3
100
AcDbSymbolTableRecord
100
AcDbRegAppTableRecord
  2
EZDXF
 70
0
  0
ENDTAB
  0
TABLE
  2
DIMSTYLE
  5
4
330
0
100
AcDbSymbolTable
 70
1
100
AcDbDimStyleTable
  0
DIMSTYLE
105
2B
330
4
100
AcDbSymbolTableRecord
100
AcDbDimStyleTableRecord
  2
Standard
 70
0
  3

  4

 40
1.0
 41
2.5
 42
0.625
 43
3.75
 44
1.25
 45
0.0
 46
0.0
 47
0.0
 48
0.0
140
2.5
141
2.5
142
0.0
143
0.03937007874
144
1.0
145
0.0
146
1.0
147
0.625
148
0.0
 71
0
 72
0
 73
0
 74
0
 75
0
 76
0
 77
1
 78
8
 79
3
170
0
171
3
172
1
173
0
174
0
175
0
176
0
177
0
178
0
179
2
271
2
272
2
273
2
274
3
275
0
276
0
277
2
278
44
279
0
280
0
281
0
282
0
283
0
284
8
285
0
286
0
288
0
289
3
371
-2
372
-2
  0
ENDTAB
  0
TABLE
  2
BLOCK_RECORD
  5
9
330
0
100
AcDbSymbolTable
 70
2
  0
BLOCK_RECORD
  5
17
330
9
100
AcDbSymbolTableRecord
100
AcDbBlockTableRecord
  2
*Model_Space
340
1A
  0
BLOCK_RECORD
  5
1B
330
9
100
AcDbSymbolTableRecord
100
AcDbBlockTableRecord
  2
*Paper_Space
340
1E
  0
ENDTAB
  0
ENDSEC
  0
SECTION
  2
BLOCKS
  0
BLOCK
  5
18
330
17
100
AcDbEntity
  8
0
100
AcDbBlockBegin
  2
*Model_Space
 70
0
 10
0.0
 20
0.0
 30
0.0
  3
*Model_Space
  1

  0
ENDBLK
  5
19
330
17
100
AcDbEntity
  8
0
100
AcDbBlockEnd
  0
BLOCK
  5
1C
330
1B
100
AcDbEntity
  8
0
100
AcDbBlockBegin
  2
*Paper_Space
 70
0
 10
0.0
 20
0.0
 30
0.0
  3
*Paper_Space
  1

  0
ENDBLK
  5
1D
330
1B
100
AcDbEntity
  8
0
100
AcDbBlockEnd
  0
ENDSEC
  0
SECTION
  2
ENTITIES
  0
SPLINE
  5
30
330
17
100
AcDbEntity
  8
LAYER_1
 62
7
100
AcDbSpline
 70
11
 71
3
 72
389
 73
385
 74
0
 40
0.0
 40
0.0
 40
0.0
 40
0.0
 40
0.0078125
 40
0.0078125
 40
0.0078125
 40
0.015625
 40
0.015625
 40
0.015625
 40
0.0234375
 40
0.0234375
 40
0.0234375
 40
0.03125
 40
0.03125
 40
0.03125
 40
0.0390625
 40
0.0390625
 40
0.0390625
 40
0.046875
 40
0.046875
 40
0.046875
 40
0.0546875
 40
0.0546875
 40
0.0546875
 40
0.0625
 40
0.0625
 40
0.0625
 40
0.0703125
 40
0.0703125
 40
0.0703125
 40
0.078125
 40
0.078125
 40
0.078125
 40
0.0859375
 40
0.0859375
 40
0.0859375
 40
0.09375
 40
0.09375
 40
0.09375
 40
0.1015625
 40
0.1015625
 40
0.1015625
 40
0.109375
 40
0.109375
 40
0.109375
 40
0.1171875
 40
0.1171875
 40
0.1171875
 40
0.125
 40
0.125
 40
0.125
 40
0.1328125
 40
0.1328125
 40
0.1328125
 40
0.140625
 40
0.140625
 40
0.140625
 40
0.1484375
 40
0.1484375
 40
0.1484375
 40
0.15625
 40
0.15625
 40
0.15625
 40
0.1640625
 40
0.1640625
 40
0.1640625
 40
0.171875
 40
0.171875
 40
0.171875
 40
0.1796875
 40
0.1796875
 40
0.1796875
 40
0.1875
 40
0.1875
 40
0.1875
 40
0.1953125
 40
0.1953125
 40
0.1953125
 40
0.203125
 40
0.203125
 40
0.203125
 40
0.2109375
 40
0.2109375
 40
0.2109375
 40
0.21875
 40
0.21875
 40
0.21875
 40
0.2265625
 40
0.2265625
 40
0.2265625
 40
0.234375
 40
0.234375
 40
0.234375
 40
0.2421875
 40
0.2421875
 40
0.2421875
 40
0.25
 40
0.25
 40
0.25
 40
0.2578125
 40
0.2578125
 40
0.2578125
 40
0.265625
 40
0.265625
 40
0.265625
 40
0.2734375
 40
0.2734375
 40
0.2734375
 40
0.28125
 40
0.28125
 40
0.28125
 40
0.2890625
 40
0.2890625
 40
0.2890625
 40
0.296875
 40
0.296875
 40
0.296875
 40
0.3046875
 40
0.3046875
 40
0.3046875
 40
0.3125
 40
0.3125
 40
0.3125
 40
0.3203125
 40
0.3203125
 40
0.3203125
 40
0.328125
 40
0.328125
 40
0.328125
 40
0.3359375
 40
0.3359375
 40
0.3359375
 40
0.34375
 40
0.34375
 40
0.34375
 40
0.3515625
 40
0.3515625
 40
0.3515625
 40
0.359375
 40
0.359375
 40
0.359375
 40
0.3671875
 40
0.3671875
 40
0.3671875
 40
0.375
 40
0.375
 40
0.375
 40
0.3828125
 40
0.3828125
 40
0.3828125
 40
0.390625
 40
0.390625
 40
0.390625
 40
0.3984375
 40
0.3984375
 40
0.3984375
 40
0.40625
 40
0.40625
 40
0.40625
 40
0.4140625
 40
0.4140625
 40
0.4140625
 40
0.421875
 40
0.421875
 40
0.421875
 40
0.4296875
 40
0.4296875
 40
0.4296875
 40
0.4375
 40
0.4375
 40
0.4375
 40
0.4453125
 40
0.4453125
 40
0.4453125
 40
0.453125
 40
0.453125
 40
0.453125
 40
0.4609375
 40
0.4609375
 40
0.4609375
 40
0.46875
 40
0.46875
 40
0.46875
 40
0.4765625
 40
0.4765625
 40
0.4765625
 40
0.484375
 40
0.484375
 40
0.484375
 40
0.4921875
 40
0.4921875
 40
0.4921875
 40
0.5
 40
0.5
 40
0.5
 40
0.5078125
 40
0.5078125
 40
0.5078125
 40
0.515625
 40
0.515625
 40
0.515625
 40
0.5234375
 40
0.5234375
 40
0.5234375
 40
0.53125
 40
0.53125
 40
0.53125
 40
0.5390625
 40
0.5390625
 40
0.5390625
 40
0.546875
 40
0.546875
 40
0.546875
 40
0.5546875
 40
0.5546875
 40
0.5546875
 40
0.5625
 40
0.5625
 40
0.5625
 40
0.5703125
 40
0.5703125
 40
0.5703125
 40
0.578125
 40
0.578125
 40
0.578125
 40
0.5859375
 40
0.5859375
 40
0.5859375
 40
0.59375
 40
0.59375
 40
0.59375
 40
0.6015625
 40
0.6015625
 40
0.6015625
 40
0.609375
 40
0.609375
 40
0.609375
 40
0.6171875
 40
0.6171875
 40
0.6171875
 40
0.625
 40
0.625
 40
0.625
 40
0.6328125
 40
0.6328125
 40
0.6328125
 40
0.640625
 40
0.640625
 40
0.640625
 40
0.6484375
 40
0.6484375
 40
0.6484375
 40
0.65625
 40
0.65625
 40
0.65625
 40
0.6640625
 40
0.6640625
 40
0.6640625
 40
0.671875
 40
0.671875
 40
0.671875
 40
0.6796875
 40
0.6796875
 40
0.6796875
 40
0.6875
 40
0.6875
 40
0.6875
 40
0.6953125
 40
0.6953125
 40
0.6953125
 40
0.703125
 40
0.703125
 40
0.703125
 40
0.7109375
 40
0.7109375
 40
0.7109375
 40
0.71875
 40
0.71875
 40
0.71875
 40
0.7265625
 40
0.7265625
 40
0.7265625
 40
0.734375
 40
0.734375
 40
0.734375
 40
0.7421875
 40
0.7421875
 40
0.7421875
 40
0.75
 40
0.75
 40
0.75
 40
0.7578125
 40
0.7578125
 40
0.7578125
 40
0.765625
 40
0.765625
 40
0.765625
 40
0.7734375
 40
0.7734375
 40
0.7734375
 40
0.78125
 40
0.78125
 40
0.78125
 40
0.7890625
 40
0.7890625
 40
0.7890625
 40
0.796875
 40
0.796875
 40
0.796875
 40
0.8046875
 40
0.8046875
 40
0.8046875
 40
0.8125
 40
0.8125
 40
0.8125
 40
0.8203125
 40
0.8203125
 40
0.8203125
 40
0.828125
 40
0.828125
 40
0.828125
 40
0.8359375
 40
0.8359375
 40
0.8359375
 40
0.84375
 40
0.84375
 40
0.84375
 40
0.8515625
 40
0.8515625
 40
0.8515625
 40
0.859375
 40
0.859375
 40
0.859375
 40
0.8671875
 40
0.8671875
 40
0.8671875
 40
0.875
 40
0.875
 40
0.875
 40
0.8828125
 40
0.8828125
 40
0.8828125
 40
0.890625
 40
0.890625
 40
0.890625
 40
0.8984375
 40
0.8984375
 40
0.8984375
 40
0.90625
 40
0.90625
 40
0.90625
 40
0.9140625
 40
0.9140625
 40
0.9140625
 40
0.921875
 40
0.921875
 40
0.921875
 40
0.9296875
 40
0.9296875
 40
0.9296875
 40
0.9375
 40
0.9375
 40
0.9375
 40
0.9453125
 40
0.9453125
 40
0.9453125
 40
0.953125
 40
0.953125
 40
0.953125
 40
0.9609375
 40
0.9609375
 40
0.9609375
 40
0.96875
 40
0.96875
 40
0.96875
 40
0.9765625
 40
0.9765625
 40
0.9765625
 40
0.984375
 40
0.984375
 40
0.984375
 40
0.9921875
 40
0.9921875
 40
0.9921875
 40
1.0
 40
1.0
 40
1.0
 40
1.0
 10
78.969
 20
289.9679
 30
0.0
 10
78.969
 20
289.9679
 30
0.0
 10
79.0572
 20
289.981
 30
0.0
 10
79.0572
 20
289.981
 30
0.0
 10
79.0572
 20
289.981
 30
0.0
 10
79.1352
 20
290.0049
 30
0.0
 10
79.1352
 20
290.0049
 30
0.0
 10
79.1352
 20
290.0049
 30
0.0
 10
79.1793
 20
290.0208
 30
0.0
 10
79.1793
 20
290.0208
 30
0.0
 10
79.1793
 20
290.0208
 30
0.0
 10
79.253
 20
290.0596
 30
0.0
 10
79.253
 20
290.0596
 30
0.0
 10
79.253
 20
290.0596
 30
0.0
 10
79.2886
 20
290.0822
 30
0.0
 10
79.2886
 20
290.0822
 30
0.0
 10
79.2886
 20
290.0822
 30
0.0
 10
79.3218
 20
290.1065
 30
0.0
 10
79.3218
 20
290.1065
 30
0.0
 10
79.3218
 20
290.1065
 30
0.0
 10
79.3543
 20
290.1334
 30
0.0
 10
79.3543
 20
290.1334
 30
0.0
 10
79.3543
 20
290.1334
 30
0.0
 10
79.4174
 20
290.1951
 30
0.0
 10
79.4174
 20
290.1951
 30
0.0
 10
79.4174
 20
290.1951
 30
0.0
 10
79.4432
 20
290.2268
 30
0.0
 10
79.4432
 20
290.2268
 30
0.0
 10
79.4432
 20
290.2268
 30
0.0
 10
79.4918
 20
290.2977
 30
0.0
 10
79.4918
 20
290.2977
 30
0.0
 10
79.4918
 20
290.2977
 30
0.0
 10
79.5112
 20
290.3344
 30
0.0
 10
79.5112
 20
290.3344
 30
0.0
 10
79.5112
 20
290.3344
 30
0.0
 10
79.5458
 20
290.4138
 30
0.0
 10
79.5458
 20
290.4138
 30
0.0
 10
79.5458
 20
290.4138
 30
0.0
 10
79.561
 20
290.4569
 30
0.0
 10
79.561
 20
290.4569
 30
0.0
 10
79.561
 20
290.4569
 30
0.0
 10
79.5776
 20
290.5355
 30
0.0
 10
79.5776
 20
290.5355
 30
0.0
 10
79.5776
 20
290.5355
 30
0.0
 10
79.6139
 20
294.7368
 30
0.0
 10
79.6139
 20
294.7368
 30
0.0
 10
79.6139
 20
294.7368
 30
0.0
 10
79.8234
 20
348.1604
 30
0.0
 10
79.8234
 20
348.1604
 30
0.0
 10
79.8234
 20
348.1604
 30
0.0
 10
79.8026
 20
355.962
 30
0.0
 10
79.8026
 20
355.962
 30
0.0
 10
79.8026
 20
355.962
 30
0.0
 10
79.7973
 20
364.6824
 30
0.0
 10
79.7973
 20
364.6824
 30
0.0
 10
79.7973
 20
364.6824
 30
0.0
 10
79.84
 20
370.0844
 30
0.0
 10
79.84
 20
370.0844
 30
0.0
 10
79.84
 20
370.0844
 30
0.0
 10
79.8965
 20
375.3056
 30
0.0
 10
79.8965
 20
375.3056
 30
0.0
 10
79.8965
 20
375.3056
 30
0.0
 10
79.9861
 20
377.5566
 30
0.0
 10
79.9861
 20
377.5566
 30
0.0
 10
79.9928
 20
377.6342
 30
0.0
 10
80.1335
 20
379.2531
 30
0.0
 10
80.2161
 20
379.807
 30
0.0
 10
80.2877
 20
380.2974
 30
0.0
 10
80.4779
 20
381.2746
 30
0.0
 10
80.5992
 20
381.7794
 30
0.0
 10
80.7128
 20
382.2542
 30
0.0
 10
80.9901
 20
383.212
 30
0.0
 10
81.1524
 20
383.7193
 30
0.0
 10
81.2395
 20
383.9899
 30
0.0
 10
81.4282
 20
384.5176
 30
0.0
 10
81.5337
 20
384.785
 30
0.0
 10
81.6307
 20
385.0334
 30
0.0
 10
81.854
 20
385.5604
 30
0.0
 10
81.9821
 20
385.8243
 30
0.0
 10
82.108
 20
386.084
 30
0.0
 10
82.3716
 20
386.5747
 30
0.0
 10
82.5208
 20
386.8177
 30
0.0
 10
82.6675
 20
387.0555
 30
0.0
 10
82.9893
 20
387.524
 30
0.0
 10
83.1685
 20
387.7484
 30
0.0
 10
83.3505
 20
387.9766
 30
0.0
 10
83.7301
 20
388.394
 30
0.0
 10
83.9354
 20
388.5912
 30
0.0
 10
84.1414
 20
388.7891
 30
0.0
 10
84.5757
 20
389.1535
 30
0.0
 10
84.8117
 20
389.3278
 30
0.0
 10
85.0495
 20
389.502
 30
0.0
 10
85.5279
 20
389.8093
 30
0.0
 10
85.7773
 20
389.9465
 30
0.0
 10
86.0355
 20
390.0894
 30
0.0
 10
86.5502
 20
390.3297
 30
0.0
 10
86.8162
 20
390.4323
 30
0.0
 10
87.0773
 20
390.5329
 30
0.0
 10
87.6209
 20
390.7011
 30
0.0
 10
87.9126
 20
390.7706
 30
0.0
 10
88.1846
 20
390.8362
 30
0.0
 10
88.7441
 20
390.9333
 30
0.0
 10
89.0426
 20
390.9668
 30
0.0
 10
89.3167
 20
390.9968
 30
0.0
 10
89.8632
 20
391.0264
 30
0.0
 10
90.1676
 20
391.0264
 30
0.0
 10
90.471
 20
391.0246
 30
0.0
 10
91.0358
 20
390.9911
 30
0.0
 10
91.3293
 20
390.9579
 30
0.0
 10
91.6256
 20
390.9244
 30
0.0
 10
92.188
 20
390.8271
 30
0.0
 10
92.4554
 20
390.7692
 30
0.0
 10
92.7432
 20
390.7071
 30
0.0
 10
93.2925
 20
390.5586
 30
0.0
 10
93.555
 20
390.4764
 30
0.0
 10
93.8291
 20
390.3917
 30
0.0
 10
94.366
 20
390.1988
 30
0.0
 10
94.6278
 20
390.0954
 30
0.0
 10
94.8902
 20
389.992
 30
0.0
 10
95.6335
 20
389.659
 30
0.0
 10
95.6653
 20
389.6446
 30
0.0
 10
95.6653
 20
389.6446
 30
0.0
 10
97.6525
 20
388.5795
 30
0.0
 10
97.6525
 20
388.5795
 30
0.0
 10
97.6525
 20
388.5795
 30
0.0
 10
99.5363
 20
387.3317
 30
0.0
 10
99.5363
 20
387.3317
 30
0.0
 10
99.5363
 20
387.3317
 30
0.0
 10
101.3161
 20
385.951
 30
0.0
 10
101.3161
 20
385.951
 30
0.0
 10
101.3161
 20
385.951
 30
0.0
 10
102.9953
 20
384.4524
 30
0.0
 10
102.9953
 20
384.4524
 30
0.0
 10
102.9953
 20
384.4524
 30
0.0
 10
103.9997
 20
383.4685
 30
0.0
 10
103.9997
 20
383.4685
 30
0.0
 10
103.9997
 20
383.4685
 30
0.0
 10
104.0639
 20
383.4194
 30
0.0
 10
104.0639
 20
383.4194
 30
0.0
 10
104.0639
 20
383.4194
 30
0.0
 10
104.0995
 20
383.3972
 30
0.0
 10
104.0995
 20
383.3972
 30
0.0
 10
104.0995
 20
383.3972
 30
0.0
 10
104.1376
 20
383.3768
 30
0.0
 10
104.1376
 20
383.3768
 30
0.0
 10
104.1376
 20
383.3768
 30
0.0
 10
104.2173
 20
383.3443
 30
0.0
 10
104.2173
 20
383.3443
 30
0.0
 10
104.2173
 20
383.3443
 30
0.0
 10
104.3009
 20
383.3203
 30
0.0
 10
104.3009
 20
383.3203
 30
0.0
 10
104.3009
 20
383.3203
 30
0.0
 10
104.3842
 20
383.3087
 30
0.0
 10
104.3842
 20
383.3087
 30
0.0
 10
104.3842
 20
383.3087
 30
0.0
 10
104.466
 20
383.3087
 30
0.0
 10
104.466
 20
383.3087
 30
0.0
 10
104.466
 20
383.3087
 30
0.0
 10
104.5108
 20
383.3115
 30
0.0
 10
104.5108
 20
383.3115
 30
0.0
 10
104.5108
 20
383.3115
 30
0.0
 10
104.5944
 20
383.3256
 30
0.0
 10
104.5944
 20
383.3256
 30
0.0
 10
104.5944
 20
383.3256
 30
0.0
 10
104.677
 20
383.3506
 30
0.0
 10
104.677
 20
383.3506
 30
0.0
 10
104.677
 20
383.3506
 30
0.0
 10
104.7176
 20
383.3665
 30
0.0
 10
104.7176
 20
383.3665
 30
0.0
 10
104.7176
 20
383.3665
 30
0.0
 10
104.7913
 20
383.4064
 30
0.0
 10
104.7913
 20
383.4064
 30
0.0
 10
104.7913
 20
383.4064
 30
0.0
 10
104.8622
 20
383.4551
 30
0.0
 10
104.8622
 20
383.4551
 30
0.0
 10
104.8622
 20
383.4551
 30
0.0
 10
104.925
 20
383.5126
 30
0.0
 10
104.925
 20
383.5126
 30
0.0
 10
104.925
 20
383.5126
 30
0.0
 10
104.9807
 20
383.5771
 30
0.0
 10
104.9807
 20
383.5771
 30
0.0
 10
104.9807
 20
383.5771
 30
0.0
 10
105.0044
 20
383.611
 30
0.0
 10
105.0044
 20
383.611
 30
0.0
 10
105.0044
 20
383.611
 30
0.0
 10
105.0284
 20
383.6484
 30
0.0
 10
105.0284
 20
383.6484
 30
0.0
 10
105.0284
 20
383.6484
 30
0.0
 10
105.0464
 20
383.684
 30
0.0
 10
105.0464
 20
383.684
 30
0.0
 10
105.0464
 20
383.684
 30
0.0
 10
105.0795
 20
383.7634
 30
0.0
 10
105.0795
 20
383.7634
 30
0.0
 10
105.0795
 20
383.7634
 30
0.0
 10
105.094
 20
383.8075
 30
0.0
 10
105.094
 20
383.8075
 30
0.0
 10
105.094
 20
383.8075
 30
0.0
 10
105.1099
 20
383.8869
 30
0.0
 10
105.1099
 20
383.8869
 30
0.0
 10
105.1099
 20
383.8869
 30
0.0
 10
105.118
 20
383.9754
 30
0.0
 10
105.118
 20
383.9754
 30
0.0
 10
105.118
 20
383.9754
 30
0.0
 10
105.1137
 20
384.0569
 30
0.0
 10
105.1137
 20
384.0569
 30
0.0
 10
105.1137
 20
384.0569
 30
0.0
 10
105.1077
 20
384.101
 30
0.0
 10
105.1077
 20
384.101
 30
0.0
 10
105.1077
 20
384.101
 30
0.0
 10
105.0993
 20
384.1423
 30
0.0
 10
105.0993
 20
384.1423
 30
0.0
 10
105.0993
 20
384.1423
 30
0.0
 10
105.0739
 20
384.2248
 30
0.0
 10
105.0739
 20
384.2248
 30
0.0
 10
105.0739
 20
384.2248
 30
0.0
 10
105.0587
 20
384.2608
 30
0.0
 10
105.0587
 20
384.2608
 30
0.0
 10
105.0587
 20
384.2608
 30
0.0
 10
104.6075
 20
384.9822
 30
0.0
 10
104.6075
 20
384.9822
 30
0.0
 10
104.6075
 20
384.9822
 30
0.0
 10
103.0041
 20
387.4527
 30
0.0
 10
103.0041
 20
387.4527
 30
0.0
 10
103.0041
 20
387.4527
 30
0.0
 10
101.3641
 20
389.8986
 30
0.0
 10
101.3641
 20
389.8986
 30
0.0
 10
101.3641
 20
389.8986
 30
0.0
 10
99.6693
 20
392.3031
 30
0.0
 10
99.6693
 20
392.3031
 30
0.0
 10
99.6693
 20
392.3031
 30
0.0
 10
97.9033
 20
394.6547
 30
0.0
 10
97.9033
 20
394.6547
 30
0.0
 10
97.9033
 20
394.6547
 30
0.0
 10
96.0477
 20
396.9347
 30
0.0
 10
96.0477
 20
396.9347
 30
0.0
 10
96.0382
 20
396.9449
 30
0.0
 10
94.5851
 20
398.5889
 30
0.0
 10
94.082
 20
399.1096
 30
0.0
 10
93.5832
 20
399.6275
 30
0.0
 10
92.5309
 20
400.6558
 30
0.0
 10
91.9749
 20
401.1568
 30
0.0
 10
91.4087
 20
401.6662
 30
0.0
 10
90.2766
 20
402.6024
 30
0.0
 10
89.7164
 20
403.0381
 30
0.0
 10
89.4222
 20
403.2667
 30
0.0
 10
88.8172
 20
403.701
 30
0.0
 10
88.53
 20
403.8992
 30
0.0
 10
88.2418
 20
404.0982
 30
0.0
 10
87.6287
 20
404.5007
 30
0.0
 10
87.3013
 20
404.7011
 30
0.0
 10
87.0004
 20
404.886
 30
0.0
 10
86.3664
 20
405.2536
 30
0.0
 10
86.0295
 20
405.4342
 30
0.0
 10
85.7233
 20
405.5982
 30
0.0
 10
85.0558
 20
405.9312
 30
0.0
 10
84.714
 20
406.0875
 30
0.0
 10
84.3866
 20
406.2357
 30
0.0
 10
83.7089
 20
406.5204
 30
0.0
 10
83.3555
 20
406.6509
 30
0.0
 10
83.0224
 20
406.7744
 30
0.0
 10
82.3261
 20
407.004
 30
0.0
 10
81.9609
 20
407.1064
 30
0.0
 10
81.6205
 20
407.2009
 30
0.0
 10
80.9093
 20
407.3678
 30
0.0
 10
80.5371
 20
407.4334
 30
0.0
 10
80.1935
 20
407.4944
 30
0.0
 10
79.4597
 20
407.5897
 30
0.0
 10
79.0932
 20
407.6144
 30
0.0
 10
78.8685
 20
407.6295
 30
0.0
 10
78.4984
 20
407.639
 30
0.0
 10
78.1506
 20
407.639
 30
0.0
 10
77.9527
 20
407.639
 30
0.0
 10
77.7682
 20
407.6355
 30
0.0
 10
77.6338
 20
407.6288
 30
0.0
 10
77.263
 20
407.6091
 30
0.0
 10
76.5327
 20
407.523
 30
0.0
 10
76.1867
 20
407.4581
 30
0.0
 10
75.8445
 20
407.3946
 30
0.0
 10
75.1354
 20
407.2129
 30
0.0
 10
74.7812
 20
407.0975
 30
0.0
 10
74.4291
 20
406.9832
 30
0.0
 10
73.7423
 20
406.7077
 30
0.0
 10
73.4272
 20
406.562
 30
0.0
 10
73.0917
 20
406.4064
 30
0.0
 10
72.444
 20
406.0607
 30
0.0
 10
72.1435
 20
405.8762
 30
0.0
 10
71.8302
 20
405.6829
 30
0.0
 10
71.2305
 20
405.2627
 30
0.0
 10
70.9557
 20
405.043
 30
0.0
 10
70.6787
 20
404.8211
 30
0.0
 10
70.1379
 20
404.3289
 30
0.0
 10
69.8829
 20
404.0672
 30
0.0
 10
69.6419
 20
403.8192
 30
0.0
 10
69.1643
 20
403.2639
 30
0.0
 10
68.9357
 20
402.9662
 30
0.0
 10
68.7124
 20
402.6741
 30
0.0
 10
68.3024
 20
402.0641
 30
0.0
 10
68.1239
 20
401.7709
 30
0.0
 10
67.9295
 20
401.451
 30
0.0
 10
67.5884
 20
400.8117
 30
0.0
 10
67.435
 20
400.4949
 30
0.0
 10
67.2723
 20
400.1591
 30
0.0
 10
66.9876
 20
399.4888
 30
0.0
 10
66.8596
 20
399.1576
 30
0.0
 10
66.7266
 20
398.8122
 30
0.0
 10
66.4874
 20
398.1211
 30
0.0
 10
66.3883
 20
397.78
 30
0.0
 10
66.1815
 20
397.0614
 30
0.0
 10
65.8432
 20
395.6256
 30
0.0
 10
65.7176
 20
394.9355
 30
0.0
 10
65.5931
 20
394.2469
 30
0.0
 10
65.4174
 20
392.8136
 30
0.0
 10
65.35
 20
392.0399
 30
0.0
 10
65.2865
 20
391.3195
 30
0.0
 10
65.2202
 20
389.8534
 30
0.0
 10
65.2086
 20
389.1196
 30
0.0
 10
65.1962
 20
388.3968
 30
0.0
 10
65.2209
 20
386.9282
 30
0.0
 10
65.2506
 20
386.1933
 30
0.0
 10
65.2788
 20
385.4701
 30
0.0
 10
65.3783
 20
384.0015
 30
0.0
 10
65.4407
 20
383.2674
 30
0.0
 10
65.5028
 20
382.5474
 30
0.0
 10
65.6591
 20
381.0823
 30
0.0
 10
65.748
 20
380.3499
 30
0.0
 10
65.9237
 20
378.9092
 30
0.0
 10
66.5438
 20
374.5704
 30
0.0
 10
66.5502
 20
374.527
 30
0.0
 10
66.5502
 20
374.527
 30
0.0
 10
77.0873
 20
298.8233
 30
0.0
 10
77.0873
 20
298.8233
 30
0.0
 10
77.0873
 20
298.8233
 30
0.0
 10
78.2419
 20
290.4879
 30
0.0
 10
78.2419
 20
290.4879
 30
0.0
 10
78.2419
 20
290.4879
 30
0.0
 10
78.2511
 20
290.4667
 30
0.0
 10
78.2511
 20
290.4667
 30
0.0
 10
78.2511
 20
290.4667
 30
0.0
 10
78.2677
 20
290.4142
 30
0.0
 10
78.2677
 20
290.4142
 30
0.0
 10
78.2677
 20
290.4142
 30
0.0
 10
78.3019
 20
290.3362
 30
0.0
 10
78.3019
 20
290.3362
 30
0.0
 10
78.3019
 20
290.3362
 30
0.0
 10
78.3227
 20
290.2963
 30
0.0
 10
78.3227
 20
290.2963
 30
0.0
 10
78.3227
 20
290.2963
 30
0.0
 10
78.3443
 20
290.2635
 30
0.0
 10
78.3443
 20
290.2635
 30
0.0
 10
78.3443
 20
290.2635
 30
0.0
 10
78.3979
 20
290.1937
 30
0.0
 10
78.3979
 20
290.1937
 30
0.0
 10
78.3979
 20
290.1937
 30
0.0
 10
78.4261
 20
290.1637
 30
0.0
 10
78.4261
 20
290.1637
 30
0.0
 10
78.4261
 20
290.1637
 30
0.0
 10
78.4928
 20
290.1041
 30
0.0
 10
78.4928
 20
290.1041
 30
0.0
 10
78.4928
 20
290.1041
 30
0.0
 10
78.5598
 20
290.0614
 30
0.0
 10
78.5598
 20
290.0614
 30
0.0
 10
78.5598
 20
290.0614
 30
0.0
 10
78.5997
 20
290.0388
 30
0.0
 10
78.5997
 20
290.0388
 30
0.0
 10
78.5997
 20
290.0388
 30
0.0
 10
78.6371
 20
290.0208
 30
0.0
 10
78.6371
 20
290.0208
 30
0.0
 10
78.6371
 20
290.0208
 30
0.0
 10
78.6755
 20
290.0056
 30
0.0
 10
78.6755
 20
290.0056
 30
0.0
 10
78.6755
 20
290.0056
 30
0.0
 10
78.7175
 20
289.9912
 30
0.0
 10
78.7175
 20
289.9912
 30
0.0
 10
78.7175
 20
289.9912
 30
0.0
 10
78.7997
 20
289.9732
 30
0.0
 10
78.7997
 20
289.9732
 30
0.0
 10
78.7997
 20
289.9732
 30
0.0
 10
78.8441
 20
289.9672
 30
0.0
 10
78.8441
 20
289.9672
 30
0.0
 10
78.8441
 20
289.9672
 30
0.0
 10
78.92
 20
289.9651
 30
0.0
 10
78.92
 20
289.9651
 30
0.0
 10
78.92
 20
289.9651
 30
0.0
 10
78.969
 20
289.9679
 30
0.0
 10
78.969
 20
289.9679
 30
0.0
  0
SPLINE
  5
31
330
17
100
AcDbEntity
  8
LAYER_1
 62
7
100
AcDbSpline
 70
11
 71
3
 72
395
 73
391
 74
0
 40
0.0
 40
0.0
 40
0.0
 40
0.0
 40
0.0076923076923077
 40
0.0076923076923077
 40
0.0076923076923077
 40
0.0153846153846154
 40
0.0153846153846154
 40
0.0153846153846154
 40
0.0230769230769231
 40
0.0230769230769231
 40
0.0230769230769231
 40
0.0307692307692308
 40
0.0307692307692308
 40
0.0307692307692308
 40
0.0384615384615385
 40
0.0384615384615385
 40
0.0384615384615385
 40
0.0461538461538462
 40
0.0461538461538462
 40
0.0461538461538462
 40
0.0538461538461538
 40
0.0538461538461538
 40
0.0538461538461538
 40
0.0615384615384615
 40
0.0615384615384615
 40
0.0615384615384615
 40
0.0692307692307692
 40
0.0692307692307692
 40
0.0692307692307692
 40
0.0769230769230769
 40
0.0769230769230769
 40
0.0769230769230769
 40
0.0846153846153846
 40
0.0846153846153846
 40
0.0846153846153846
 40
0.0923076923076923
 40
0.0923076923076923
 40
0.0923076923076923
 40
0.1
 40
0.1
 40
0.1
 40
0.1076923076923077
 40
0.1076923076923077
 40
0.1076923076923077
 40
0.1153846153846154
 40
0.1153846153846154
 40
0.1153846153846154
 40
0.1230769230769231
 40
0.1230769230769231
 40
0.1230769230769231
 40
0.1307692307692308
 40
0.1307692307692308
 40
0.1307692307692308
 40
0.1384615384615385
 40
0.1384615384615385
 40
0.1384615384615385
 40
0.1461538461538462
 40
0.1461538461538462
 40
0.1461538461538462
 40
0.1538461538461539
 40
0.1538461538461539
 40
0.1538461538461539
 40
0.1615384615384615
 40
0.1615384615384615
 40
0.1615384615384615
 40
0.1692307692307692
 40
0.1692307692307692
 40
0.1692307692307692
 40
0.1769230769230769
 40
0.1769230769230769
 40
0.1769230769230769
 40
0.1846153846153846
 40
0.1846153846153846
 40
0.1846153846153846
 40
0.1923076923076923
 40
0.1923076923076923
 40
0.1923076923076923
 40
0.2
 40
0.2
 40
0.2
 40
0.2076923076923077
 40
0.2076923076923077
 40
0.2076923076923077
 40
0.2153846153846154
 40
0.2153846153846154
 40
0.2153846153846154
 40
0.2230769230769231
 40
0.2230769230769231
 40
0.2230769230769231
 40
0.2307692307692308
 40
0.2307692307692308
 40
0.2307692307692308
 40
0.2384615384615385
 40
0.2384615384615385
 40
0.2384615384615385
 40
0.2461538461538462
 40
0.2461538461538462
 40
0.2461538461538462
 40
0.2538461538461538
 40
0.2538461538461538
 40
0.2538461538461538
 40
0.2615384615384616
 40
0.2615384615384616
 40
0.2615384615384616
 40
0.2692307692307693
 40
0.2692307692307693
 40
0.2692307692307693
 40
0.2769230769230769
 40
0.2769230769230769
 40
0.2769230769230769
 40
0.2846153846153846
 40
0.2846153846153846
 40
0.2846153846153846
 40
0.2923076923076923
 40
0.2923076923076923
 40
0.2923076923076923
 40
0.3
 40
0.3
 40
0.3
 40
0.3076923076923077
 40
0.3076923076923077
 40
0.3076923076923077
 40
0.3153846153846154
 40
0.3153846153846154
 40
0.3153846153846154
 40
0.3230769230769231
 40
0.3230769230769231
 40
0.3230769230769231
 40
0.3307692307692308
 40
0.3307692307692308
 40
0.3307692307692308
 40
0.3384615384615385
 40
0.3384615384615385
 40
0.3384615384615385
 40
0.3461538461538461
 40
0.3461538461538461
 40
0.3461538461538461
 40
0.3538461538461539
 40
0.3538461538461539
 40
0.3538461538461539
 40
0.3615384615384616
 40
0.3615384615384616
 40
0.3615384615384616
 40
0.3692307692307693
 40
0.3692307692307693
 40
0.3692307692307693
 40
0.3769230769230769
 40
0.3769230769230769
 40
0.3769230769230769
 40
0.3846153846153846
 40
0.3846153846153846
 40
0.3846153846153846
 40
0.3923076923076924
 40
0.3923076923076924
 40
0.3923076923076924
 40
0.4
 40
0.4
 40
0.4
 40
0.4076923076923077
 40
0.4076923076923077
 40
0.4076923076923077
 40
0.4153846153846154
 40
0.4153846153846154
 40
0.4153846153846154
 40
0.4230769230769231
 40
0.4230769230769231
 40
0.4230769230769231
 40
0.4307692307692308
 40
0.4307692307692308
 40
0.4307692307692308
 40
0.4384615384615385
 40
0.4384615384615385
 40
0.4384615384615385
 40
0.4461538461538462
 40
0.4461538461538462
 40
0.4461538461538462
 40
0.4538461538461539
 40
0.4538461538461539
 40
0.4538461538461539
 40
0.4615384615384616
 40
0.4615384615384616
 40
0.4615384615384616
 40
0.4692307692307692
 40
0.4692307692307692
 40
0.4692307692307692
 40
0.4769230769230769
 40
0.4769230769230769
 40
0.4769230769230769
 40
0.4846153846153847
 40
0.4846153846153847
 40
0.4846153846153847
 40
0.4923076923076923
 40
0.4923076923076923
 40
0.4923076923076923
 40
0.5
 40
0.5
 40
0.5
 40
0.5076923076923077
 40
0.5076923076923077
 40
0.5076923076923077
 40
0.5153846153846154
 40
0.5153846153846154
 40
0.5153846153846154
 40
0.5230769230769231
 40
0.5230769230769231
 40
0.5230769230769231
 40
0.5307692307692308
 40
0.5307692307692308
 40
0.5307692307692308
 40
0.5384615384615385
 40
0.5384615384615385
 40
0.5384615384615385
 40
0.5461538461538462
 40
0.5461538461538462
 40
0.5461538461538462
 40
0.5538461538461539
 40
0.5538461538461539
 40
0.5538461538461539
 40
0.5615384615384615
 40
0.5615384615384615
 40
0.5615384615384615
 40
0.5692307692307692
 40
0.5692307692307692
 40
0.5692307692307692
 40
0.576923076923077
 40
0.576923076923077
 40
0.576923076923077
 40
0.5846153846153846
 40
0.5846153846153846
 40
0.5846153846153846
 40
0.5923076923076923
 40
0.5923076923076923
 40
0.5923076923076923
 40
0.6000000000000001
 40
0.6000000000000001
 40
0.6000000000000001
 40
0.6076923076923078
 40
0.6076923076923078
 40
0.6076923076923078
 40
0.6153846153846154
 40
0.6153846153846154
 40
0.6153846153846154
 40
0.6230769230769231
 40
0.6230769230769231
 40
0.6230769230769231
 40
0.6307692307692307
 40
0.6307692307692307
 40
0.6307692307692307
 40
0.6384615384615385
 40
0.6384615384615385
 40
0.6384615384615385
 40
0.6461538461538462
 40
0.6461538461538462
 40
0.6461538461538462
 40
0.6538461538461539
 40
0.6538461538461539
 40
0.6538461538461539
 40
0.6615384615384616
 40
0.6615384615384616
 40
0.6615384615384616
 40
0.6692307692307693
 40
0.6692307692307693
 40
0.6692307692307693
 40
0.676923076923077
 40
0.676923076923077
 40
0.676923076923077
 40
0.6846153846153846
 40
0.6846153846153846
 40
0.6846153846153846
 40
0.6923076923076923
 40
0.6923076923076923
 40
0.6923076923076923
 40
0.7000000000000001
 40
0.7000000000000001
 40
0.7000000000000001
 40
0.7076923076923077
 40
0.7076923076923077
 40
0.7076923076923077
 40
0.7153846153846154
 40
0.7153846153846154
 40
0.7153846153846154
 40
0.7230769230769232
 40
0.7230769230769232
 40
0.7230769230769232
 40
0.7307692307692308
 40
0.7307692307692308
 40
0.7307692307692308
 40
0.7384615384615385
 40
0.7384615384615385
 40
0.7384615384615385
 40
0.7461538461538462
 40
0.7461538461538462
 40
0.7461538461538462
 40
0.7538461538461538
 40
0.7538461538461538
 40
0.7538461538461538
 40
0.7615384615384616
 40
0.7615384615384616
 40
0.7615384615384616
 40
0.7692307692307693
 40
0.7692307692307693
 40
0.7692307692307693
 40
0.7769230769230769
 40
0.7769230769230769
 40
0.7769230769230769
 40
0.7846153846153847
 40
0.7846153846153847
 40
0.7846153846153847
 40
0.7923076923076924
 40
0.7923076923076924
 40
0.7923076923076924
 40
0.8
 40
0.8
 40
0.8
 40
0.8076923076923077
 40
0.8076923076923077
 40
0.8076923076923077
 40
0.8153846153846154
 40
0.8153846153846154
 40
0.8153846153846154
 40
0.8230769230769232
 40
0.8230769230769232
 40
0.8230769230769232
 40
0.8307692307692308
 40
0.8307692307692308
 40
0.8307692307692308
 40
0.8384615384615385
 40
0.8384615384615385
 40
0.8384615384615385
 40
0.8461538461538463
 40
0.8461538461538463
 40
0.8461538461538463
 40
0.8538461538461539
 40
0.8538461538461539
 40
0.8538461538461539
 40
0.8615384615384616
 40
0.8615384615384616
 40
0.8615384615384616
 40
0.8692307692307693
 40
0.8692307692307693
 40
0.8692307692307693
 40
0.8769230769230769
 40
0.8769230769230769
 40
0.8769230769230769
 40
0.8846153846153847
 40
0.8846153846153847
 40
0.8846153846153847
 40
0.8923076923076924
 40
0.8923076923076924
 40
0.8923076923076924
 40
0.9
 40
0.9
 40
0.9
 40
0.9076923076923078
 40
0.9076923076923078
 40
0.9076923076923078
 40
0.9153846153846155
 40
0.9153846153846155
 40
0.9153846153846155
 40
0.9230769230769231
 40
0.9230769230769231
 40
0.9230769230769231
 40
0.9307692307692308
 40
0.9307692307692308
 40
0.9307692307692308
 40
0.9384615384615385
 40
0.9384615384615385
 40
0.9384615384615385
 40
0.9461538461538462
 40
0.9461538461538462
 40
0.9461538461538462
 40
0.9538461538461539
 40
0.9538461538461539
 40
0.9538461538461539
 40
0.9615384615384616
 40
0.9615384615384616
 40
0.9615384615384616
 40
0.9692307692307693
 40
0.9692307692307693
 40
0.9692307692307693
 40
0.976923076923077
 40
0.976923076923077
 40
0.976923076923077
 40
0.9846153846153847
 40
0.9846153846153847
 40
0.9846153846153847
 40
0.9923076923076923
 40
0.9923076923076923
 40
0.9923076923076923
 40
1.0
 40
1.0
 40
1.0
 40
1.0
 10
78.8726
 20
289.9656
 30
0.0
 10
78.8726
 20
289.9656
 30
0.0
 10
78.8271
 20
289.9688
 30
0.0
 10
78.8271
 20
289.9688
 30
0.0
 10
78.8271
 20
289.9688
 30
0.0
 10
78.7463
 20
289.9847
 30
0.0
 10
78.7463
 20
289.9847
 30
0.0
 10
78.7463
 20
289.9847
 30
0.0
 10
78.7029
 20
289.996
 30
0.0
 10
78.7029
 20
289.996
 30
0.0
 10
78.7029
 20
289.996
 30
0.0
 10
78.6637
 20
290.0097
 30
0.0
 10
78.6637
 20
290.0097
 30
0.0
 10
78.6637
 20
290.0097
 30
0.0
 10
78.626
 20
290.026
 30
0.0
 10
78.626
 20
290.026
 30
0.0
 10
78.626
 20
290.026
 30
0.0
 10
78.5872
 20
290.045
 30
0.0
 10
78.5872
 20
290.045
 30
0.0
 10
78.5872
 20
290.045
 30
0.0
 10
78.5508
 20
290.0665
 30
0.0
 10
78.5508
 20
290.0665
 30
0.0
 10
78.5508
 20
290.0665
 30
0.0
 10
78.4778
 20
290.1166
 30
0.0
 10
78.4778
 20
290.1166
 30
0.0
 10
78.4778
 20
290.1166
 30
0.0
 10
78.4136
 20
290.1755
 30
0.0
 10
78.4136
 20
290.1755
 30
0.0
 10
78.4136
 20
290.1755
 30
0.0
 10
78.3889
 20
290.2041
 30
0.0
 10
78.3889
 20
290.2041
 30
0.0
 10
78.3889
 20
290.2041
 30
0.0
 10
78.336
 20
290.275
 30
0.0
 10
78.336
 20
290.275
 30
0.0
 10
78.336
 20
290.275
 30
0.0
 10
78.3166
 20
290.3085
 30
0.0
 10
78.3166
 20
290.3085
 30
0.0
 10
78.3166
 20
290.3085
 30
0.0
 10
78.2785
 20
290.3876
 30
0.0
 10
78.2785
 20
290.3876
 30
0.0
 10
78.2785
 20
290.3876
 30
0.0
 10
78.2626
 20
290.4281
 30
0.0
 10
78.2626
 20
290.4281
 30
0.0
 10
78.2626
 20
290.4281
 30
0.0
 10
78.2344
 20
290.5209
 30
0.0
 10
78.2344
 20
290.5209
 30
0.0
 10
78.2344
 20
290.5209
 30
0.0
 10
77.0872
 20
298.8232
 30
0.0
 10
77.0872
 20
298.8232
 30
0.0
 10
77.0872
 20
298.8232
 30
0.0
 10
73.8448
 20
322.1132
 30
0.0
 10
73.8448
 20
322.1132
 30
0.0
 10
73.8448
 20
322.1132
 30
0.0
 10
66.5507
 20
374.5265
 30
0.0
 10
66.5507
 20
374.5265
 30
0.0
 10
66.5448
 20
374.5706
 30
0.0
 10
65.9239
 20
378.9087
 30
0.0
 10
65.7482
 20
380.3498
 30
0.0
 10
65.6593
 20
381.0839
 30
0.0
 10
65.5023
 20
382.5494
 30
0.0
 10
65.4409
 20
383.2673
 30
0.0
 10
65.3781
 20
384.0031
 30
0.0
 10
65.279
 20
385.4728
 30
0.0
 10
65.2508
 20
386.1939
 30
0.0
 10
65.2218
 20
386.9217
 30
0.0
 10
65.1961
 20
388.3892
 30
0.0
 10
65.2084
 20
389.1195
 30
0.0
 10
65.2211
 20
389.8575
 30
0.0
 10
65.2864
 20
391.3243
 30
0.0
 10
65.3499
 20
392.0394
 30
0.0
 10
65.418
 20
392.8131
 30
0.0
 10
65.5937
 20
394.2464
 30
0.0
 10
65.7185
 20
394.935
 30
0.0
 10
65.8424
 20
395.6215
 30
0.0
 10
66.1807
 20
397.057
 30
0.0
 10
66.3881
 20
397.7802
 30
0.0
 10
66.4855
 20
398.1171
 30
0.0
 10
66.7257
 20
398.8092
 30
0.0
 10
66.8594
 20
399.1578
 30
0.0
 10
66.9875
 20
399.4883
 30
0.0
 10
67.2722
 20
400.1586
 30
0.0
 10
67.4348
 20
400.4952
 30
0.0
 10
67.5897
 20
400.8141
 30
0.0
 10
67.9315
 20
401.4537
 30
0.0
 10
68.1238
 20
401.7697
 30
0.0
 10
68.3189
 20
402.0915
 30
0.0
 10
68.7288
 20
402.6947
 30
0.0
 10
68.9362
 20
402.966
 30
0.0
 10
69.1638
 20
403.2631
 30
0.0
 10
69.6418
 20
403.8187
 30
0.0
 10
69.8827
 20
404.067
 30
0.0
 10
70.1385
 20
404.3299
 30
0.0
 10
70.6793
 20
404.8216
 30
0.0
 10
70.9555
 20
405.0421
 30
0.0
 10
71.2293
 20
405.2622
 30
0.0
 10
71.8287
 20
405.6824
 30
0.0
 10
72.1437
 20
405.8754
 30
0.0
 10
72.4474
 20
406.0623
 30
0.0
 10
73.0951
 20
406.4088
 30
0.0
 10
73.4271
 20
406.5619
 30
0.0
 10
73.7428
 20
406.7079
 30
0.0
 10
74.4297
 20
406.9838
 30
0.0
 10
74.7811
 20
407.0977
 30
0.0
 10
75.1338
 20
407.2124
 30
0.0
 10
75.8429
 20
407.3941
 30
0.0
 10
76.1869
 20
407.4583
 30
0.0
 10
76.5361
 20
407.5228
 30
0.0
 10
77.2657
 20
407.6093
 30
0.0
 10
77.6336
 20
407.6287
 30
0.0
 10
77.768
 20
407.6361
 30
0.0
 10
77.9525
 20
407.6393
 30
0.0
 10
78.1504
 20
407.6393
 30
0.0
 10
78.4983
 20
407.6393
 30
0.0
 10
78.8683
 20
407.6297
 30
0.0
 10
79.0931
 20
407.6146
 30
0.0
 10
79.4575
 20
407.5902
 30
0.0
 10
80.192
 20
407.4946
 30
0.0
 10
80.5373
 20
407.4332
 30
0.0
 10
80.9092
 20
407.3676
 30
0.0
 10
81.6204
 20
407.2008
 30
0.0
 10
81.9615
 20
407.1062
 30
0.0
 10
82.3182
 20
407.0067
 30
0.0
 10
83.0265
 20
406.7728
 30
0.0
 10
83.3553
 20
406.6508
 30
0.0
 10
83.7053
 20
406.5217
 30
0.0
 10
84.3847
 20
406.237
 30
0.0
 10
84.7139
 20
406.0881
 30
0.0
 10
85.0338
 20
405.942
 30
0.0
 10
85.6981
 20
405.6118
 30
0.0
 10
86.0294
 20
405.434
 30
0.0
 10
86.3596
 20
405.2577
 30
0.0
 10
87.0045
 20
404.8841
 30
0.0
 10
87.3011
 20
404.7017
 30
0.0
 10
87.6278
 20
404.5006
 30
0.0
 10
88.2413
 20
404.0981
 30
0.0
 10
88.5306
 20
403.8991
 30
0.0
 10
88.8177
 20
403.6998
 30
0.0
 10
89.4234
 20
403.2655
 30
0.0
 10
89.717
 20
403.0376
 30
0.0
 10
90.2828
 20
402.5974
 30
0.0
 10
91.4156
 20
401.6604
 30
0.0
 10
91.9744
 20
401.157
 30
0.0
 10
92.5268
 20
400.661
 30
0.0
 10
93.5792
 20
399.6319
 30
0.0
 10
94.0819
 20
399.1102
 30
0.0
 10
94.5849
 20
398.5887
 30
0.0
 10
96.0387
 20
396.9452
 30
0.0
 10
96.0532
 20
396.9282
 30
0.0
 10
96.0532
 20
396.9282
 30
0.0
 10
97.9081
 20
394.6479
 30
0.0
 10
97.9081
 20
394.6479
 30
0.0
 10
97.9081
 20
394.6479
 30
0.0
 10
99.6727
 20
392.2977
 30
0.0
 10
99.6727
 20
392.2977
 30
0.0
 10
99.6727
 20
392.2977
 30
0.0
 10
101.3671
 20
389.8938
 30
0.0
 10
101.3671
 20
389.8938
 30
0.0
 10
101.3671
 20
389.8938
 30
0.0
 10
103.0061
 20
387.4505
 30
0.0
 10
103.0061
 20
387.4505
 30
0.0
 10
103.0061
 20
387.4505
 30
0.0
 10
104.6095
 20
384.9789
 30
0.0
 10
104.6095
 20
384.9789
 30
0.0
 10
104.6095
 20
384.9789
 30
0.0
 10
105.0628
 20
384.2586
 30
0.0
 10
105.0628
 20
384.2586
 30
0.0
 10
105.0628
 20
384.2586
 30
0.0
 10
105.0794
 20
384.2102
 30
0.0
 10
105.0794
 20
384.2102
 30
0.0
 10
105.0794
 20
384.2102
 30
0.0
 10
105.1041
 20
384.1249
 30
0.0
 10
105.1041
 20
384.1249
 30
0.0
 10
105.1041
 20
384.1249
 30
0.0
 10
105.1147
 20
384.0458
 30
0.0
 10
105.1147
 20
384.0458
 30
0.0
 10
105.1147
 20
384.0458
 30
0.0
 10
105.1178
 20
384.0
 30
0.0
 10
105.1178
 20
384.0
 30
0.0
 10
105.1178
 20
384.0
 30
0.0
 10
105.1171
 20
383.9601
 30
0.0
 10
105.1171
 20
383.9601
 30
0.0
 10
105.1171
 20
383.9601
 30
0.0
 10
105.1083
 20
383.8719
 30
0.0
 10
105.1083
 20
383.8719
 30
0.0
 10
105.1083
 20
383.8719
 30
0.0
 10
105.0889
 20
383.7911
 30
0.0
 10
105.0889
 20
383.7911
 30
0.0
 10
105.0889
 20
383.7911
 30
0.0
 10
105.0593
 20
383.7121
 30
0.0
 10
105.0593
 20
383.7121
 30
0.0
 10
105.0593
 20
383.7121
 30
0.0
 10
105.0409
 20
383.6729
 30
0.0
 10
105.0409
 20
383.6729
 30
0.0
 10
105.0409
 20
383.6729
 30
0.0
 10
105.0201
 20
383.6352
 30
0.0
 10
105.0201
 20
383.6352
 30
0.0
 10
105.0201
 20
383.6352
 30
0.0
 10
104.9718
 20
383.5664
 30
0.0
 10
104.9718
 20
383.5664
 30
0.0
 10
104.9718
 20
383.5664
 30
0.0
 10
104.9443
 20
383.5336
 30
0.0
 10
104.9443
 20
383.5336
 30
0.0
 10
104.9443
 20
383.5336
 30
0.0
 10
104.9153
 20
383.5029
 30
0.0
 10
104.9153
 20
383.5029
 30
0.0
 10
104.9153
 20
383.5029
 30
0.0
 10
104.8494
 20
383.4447
 30
0.0
 10
104.8494
 20
383.4447
 30
0.0
 10
104.8494
 20
383.4447
 30
0.0
 10
104.7788
 20
383.3985
 30
0.0
 10
104.7788
 20
383.3985
 30
0.0
 10
104.7788
 20
383.3985
 30
0.0
 10
104.7019
 20
383.3593
 30
0.0
 10
104.7019
 20
383.3593
 30
0.0
 10
104.7019
 20
383.3593
 30
0.0
 10
104.6239
 20
383.3336
 30
0.0
 10
104.6239
 20
383.3336
 30
0.0
 10
104.6239
 20
383.3336
 30
0.0
 10
104.582
 20
383.323
 30
0.0
 10
104.582
 20
383.323
 30
0.0
 10
104.582
 20
383.323
 30
0.0
 10
104.4966
 20
383.3096
 30
0.0
 10
104.4966
 20
383.3096
 30
0.0
 10
104.4966
 20
383.3096
 30
0.0
 10
104.455
 20
383.3075
 30
0.0
 10
104.455
 20
383.3075
 30
0.0
 10
104.455
 20
383.3075
 30
0.0
 10
104.3668
 20
383.3106
 30
0.0
 10
104.3668
 20
383.3106
 30
0.0
 10
104.3668
 20
383.3106
 30
0.0
 10
104.3276
 20
383.3159
 30
0.0
 10
104.3276
 20
383.3159
 30
0.0
 10
104.3276
 20
383.3159
 30
0.0
 10
104.2842
 20
383.3241
 30
0.0
 10
104.2842
 20
383.3241
 30
0.0
 10
104.2842
 20
383.3241
 30
0.0
 10
104.2024
 20
383.3491
 30
0.0
 10
104.2024
 20
383.3491
 30
0.0
 10
104.2024
 20
383.3491
 30
0.0
 10
104.1237
 20
383.384
 30
0.0
 10
104.1237
 20
383.384
 30
0.0
 10
104.1237
 20
383.384
 30
0.0
 10
104.0514
 20
383.4281
 30
0.0
 10
104.0514
 20
383.4281
 30
0.0
 10
104.0514
 20
383.4281
 30
0.0
 10
103.9861
 20
383.4796
 30
0.0
 10
103.9861
 20
383.4796
 30
0.0
 10
103.9861
 20
383.4796
 30
0.0
 10
103.0019
 20
384.4455
 30
0.0
 10
103.0019
 20
384.4455
 30
0.0
 10
103.0019
 20
384.4455
 30
0.0
 10
101.3269
 20
385.942
 30
0.0
 10
101.3269
 20
385.942
 30
0.0
 10
101.3269
 20
385.942
 30
0.0
 10
99.5478
 20
387.3231
 30
0.0
 10
99.5478
 20
387.3231
 30
0.0
 10
99.5478
 20
387.3231
 30
0.0
 10
97.6689
 20
388.5699
 30
0.0
 10
97.6689
 20
388.5699
 30
0.0
 10
97.6689
 20
388.5699
 30
0.0
 10
95.6778
 20
389.6388
 30
0.0
 10
95.6778
 20
389.6388
 30
0.0
 10
95.6337
 20
389.6589
 30
0.0
 10
94.8901
 20
389.9923
 30
0.0
 10
94.6283
 20
390.0953
 30
0.0
 10
94.374
 20
390.1958
 30
0.0
 10
93.8381
 20
390.3891
 30
0.0
 10
93.5548
 20
390.4766
 30
0.0
 10
93.2966
 20
390.5571
 30
0.0
 10
92.7487
 20
390.7056
 30
0.0
 10
92.4559
 20
390.7691
 30
0.0
 10
92.1885
 20
390.8266
 30
0.0
 10
91.6262
 20
390.9239
 30
0.0
 10
91.3292
 20
390.9575
 30
0.0
 10
91.0325
 20
390.991
 30
0.0
 10
90.4673
 20
391.0252
 30
0.0
 10
90.189
 20
391.0266
 30
0.0
 10
90.189
 20
391.0266
 30
0.0
 10
90.1883
 20
391.0266
 30
0.0
 10
90.1883
 20
391.0266
 30
0.0
 10
89.8595
 20
391.0266
 30
0.0
 10
89.3141
 20
390.997
 30
0.0
 10
89.0432
 20
390.9666
 30
0.0
 10
88.7482
 20
390.9338
 30
0.0
 10
88.188
 20
390.8368
 30
0.0
 10
87.9132
 20
390.7708
 30
0.0
 10
87.6218
 20
390.701
 30
0.0
 10
87.0782
 20
390.5334
 30
0.0
 10
86.8161
 20
390.4325
 30
0.0
 10
86.5504
 20
390.3295
 30
0.0
 10
86.0357
 20
390.0886
 30
0.0
 10
85.7771
 20
389.9471
 30
0.0
 10
85.5305
 20
389.8106
 30
0.0
 10
85.0522
 20
389.5044
 30
0.0
 10
84.8119
 20
389.328
 30
0.0
 10
84.5763
 20
389.1537
 30
0.0
 10
84.1424
 20
388.7889
 30
0.0
 10
83.9353
 20
388.5907
 30
0.0
 10
83.7307
 20
388.3945
 30
0.0
 10
83.3511
 20
387.9775
 30
0.0
 10
83.1687
 20
387.7482
 30
0.0
 10
82.9902
 20
387.5239
 30
0.0
 10
82.6685
 20
387.0557
 30
0.0
 10
82.5217
 20
386.818
 30
0.0
 10
82.3714
 20
386.5742
 30
0.0
 10
82.1082
 20
386.0835
 30
0.0
 10
81.982
 20
385.8242
 30
0.0
 10
81.8553
 20
385.5624
 30
0.0
 10
81.6313
 20
385.0343
 30
0.0
 10
81.5336
 20
384.7853
 30
0.0
 10
81.4288
 20
384.5193
 30
0.0
 10
81.2401
 20
383.9912
 30
0.0
 10
81.1533
 20
383.7188
 30
0.0
 10
80.9906
 20
383.2122
 30
0.0
 10
80.713
 20
382.2548
 30
0.0
 10
80.5991
 20
381.7799
 30
0.0
 10
80.4781
 20
381.2723
 30
0.0
 10
80.2879
 20
380.2951
 30
0.0
 10
80.2159
 20
379.8072
 30
0.0
 10
80.1334
 20
379.2526
 30
0.0
 10
79.993
 20
377.6348
 30
0.0
 10
79.9866
 20
377.566
 30
0.0
 10
79.9866
 20
377.566
 30
0.0
 10
79.897
 20
375.3114
 30
0.0
 10
79.897
 20
375.3114
 30
0.0
 10
79.897
 20
375.3114
 30
0.0
 10
79.8399
 20
370.0843
 30
0.0
 10
79.8399
 20
370.0843
 30
0.0
 10
79.8399
 20
370.0843
 30
0.0
 10
79.7979
 20
364.684
 30
0.0
 10
79.7979
 20
364.684
 30
0.0
 10
79.7979
 20
364.684
 30
0.0
 10
79.8036
 20
355.9619
 30
0.0
 10
79.8036
 20
355.9619
 30
0.0
 10
79.8036
 20
355.9619
 30
0.0
 10
79.8233
 20
348.1592
 30
0.0
 10
79.8233
 20
348.1592
 30
0.0
 10
79.8233
 20
348.1592
 30
0.0
 10
79.6134
 20
294.7352
 30
0.0
 10
79.6134
 20
294.7352
 30
0.0
 10
79.6134
 20
294.7352
 30
0.0
 10
79.5781
 20
290.5276
 30
0.0
 10
79.5781
 20
290.5276
 30
0.0
 10
79.5781
 20
290.5276
 30
0.0
 10
79.5552
 20
290.4398
 30
0.0
 10
79.5552
 20
290.4398
 30
0.0
 10
79.5552
 20
290.4398
 30
0.0
 10
79.5252
 20
290.3615
 30
0.0
 10
79.5252
 20
290.3615
 30
0.0
 10
79.5252
 20
290.3615
 30
0.0
 10
79.5058
 20
290.3237
 30
0.0
 10
79.5058
 20
290.3237
 30
0.0
 10
79.5058
 20
290.3237
 30
0.0
 10
79.4843
 20
290.2863
 30
0.0
 10
79.4843
 20
290.2863
 30
0.0
 10
79.4843
 20
290.2863
 30
0.0
 10
79.4349
 20
290.2151
 30
0.0
 10
79.4349
 20
290.2151
 30
0.0
 10
79.4349
 20
290.2151
 30
0.0
 10
79.3788
 20
290.1565
 30
0.0
 10
79.3788
 20
290.1565
 30
0.0
 10
79.3788
 20
290.1565
 30
0.0
 10
79.3453
 20
290.1258
 30
0.0
 10
79.3453
 20
290.1258
 30
0.0
 10
79.3453
 20
290.1258
 30
0.0
 10
79.3114
 20
290.0983
 30
0.0
 10
79.3114
 20
290.0983
 30
0.0
 10
79.3114
 20
290.0983
 30
0.0
 10
79.2761
 20
290.0729
 30
0.0
 10
79.2761
 20
290.0729
 30
0.0
 10
79.2761
 20
290.0729
 30
0.0
 10
79.2412
 20
290.0524
 30
0.0
 10
79.2412
 20
290.0524
 30
0.0
 10
79.2412
 20
290.0524
 30
0.0
 10
79.1626
 20
290.0143
 30
0.0
 10
79.1626
 20
290.0143
 30
0.0
 10
79.1626
 20
290.0143
 30
0.0
 10
79.0828
 20
289.9886
 30
0.0
 10
79.0828
 20
289.9886
 30
0.0
 10
79.0828
 20
289.9886
 30
0.0
 10
79.0401
 20
289.9773
 30
0.0
 10
79.0401
 20
289.9773
 30
0.0
 10
79.0401
 20
289.9773
 30
0.0
 10
78.9551
 20
289.9664
 30
0.0
 10
78.9551
 20
289.9664
 30
0.0
 10
78.9551
 20
289.9664
 30
0.0
 10
78.9227
 20
289.9656
 30
0.0
 10
78.9227
 20
289.9656
 30
0.0
 10
78.9227
 20
289.9656
 30
0.0
 10
78.8726
 20
289.9656
 30
0.0
 10
78.8726
 20
289.9656
 30
0.0
  0
SPLINE
  5
32
330
17
100
AcDbEntity
  8
LAYER_1
 62
250
100
AcDbSpline
 70
11
 71
3
 72
506
 73
502
 74
0
 40
0.0
 40
0.0
 40
0.0
 40
0.0
 40
0.0059880239520958
 40
0.0059880239520958
 40
0.0059880239520958
 40
0.0119760479041916
 40
0.0119760479041916
 40
0.0119760479041916
 40
0.0179640718562874
 40
0.0179640718562874
 40
0.0179640718562874
 40
0.0239520958083832
 40
0.0239520958083832
 40
0.0239520958083832
 40
0.029940119760479
 40
0.029940119760479
 40
0.029940119760479
 40
0.0359281437125749
 40
0.0359281437125749
 40
0.0359281437125749
 40
0.0419161676646707
 40
0.0419161676646707
 40
0.0419161676646707
 40
0.0479041916167665
 40
0.0479041916167665
 40
0.0479041916167665
 40
0.0538922155688623
 40
0.0538922155688623
 40
0.0538922155688623
 40
0.0598802395209581
 40
0.0598802395209581
 40
0.0598802395209581
 40
0.0658682634730539
 40
0.0658682634730539
 40
0.0658682634730539
 40
0.0718562874251497
 40
0.0718562874251497
 40
0.0718562874251497
 40
0.0778443113772455
 40
0.0778443113772455
 40
0.0778443113772455
 40
0.0838323353293413
 40
0.0838323353293413
 40
0.0838323353293413
 40
0.0898203592814371
 40
0.0898203592814371
 40
0.0898203592814371
 40
0.0958083832335329
 40
0.0958083832335329
 40
0.0958083832335329
 40
0.1017964071856288
 40
0.1017964071856288
 40
0.1017964071856288
 40
0.1077844311377246
 40
0.1077844311377246
 40
0.1077844311377246
 40
0.1137724550898204
 40
0.1137724550898204
 40
0.1137724550898204
 40
0.1197604790419162
 40
0.1197604790419162
 40
0.1197604790419162
 40
0.125748502994012
 40
0.125748502994012
 40
0.125748502994012
 40
0.1317365269461078
 40
0.1317365269461078
 40
0.1317365269461078
 40
0.1377245508982036
 40
0.1377245508982036
 40
0.1377245508982036
 40
0.1437125748502994
 40
0.1437125748502994
 40
0.1437125748502994
 40
0.1497005988023952
 40
0.1497005988023952
 40
0.1497005988023952
 40
0.155688622754491
 40
0.155688622754491
 40
0.155688622754491
 40
0.1616766467065868
 40
0.1616766467065868
 40
0.1616766467065868
 40
0.1676646706586827
 40
0.1676646706586827
 40
0.1676646706586827
 40
0.1736526946107785
 40
0.1736526946107785
 40
0.1736526946107785
 40
0.1796407185628743
 40
0.1796407185628743
 40
0.1796407185628743
 40
0.1856287425149701
 40
0.1856287425149701
 40
0.1856287425149701
 40
0.1916167664670659
 40
0.1916167664670659
 40
0.1916167664670659
 40
0.1976047904191617
 40
0.1976047904191617
 40
0.1976047904191617
 40
0.2035928143712575
 40
0.2035928143712575
 40
0.2035928143712575
 40
0.2095808383233533
 40
0.2095808383233533
 40
0.2095808383233533
 40
0.2155688622754491
 40
0.2155688622754491
 40
0.2155688622754491
 40
0.2215568862275449
 40
0.2215568862275449
 40
0.2215568862275449
 40
0.2275449101796407
 40
0.2275449101796407
 40
0.2275449101796407
 40
0.2335329341317365
 40
0.2335329341317365
 40
0.2335329341317365
 40
0.2395209580838323
 40
0.2395209580838323
 40
0.2395209580838323
 40
0.2455089820359282
 40
0.2455089820359282
 40
0.2455089820359282
 40
0.251497005988024
 40
0.251497005988024
 40
0.251497005988024
 40
0.2574850299401198
 40
0.2574850299401198
 40
0.2574850299401198
 40
0.2634730538922156
 40
0.2634730538922156
 40
0.2634730538922156
 40
0.2694610778443114
 40
0.2694610778443114
 40
0.2694610778443114
 40
0.2754491017964072
 40
0.2754491017964072
 40
0.2754491017964072
 40
0.281437125748503
 40
0.281437125748503
 40
0.281437125748503
 40
0.2874251497005988
 40
0.2874251497005988
 40
0.2874251497005988
 40
0.2934131736526946
 40
0.2934131736526946
 40
0.2934131736526946
 40
0.2994011976047904
 40
0.2994011976047904
 40
0.2994011976047904
 40
0.3053892215568862
 40
0.3053892215568862
 40
0.3053892215568862
 40
0.311377245508982
 40
0.311377245508982
 40
0.311377245508982
 40
0.3173652694610778
 40
0.3173652694610778
 40
0.3173652694610778
 40
0.3233532934131736
 40
0.3233532934131736
 40
0.3233532934131736
 40
0.3293413173652695
 40
0.3293413173652695
 40
0.3293413173652695
 40
0.3353293413173653
 40
0.3353293413173653
 40
0.3353293413173653
 40
0.3413173652694611
 40
0.3413173652694611
 40
0.3413173652694611
 40
0.3473053892215569
 40
0.3473053892215569
 40
0.3473053892215569
 40
0.3532934131736527
 40
0.3532934131736527
 40
0.3532934131736527
 40
0.3592814371257485
 40
0.3592814371257485
 40
0.3592814371257485
 40
0.3652694610778444
 40
0.3652694610778444
 40
0.3652694610778444
 40
0.3712574850299402
 40
0.3712574850299402
 40
0.3712574850299402
 40
0.377245508982036
 40
0.377245508982036
 40
0.377245508982036
 40
0.3832335329341318
 40
0.3832335329341318
 40
0.3832335329341318
 40
0.3892215568862276
 40
0.3892215568862276
 40
0.3892215568862276
 40
0.3952095808383234
 40
0.3952095808383234
 40
0.3952095808383234
 40
0.4011976047904192
 40
0.4011976047904192
 40
0.4011976047904192
 40
0.407185628742515
 40
0.407185628742515
 40
0.407185628742515
 40
0.4131736526946108
 40
0.4131736526946108
 40
0.4131736526946108
 40
0.4191616766467066
 40
0.4191616766467066
 40
0.4191616766467066
 40
0.4251497005988024
 40
0.4251497005988024
 40
0.4251497005988024
 40
0.4311377245508982
 40
0.4311377245508982
 40
0.4311377245508982
 40
0.437125748502994
 40
0.437125748502994
 40
0.437125748502994
 40
0.4431137724550899
 40
0.4431137724550899
 40
0.4431137724550899
 40
0.4491017964071857
 40
0.4491017964071857
 40
0.4491017964071857
 40
0.4550898203592815
 40
0.4550898203592815
 40
0.4550898203592815
 40
0.4610778443113773
 40
0.4610778443113773
 40
0.4610778443113773
 40
0.4670658682634731
 40
0.4670658682634731
 40
0.4670658682634731
 40
0.4730538922155689
 40
0.4730538922155689
 40
0.4730538922155689
 40
0.4790419161676647
 40
0.4790419161676647
 40
0.4790419161676647
 40
0.4850299401197605
 40
0.4850299401197605
 40
0.4850299401197605
 40
0.4910179640718563
 40
0.4910179640718563
 40
0.4910179640718563
 40
0.4970059880239521
 40
0.4970059880239521
 40
0.4970059880239521
 40
0.502994011976048
 40
0.502994011976048
 40
0.502994011976048
 40
0.5089820359281437
 40
0.5089820359281437
 40
0.5089820359281437
 40
0.5149700598802396
 40
0.5149700598802396
 40
0.5149700598802396
 40
0.5209580838323353
 40
0.5209580838323353
 40
0.5209580838323353
 40
0.5269461077844312
 40
0.5269461077844312
 40
0.5269461077844312
 40
0.5329341317365269
 40
0.5329341317365269
 40
0.5329341317365269
 40
0.5389221556886228
 40
0.5389221556886228
 40
0.5389221556886228
 40
0.5449101796407186
 40
0.5449101796407186
 40
0.5449101796407186
 40
0.5508982035928144
 40
0.5508982035928144
 40
0.5508982035928144
 40
0.5568862275449102
 40
0.5568862275449102
 40
0.5568862275449102
 40
0.562874251497006
 40
0.562874251497006
 40
0.562874251497006
 40
0.5688622754491018
 40
0.5688622754491018
 40
0.5688622754491018
 40
0.5748502994011977
 40
0.5748502994011977
 40
0.5748502994011977
 40
0.5808383233532934
 40
0.5808383233532934
 40
0.5808383233532934
 40
0.5868263473053893
 40
0.5868263473053893
 40
0.5868263473053893
 40
0.592814371257485
 40
0.592814371257485
 40
0.592814371257485
 40
0.5988023952095809
 40
0.5988023952095809
 40
0.5988023952095809
 40
0.6047904191616766
 40
0.6047904191616766
 40
0.6047904191616766
 40
0.6107784431137725
 40
0.6107784431137725
 40
0.6107784431137725
 40
0.6167664670658684
 40
0.6167664670658684
 40
0.6167664670658684
 40
0.6227544910179641
 40
0.6227544910179641
 40
0.6227544910179641
 40
0.62874251497006
 40
0.62874251497006
 40
0.62874251497006
 40
0.6347305389221557
 40
0.6347305389221557
 40
0.6347305389221557
 40
0.6407185628742516
 40
0.6407185628742516
 40
0.6407185628742516
 40
0.6467065868263473
 40
0.6467065868263473
 40
0.6467065868263473
 40
0.6526946107784432
 40
0.6526946107784432
 40
0.6526946107784432
 40
0.658682634730539
 40
0.658682634730539
 40
0.658682634730539
 40
0.6646706586826348
 40
0.6646706586826348
 40
0.6646706586826348
 40
0.6706586826347306
 40
0.6706586826347306
 40
0.6706586826347306
 40
0.6766467065868264
 40
0.6766467065868264
 40
0.6766467065868264
 40
0.6826347305389222
 40
0.6826347305389222
 40
0.6826347305389222
 40
0.688622754491018
 40
0.688622754491018
 40
0.688622754491018
 40
0.6946107784431138
 40
0.6946107784431138
 40
0.6946107784431138
 40
0.7005988023952097
 40
0.7005988023952097
 40
0.7005988023952097
 40
0.7065868263473054
 40
0.7065868263473054
 40
0.7065868263473054
 40
0.7125748502994013
 40
0.7125748502994013
 40
0.7125748502994013
 40
0.718562874251497
 40
0.718562874251497
 40
0.718562874251497
 40
0.7245508982035929
 40
0.7245508982035929
 40
0.7245508982035929
 40
0.7305389221556887
 40
0.7305389221556887
 40
0.7305389221556887
 40
0.7365269461077845
 40
0.7365269461077845
 40
0.7365269461077845
 40
0.7425149700598803
 40
0.7425149700598803
 40
0.7425149700598803
 40
0.7485029940119761
 40
0.7485029940119761
 40
0.7485029940119761
 40
0.7544910179640719
 40
0.7544910179640719
 40
0.7544910179640719
 40
0.7604790419161677
 40
0.7604790419161677
 40
0.7604790419161677
 40
0.7664670658682635
 40
0.7664670658682635
 40
0.7664670658682635
 40
0.7724550898203594
 40
0.7724550898203594
 40
0.7724550898203594
 40
0.7784431137724551
 40
0.7784431137724551
 40
0.7784431137724551
 40
0.784431137724551
 40
0.784431137724551
 40
0.784431137724551
 40
0.7904191616766467
 40
0.7904191616766467
 40
0.7904191616766467
 40
0.7964071856287426
 40
0.7964071856287426
 40
0.7964071856287426
 40
0.8023952095808383
 40
0.8023952095808383
 40
0.8023952095808383
 40
0.8083832335329342
 40
0.8083832335329342
 40
0.8083832335329342
 40
0.81437125748503
 40
0.81437125748503
 40
0.81437125748503
 40
0.8203592814371258
 40
0.8203592814371258
 40
0.8203592814371258
 40
0.8263473053892216
 40
0.8263473053892216
 40
0.8263473053892216
 40
0.8323353293413174
 40
0.8323353293413174
 40
0.8323353293413174
 40
0.8383233532934132
 40
0.8383233532934132
 40
0.8383233532934132
 40
0.8443113772455091
 40
0.8443113772455091
 40
0.8443113772455091
 40
0.8502994011976048
 40
0.8502994011976048
 40
0.8502994011976048
 40
0.8562874251497007
 40
0.8562874251497007
 40
0.8562874251497007
 40
0.8622754491017964
 40
0.8622754491017964
 40
0.8622754491017964
 40
0.8682634730538923
 40
0.8682634730538923
 40
0.8682634730538923
 40
0.874251497005988
 40
0.874251497005988
 40
0.874251497005988
 40
0.8802395209580839
 40
0.8802395209580839
 40
0.8802395209580839
 40
0.8862275449101797
 40
0.8862275449101797
 40
0.8862275449101797
 40
0.8922155688622755
 40
0.8922155688622755
 40
0.8922155688622755
 40
0.8982035928143713
 40
0.8982035928143713
 40
0.8982035928143713
 40
0.9041916167664671
 40
0.9041916167664671
 40
0.9041916167664671
 40
0.9101796407185629
 40
0.9101796407185629
 40
0.9101796407185629
 40
0.9161676646706587
 40
0.9161676646706587
 40
0.9161676646706587
 40
0.9221556886227545
 40
0.9221556886227545
 40
0.9221556886227545
 40
0.9281437125748504
 40
0.9281437125748504
 40
0.9281437125748504
 40
0.9341317365269461
 40
0.9341317365269461
 40
0.9341317365269461
 40
0.940119760479042
 40
0.940119760479042
 40
0.940119760479042
 40
0.9461077844311377
 40
0.9461077844311377
 40
0.9461077844311377
 40
0.9520958083832336
 40
0.9520958083832336
 40
0.9520958083832336
 40
0.9580838323353293
 40
0.9580838323353293
 40
0.9580838323353293
 40
0.9640718562874252
 40
0.9640718562874252
 40
0.9640718562874252
 40
0.970059880239521
 40
0.970059880239521
 40
0.970059880239521
 40
0.9760479041916168
 40
0.9760479041916168
 40
0.9760479041916168
 40
0.9820359281437127
 40
0.9820359281437127
 40
0.9820359281437127
 40
0.9880239520958084
 40
0.9880239520958084
 40
0.9880239520958084
 40
0.9940119760479043
 40
0.9940119760479043
 40
0.9940119760479043
 40
1.0
 40
1.0
 40
1.0
 40
1.0
 10
65.0509
 20
386.1858
 30
0.0
 10
65.0798
 20
385.4509
 30
0.0
 10
65.1789
 20
383.983
 30
0.0
 10
65.2417
 20
383.2503
 30
0.0
 10
65.3038
 20
382.5183
 30
0.0
 10
65.4608
 20
381.0557
 30
0.0
 10
65.5497
 20
380.3254
 30
0.0
 10
65.7275
 20
378.8656
 30
0.0
 10
66.3523
 20
374.4986
 30
0.0
 10
66.3523
 20
374.4986
 30
0.0
 10
66.3523
 20
374.4986
 30
0.0
 10
67.1633
 20
368.6746
 30
0.0
 10
67.1633
 20
368.6746
 30
0.0
 10
67.1633
 20
368.6746
 30
0.0
 10
68.784
 20
357.0259
 30
0.0
 10
68.784
 20
357.0259
 30
0.0
 10
68.784
 20
357.0259
 30
0.0
 10
70.4053
 20
345.3772
 30
0.0
 10
70.4053
 20
345.3772
 30
0.0
 10
70.4053
 20
345.3772
 30
0.0
 10
72.0264
 20
333.7334
 30
0.0
 10
72.0264
 20
333.7334
 30
0.0
 10
72.0264
 20
333.7334
 30
0.0
 10
73.6463
 20
322.0857
 30
0.0
 10
73.6463
 20
322.0857
 30
0.0
 10
73.6463
 20
322.0857
 30
0.0
 10
75.267
 20
310.444
 30
0.0
 10
75.267
 20
310.444
 30
0.0
 10
75.267
 20
310.444
 30
0.0
 10
76.889
 20
298.7953
 30
0.0
 10
76.889
 20
298.7953
 30
0.0
 10
76.889
 20
298.7953
 30
0.0
 10
78.0437
 20
290.4606
 30
0.0
 10
78.0437
 20
290.4606
 30
0.0
 10
78.0437
 20
290.4606
 30
0.0
 10
78.0603
 20
290.408
 30
0.0
 10
78.0603
 20
290.408
 30
0.0
 10
78.0603
 20
290.408
 30
0.0
 10
78.0768
 20
290.3551
 30
0.0
 10
78.0768
 20
290.3551
 30
0.0
 10
78.0768
 20
290.3551
 30
0.0
 10
78.0966
 20
290.304
 30
0.0
 10
78.0966
 20
290.304
 30
0.0
 10
78.0966
 20
290.304
 30
0.0
 10
78.1202
 20
290.2532
 30
0.0
 10
78.1202
 20
290.2532
 30
0.0
 10
78.1202
 20
290.2532
 30
0.0
 10
78.1456
 20
290.2041
 30
0.0
 10
78.1456
 20
290.2041
 30
0.0
 10
78.1456
 20
290.2041
 30
0.0
 10
78.1739
 20
290.1579
 30
0.0
 10
78.1739
 20
290.1579
 30
0.0
 10
78.1739
 20
290.1579
 30
0.0
 10
78.2063
 20
290.1131
 30
0.0
 10
78.2063
 20
290.1131
 30
0.0
 10
78.2063
 20
290.1131
 30
0.0
 10
78.2416
 20
290.069
 30
0.0
 10
78.2416
 20
290.069
 30
0.0
 10
78.2416
 20
290.069
 30
0.0
 10
78.2786
 20
290.0284
 30
0.0
 10
78.2786
 20
290.0284
 30
0.0
 10
78.2786
 20
290.0284
 30
0.0
 10
78.3199
 20
289.991
 30
0.0
 10
78.3199
 20
289.991
 30
0.0
 10
78.3199
 20
289.991
 30
0.0
 10
78.3605
 20
289.9547
 30
0.0
 10
78.3605
 20
289.9547
 30
0.0
 10
78.3605
 20
289.9547
 30
0.0
 10
78.4053
 20
289.9223
 30
0.0
 10
78.4053
 20
289.9223
 30
0.0
 10
78.4053
 20
289.9223
 30
0.0
 10
78.4522
 20
289.8926
 30
0.0
 10
78.4522
 20
289.8926
 30
0.0
 10
78.4522
 20
289.8926
 30
0.0
 10
78.4998
 20
289.8651
 30
0.0
 10
78.4998
 20
289.8651
 30
0.0
 10
78.4998
 20
289.8651
 30
0.0
 10
78.5496
 20
289.8408
 30
0.0
 10
78.5496
 20
289.8408
 30
0.0
 10
78.5496
 20
289.8408
 30
0.0
 10
78.5997
 20
289.8203
 30
0.0
 10
78.5997
 20
289.8203
 30
0.0
 10
78.5997
 20
289.8203
 30
0.0
 10
78.6529
 20
289.8027
 30
0.0
 10
78.6529
 20
289.8027
 30
0.0
 10
78.6529
 20
289.8027
 30
0.0
 10
78.7058
 20
289.7889
 30
0.0
 10
78.7058
 20
289.7889
 30
0.0
 10
78.7058
 20
289.7889
 30
0.0
 10
78.7595
 20
289.7776
 30
0.0
 10
78.7595
 20
289.7776
 30
0.0
 10
78.7595
 20
289.7776
 30
0.0
 10
78.8149
 20
289.7695
 30
0.0
 10
78.8149
 20
289.7695
 30
0.0
 10
78.8149
 20
289.7695
 30
0.0
 10
78.8699
 20
289.766
 30
0.0
 10
78.8699
 20
289.766
 30
0.0
 10
78.8699
 20
289.766
 30
0.0
 10
78.9249
 20
289.7653
 30
0.0
 10
78.9249
 20
289.7653
 30
0.0
 10
78.9249
 20
289.7653
 30
0.0
 10
78.98
 20
289.7681
 30
0.0
 10
78.98
 20
289.7681
 30
0.0
 10
78.98
 20
289.7681
 30
0.0
 10
79.0353
 20
289.7748
 30
0.0
 10
79.0353
 20
289.7748
 30
0.0
 10
79.0353
 20
289.7748
 30
0.0
 10
79.0897
 20
289.7836
 30
0.0
 10
79.0897
 20
289.7836
 30
0.0
 10
79.0897
 20
289.7836
 30
0.0
 10
79.1433
 20
289.7977
 30
0.0
 10
79.1433
 20
289.7977
 30
0.0
 10
79.1433
 20
289.7977
 30
0.0
 10
79.1952
 20
289.8143
 30
0.0
 10
79.1952
 20
289.8143
 30
0.0
 10
79.1952
 20
289.8143
 30
0.0
 10
79.2481
 20
289.8334
 30
0.0
 10
79.2481
 20
289.8334
 30
0.0
 10
79.2481
 20
289.8334
 30
0.0
 10
79.2978
 20
289.8566
 30
0.0
 10
79.2978
 20
289.8566
 30
0.0
 10
79.2978
 20
289.8566
 30
0.0
 10
79.3458
 20
289.882
 30
0.0
 10
79.3458
 20
289.882
 30
0.0
 10
79.3458
 20
289.882
 30
0.0
 10
79.3934
 20
289.911
 30
0.0
 10
79.3934
 20
289.911
 30
0.0
 10
79.3934
 20
289.911
 30
0.0
 10
79.4382
 20
289.9438
 30
0.0
 10
79.4382
 20
289.9438
 30
0.0
 10
79.4382
 20
289.9438
 30
0.0
 10
79.4809
 20
289.9783
 30
0.0
 10
79.4809
 20
289.9783
 30
0.0
 10
79.4809
 20
289.9783
 30
0.0
 10
79.5215
 20
290.0161
 30
0.0
 10
79.5215
 20
290.0161
 30
0.0
 10
79.5215
 20
290.0161
 30
0.0
 10
79.5603
 20
290.0553
 30
0.0
 10
79.5603
 20
290.0553
 30
0.0
 10
79.5603
 20
290.0553
 30
0.0
 10
79.5959
 20
290.0976
 30
0.0
 10
79.5959
 20
290.0976
 30
0.0
 10
79.5959
 20
290.0976
 30
0.0
 10
79.6291
 20
290.1427
 30
0.0
 10
79.6291
 20
290.1427
 30
0.0
 10
79.6291
 20
290.1427
 30
0.0
 10
79.6587
 20
290.1882
 30
0.0
 10
79.6587
 20
290.1882
 30
0.0
 10
79.6587
 20
290.1882
 30
0.0
 10
79.6869
 20
290.2373
 30
0.0
 10
79.6869
 20
290.2373
 30
0.0
 10
79.6869
 20
290.2373
 30
0.0
 10
79.7099
 20
290.286
 30
0.0
 10
79.7099
 20
290.286
 30
0.0
 10
79.7099
 20
290.286
 30
0.0
 10
79.731
 20
290.3368
 30
0.0
 10
79.731
 20
290.3368
 30
0.0
 10
79.731
 20
290.3368
 30
0.0
 10
79.749
 20
290.3893
 30
0.0
 10
79.749
 20
290.3893
 30
0.0
 10
79.749
 20
290.3893
 30
0.0
 10
79.7628
 20
290.4426
 30
0.0
 10
79.7628
 20
290.4426
 30
0.0
 10
79.7628
 20
290.4426
 30
0.0
 10
79.7737
 20
290.4962
 30
0.0
 10
79.7737
 20
290.4962
 30
0.0
 10
79.7737
 20
290.4962
 30
0.0
 10
79.7779
 20
290.5259
 30
0.0
 10
79.7779
 20
290.5259
 30
0.0
 10
79.7779
 20
290.5259
 30
0.0
 10
79.8132
 20
294.7345
 30
0.0
 10
79.8132
 20
294.7345
 30
0.0
 10
79.8132
 20
294.7345
 30
0.0
 10
79.8834
 20
312.5388
 30
0.0
 10
79.8834
 20
312.5388
 30
0.0
 10
79.8834
 20
312.5388
 30
0.0
 10
79.9536
 20
330.3516
 30
0.0
 10
79.9536
 20
330.3516
 30
0.0
 10
79.9536
 20
330.3516
 30
0.0
 10
79.9875
 20
339.2589
 30
0.0
 10
79.9875
 20
339.2589
 30
0.0
 10
79.9875
 20
339.2589
 30
0.0
 10
80.0231
 20
348.1595
 30
0.0
 10
80.0231
 20
348.1595
 30
0.0
 10
80.0231
 20
348.1595
 30
0.0
 10
80.0034
 20
355.9619
 30
0.0
 10
80.0034
 20
355.9619
 30
0.0
 10
80.0034
 20
355.9619
 30
0.0
 10
79.9977
 20
364.6822
 30
0.0
 10
79.9977
 20
364.6822
 30
0.0
 10
79.9977
 20
364.6822
 30
0.0
 10
80.0404
 20
370.0822
 30
0.0
 10
80.0404
 20
370.0822
 30
0.0
 10
80.0404
 20
370.0822
 30
0.0
 10
80.0969
 20
375.3036
 30
0.0
 10
80.0969
 20
375.3036
 30
0.0
 10
80.0969
 20
375.3036
 30
0.0
 10
80.1865
 20
377.5491
 30
0.0
 10
80.1865
 20
377.5491
 30
0.0
 10
80.1865
 20
377.5491
 30
0.0
 10
80.3311
 20
379.223
 30
0.0
 10
80.4133
 20
379.7779
 30
0.0
 10
80.4863
 20
380.2708
 30
0.0
 10
80.6779
 20
381.249
 30
0.0
 10
80.7936
 20
381.7334
 30
0.0
 10
80.91
 20
382.2199
 30
0.0
 10
81.1905
 20
383.1815
 30
0.0
 10
81.3436
 20
383.6578
 30
0.0
 10
81.4289
 20
383.9245
 30
0.0
 10
81.617
 20
384.4515
 30
0.0
 10
81.7196
 20
384.7119
 30
0.0
 10
81.8216
 20
384.9712
 30
0.0
 10
82.04
 20
385.4859
 30
0.0
 10
82.162
 20
385.7367
 30
0.0
 10
82.2834
 20
385.9861
 30
0.0
 10
82.5458
 20
386.4758
 30
0.0
 10
82.6919
 20
386.7132
 30
0.0
 10
82.8372
 20
386.9488
 30
0.0
 10
83.1519
 20
387.4067
 30
0.0
 10
83.3251
 20
387.6237
 30
0.0
 10
83.498
 20
387.8407
 30
0.0
 10
83.8733
 20
388.2541
 30
0.0
 10
84.0741
 20
388.4464
 30
0.0
 10
84.2759
 20
388.6404
 30
0.0
 10
84.7052
 20
389.0006
 30
0.0
 10
84.9303
 20
389.1668
 30
0.0
 10
85.1564
 20
389.3326
 30
0.0
 10
85.6284
 20
389.6367
 30
0.0
 10
85.8736
 20
389.7718
 30
0.0
 10
86.1191
 20
389.9065
 30
0.0
 10
86.6268
 20
390.1447
 30
0.0
 10
86.8878
 20
390.2456
 30
0.0
 10
87.1492
 20
390.3461
 30
0.0
 10
87.6865
 20
390.5108
 30
0.0
 10
87.9596
 20
390.5765
 30
0.0
 10
88.2323
 20
390.6417
 30
0.0
 10
88.7861
 20
390.7366
 30
0.0
 10
89.0652
 20
390.7677
 30
0.0
 10
89.3442
 20
390.7998
 30
0.0
 10
89.9065
 20
390.8276
 30
0.0
 10
90.1877
 20
390.8262
 30
0.0
 10
90.4675
 20
390.8248
 30
0.0
 10
91.0277
 20
390.7902
 30
0.0
 10
91.3067
 20
390.7588
 30
0.0
 10
91.5851
 20
390.7274
 30
0.0
 10
92.1389
 20
390.6325
 30
0.0
 10
92.4134
 20
390.5736
 30
0.0
 10
92.6868
 20
390.5144
 30
0.0
 10
93.2283
 20
390.369
 30
0.0
 10
93.4957
 20
390.2854
 30
0.0
 10
93.7638
 20
390.2025
 30
0.0
 10
94.2933
 20
390.0127
 30
0.0
 10
94.5547
 20
389.909
 30
0.0
 10
94.8151
 20
389.8063
 30
0.0
 10
95.5834
 20
389.4624
 30
0.0
 10
95.5834
 20
389.4624
 30
0.0
 10
95.5834
 20
389.4624
 30
0.0
 10
97.5579
 20
388.4033
 30
0.0
 10
97.5579
 20
388.4033
 30
0.0
 10
97.5579
 20
388.4033
 30
0.0
 10
99.4252
 20
387.1647
 30
0.0
 10
99.4252
 20
387.1647
 30
0.0
 10
99.4252
 20
387.1647
 30
0.0
 10
101.1933
 20
385.7928
 30
0.0
 10
101.1933
 20
385.7928
 30
0.0
 10
101.1933
 20
385.7928
 30
0.0
 10
102.8623
 20
384.303
 30
0.0
 10
102.8623
 20
384.303
 30
0.0
 10
102.8623
 20
384.303
 30
0.0
 10
103.8593
 20
383.3251
 30
0.0
 10
103.8593
 20
383.3251
 30
0.0
 10
103.8593
 20
383.3251
 30
0.0
 10
103.9012
 20
383.2905
 30
0.0
 10
103.9012
 20
383.2905
 30
0.0
 10
103.9012
 20
383.2905
 30
0.0
 10
103.9453
 20
383.2581
 30
0.0
 10
103.9453
 20
383.2581
 30
0.0
 10
103.9453
 20
383.2581
 30
0.0
 10
103.993
 20
383.2284
 30
0.0
 10
103.993
 20
383.2284
 30
0.0
 10
103.993
 20
383.2284
 30
0.0
 10
104.0409
 20
383.202
 30
0.0
 10
104.0409
 20
383.202
 30
0.0
 10
104.0409
 20
383.202
 30
0.0
 10
104.0914
 20
383.1791
 30
0.0
 10
104.0914
 20
383.1791
 30
0.0
 10
104.0914
 20
383.1791
 30
0.0
 10
104.1422
 20
383.1582
 30
0.0
 10
104.1422
 20
383.1582
 30
0.0
 10
104.1422
 20
383.1582
 30
0.0
 10
104.1955
 20
383.1417
 30
0.0
 10
104.1955
 20
383.1417
 30
0.0
 10
104.1955
 20
383.1417
 30
0.0
 10
104.2491
 20
383.1272
 30
0.0
 10
104.2491
 20
383.1272
 30
0.0
 10
104.2491
 20
383.1272
 30
0.0
 10
104.3034
 20
383.1173
 30
0.0
 10
104.3034
 20
383.1173
 30
0.0
 10
104.3034
 20
383.1173
 30
0.0
 10
104.3574
 20
383.1106
 30
0.0
 10
104.3574
 20
383.1106
 30
0.0
 10
104.3574
 20
383.1106
 30
0.0
 10
104.4138
 20
383.1078
 30
0.0
 10
104.4138
 20
383.1078
 30
0.0
 10
104.4138
 20
383.1078
 30
0.0
 10
104.4674
 20
383.1078
 30
0.0
 10
104.4674
 20
383.1078
 30
0.0
 10
104.4674
 20
383.1078
 30
0.0
 10
104.5235
 20
383.1117
 30
0.0
 10
104.5235
 20
383.1117
 30
0.0
 10
104.5235
 20
383.1117
 30
0.0
 10
104.5786
 20
383.1191
 30
0.0
 10
104.5786
 20
383.1191
 30
0.0
 10
104.5786
 20
383.1191
 30
0.0
 10
104.6322
 20
383.1293
 30
0.0
 10
104.6322
 20
383.1293
 30
0.0
 10
104.6322
 20
383.1293
 30
0.0
 10
104.6851
 20
383.1431
 30
0.0
 10
104.6851
 20
383.1431
 30
0.0
 10
104.6851
 20
383.1431
 30
0.0
 10
104.7384
 20
383.1604
 30
0.0
 10
104.7384
 20
383.1604
 30
0.0
 10
104.7384
 20
383.1604
 30
0.0
 10
104.7892
 20
383.1798
 30
0.0
 10
104.7892
 20
383.1798
 30
0.0
 10
104.7892
 20
383.1798
 30
0.0
 10
104.8389
 20
383.2038
 30
0.0
 10
104.8389
 20
383.2038
 30
0.0
 10
104.8389
 20
383.2038
 30
0.0
 10
104.8873
 20
383.2309
 30
0.0
 10
104.8873
 20
383.2309
 30
0.0
 10
104.8873
 20
383.2309
 30
0.0
 10
104.9342
 20
383.2609
 30
0.0
 10
104.9342
 20
383.2609
 30
0.0
 10
104.9342
 20
383.2609
 30
0.0
 10
104.979
 20
383.2927
 30
0.0
 10
104.979
 20
383.2927
 30
0.0
 10
104.979
 20
383.2927
 30
0.0
 10
105.0202
 20
383.3279
 30
0.0
 10
105.0202
 20
383.3279
 30
0.0
 10
105.0202
 20
383.3279
 30
0.0
 10
105.0615
 20
383.3664
 30
0.0
 10
105.0615
 20
383.3664
 30
0.0
 10
105.0615
 20
383.3664
 30
0.0
 10
105.0986
 20
383.4062
 30
0.0
 10
105.0986
 20
383.4062
 30
0.0
 10
105.0986
 20
383.4062
 30
0.0
 10
105.1338
 20
383.4489
 30
0.0
 10
105.1338
 20
383.4489
 30
0.0
 10
105.1338
 20
383.4489
 30
0.0
 10
105.1663
 20
383.4941
 30
0.0
 10
105.1663
 20
383.4941
 30
0.0
 10
105.1663
 20
383.4941
 30
0.0
 10
105.1966
 20
383.5407
 30
0.0
 10
105.1966
 20
383.5407
 30
0.0
 10
105.1966
 20
383.5407
 30
0.0
 10
105.2227
 20
383.5897
 30
0.0
 10
105.2227
 20
383.5897
 30
0.0
 10
105.2227
 20
383.5897
 30
0.0
 10
105.2457
 20
383.6394
 30
0.0
 10
105.2457
 20
383.6394
 30
0.0
 10
105.2457
 20
383.6394
 30
0.0
 10
105.2654
 20
383.6902
 30
0.0
 10
105.2654
 20
383.6902
 30
0.0
 10
105.2654
 20
383.6902
 30
0.0
 10
105.2834
 20
383.7432
 30
0.0
 10
105.2834
 20
383.7432
 30
0.0
 10
105.2834
 20
383.7432
 30
0.0
 10
105.2965
 20
383.7964
 30
0.0
 10
105.2965
 20
383.7964
 30
0.0
 10
105.2965
 20
383.7964
 30
0.0
 10
105.3074
 20
383.85
 30
0.0
 10
105.3074
 20
383.85
 30
0.0
 10
105.3074
 20
383.85
 30
0.0
 10
105.3131
 20
383.9061
 30
0.0
 10
105.3131
 20
383.9061
 30
0.0
 10
105.3131
 20
383.9061
 30
0.0
 10
105.3173
 20
383.9601
 30
0.0
 10
105.3173
 20
383.9601
 30
0.0
 10
105.3173
 20
383.9601
 30
0.0
 10
105.3173
 20
384.0155
 30
0.0
 10
105.3173
 20
384.0155
 30
0.0
 10
105.3173
 20
384.0155
 30
0.0
 10
105.3131
 20
384.0705
 30
0.0
 10
105.3131
 20
384.0705
 30
0.0
 10
105.3131
 20
384.0705
 30
0.0
 10
105.306
 20
384.1259
 30
0.0
 10
105.306
 20
384.1259
 30
0.0
 10
105.306
 20
384.1259
 30
0.0
 10
105.2965
 20
384.1788
 30
0.0
 10
105.2965
 20
384.1788
 30
0.0
 10
105.2965
 20
384.1788
 30
0.0
 10
105.2813
 20
384.2332
 30
0.0
 10
105.2813
 20
384.2332
 30
0.0
 10
105.2813
 20
384.2332
 30
0.0
 10
105.2647
 20
384.2854
 30
0.0
 10
105.2647
 20
384.2854
 30
0.0
 10
105.2647
 20
384.2854
 30
0.0
 10
105.2443
 20
384.3365
 30
0.0
 10
105.2443
 20
384.3365
 30
0.0
 10
105.2443
 20
384.3365
 30
0.0
 10
105.2316
 20
384.3647
 30
0.0
 10
105.2316
 20
384.3647
 30
0.0
 10
105.2316
 20
384.3647
 30
0.0
 10
104.7768
 20
385.0879
 30
0.0
 10
104.7768
 20
385.0879
 30
0.0
 10
104.7768
 20
385.0879
 30
0.0
 10
103.172
 20
387.5616
 30
0.0
 10
103.172
 20
387.5616
 30
0.0
 10
103.172
 20
387.5616
 30
0.0
 10
101.5302
 20
390.0092
 30
0.0
 10
101.5302
 20
390.0092
 30
0.0
 10
101.5302
 20
390.0092
 30
0.0
 10
99.8327
 20
392.4183
 30
0.0
 10
99.8327
 20
392.4183
 30
0.0
 10
99.8327
 20
392.4183
 30
0.0
 10
98.0631
 20
394.7742
 30
0.0
 10
98.0631
 20
394.7742
 30
0.0
 10
98.0631
 20
394.7742
 30
0.0
 10
96.2029
 20
397.0605
 30
0.0
 10
96.2029
 20
397.0605
 30
0.0
 10
96.2029
 20
397.0605
 30
0.0
 10
94.7385
 20
398.7182
 30
0.0
 10
94.226
 20
399.2488
 30
0.0
 10
93.7134
 20
399.7804
 30
0.0
 10
92.6572
 20
400.8123
 30
0.0
 10
92.1079
 20
401.3055
 30
0.0
 10
91.5593
 20
401.7997
 30
0.0
 10
90.422
 20
402.7424
 30
0.0
 10
89.8395
 20
403.1957
 30
0.0
 10
89.5474
 20
403.4222
 30
0.0
 10
88.948
 20
403.854
 30
0.0
 10
88.6436
 20
404.0639
 30
0.0
 10
88.3392
 20
404.2731
 30
0.0
 10
87.7204
 20
404.6784
 30
0.0
 10
87.4053
 20
404.8721
 30
0.0
 10
87.0903
 20
405.0657
 30
0.0
 10
86.4497
 20
405.4365
 30
0.0
 10
86.1237
 20
405.6108
 30
0.0
 10
85.7974
 20
405.7858
 30
0.0
 10
85.1331
 20
406.1163
 30
0.0
 10
84.7962
 20
406.2701
 30
0.0
 10
84.4586
 20
406.4232
 30
0.0
 10
83.7735
 20
406.7097
 30
0.0
 10
83.425
 20
406.8385
 30
0.0
 10
83.0771
 20
406.9672
 30
0.0
 10
82.3716
 20
407.1993
 30
0.0
 10
82.0146
 20
407.2988
 30
0.0
 10
81.6575
 20
407.398
 30
0.0
 10
80.9368
 20
407.5659
 30
0.0
 10
80.5717
 20
407.6304
 30
0.0
 10
80.208
 20
407.6946
 30
0.0
 10
79.4749
 20
407.7892
 30
0.0
 10
79.1063
 20
407.8142
 30
0.0
 10
78.7362
 20
407.8389
 30
0.0
 10
77.9936
 20
407.8488
 30
0.0
 10
77.6228
 20
407.8287
 30
0.0
 10
77.2528
 20
407.8086
 30
0.0
 10
76.5147
 20
407.7225
 30
0.0
 10
76.1503
 20
407.6551
 30
0.0
 10
75.7873
 20
407.5878
 30
0.0
 10
75.0712
 20
407.4022
 30
0.0
 10
74.7198
 20
407.2875
 30
0.0
 10
74.3677
 20
407.1743
 30
0.0
 10
73.6795
 20
406.8991
 30
0.0
 10
73.3433
 20
406.7436
 30
0.0
 10
73.0078
 20
406.5883
 30
0.0
 10
72.3537
 20
406.2394
 30
0.0
 10
72.0391
 20
406.0461
 30
0.0
 10
71.7247
 20
405.8531
 30
0.0
 10
71.1183
 20
405.4295
 30
0.0
 10
70.8304
 20
405.1987
 30
0.0
 10
70.5422
 20
404.9684
 30
0.0
 10
69.9965
 20
404.4713
 30
0.0
 10
69.7396
 20
404.2067
 30
0.0
 10
69.4828
 20
403.9421
 30
0.0
 10
69.0016
 20
403.3805
 30
0.0
 10
68.7773
 20
403.0877
 30
0.0
 10
68.5547
 20
402.7967
 30
0.0
 10
68.1433
 20
402.1874
 30
0.0
 10
67.9528
 20
401.8738
 30
0.0
 10
67.762
 20
401.5609
 30
0.0
 10
67.4148
 20
400.9125
 30
0.0
 10
67.255
 20
400.5823
 30
0.0
 10
67.0945
 20
400.251
 30
0.0
 10
66.8052
 20
399.5726
 30
0.0
 10
66.673
 20
399.2297
 30
0.0
 10
66.5407
 20
398.8858
 30
0.0
 10
66.2979
 20
398.189
 30
0.0
 10
66.196
 20
397.8349
 30
0.0
 10
65.9928
 20
397.1282
 30
0.0
 10
65.6524
 20
395.6949
 30
0.0
 10
65.5215
 20
394.971
 30
0.0
 10
65.3906
 20
394.2485
 30
0.0
 10
65.2149
 20
392.7887
 30
0.0
 10
65.1507
 20
392.0571
 30
0.0
 10
65.0858
 20
391.3261
 30
0.0
 10
65.0205
 20
389.8575
 30
0.0
 10
65.0082
 20
389.123
 30
0.0
 10
64.9958
 20
388.3889
 30
0.0
 10
65.0212
 20
386.9196
 30
0.0
 10
65.0509
 20
386.1858
 30
0.0
  0
ENDSEC
  0
SECTION
  2
OBJECTS
  0
DICTIONARY
  5
A
330
0
100
AcDbDictionary
281
1
  3
ACAD_COLOR
350
B
  3
ACAD_GROUP
350
C
  3
ACAD_LAYOUT
350
D
  3
ACAD_MATERIAL
350
E
  3
ACAD_MLEADERSTYLE
350
F
  3
ACAD_MLINESTYLE
350
10
  3
ACAD_PLOTSETTINGS
350
11
  3
ACAD_PLOTSTYLENAME
350
12
  3
ACAD_SCALELIST
350
14
  3
ACAD_TABLESTYLE
350
15
  3
ACAD_VISUALSTYLE
350
16
  3
EZDXF_META
350
2D
  0
DICTIONARY
  5
B
330
A
100
AcDbDictionary
281
1
  0
DICTIONARY
  5
C
330
A
100
AcDbDictionary
281
1
  0
DICTIONARY
  5
D
330
A
100
AcDbDictionary
281
1
  3
Model
350
1A
  3
Layout1
350
1E
  0
DICTIONARY
  5
E
330
A
100
AcDbDictionary
281
1
  3
ByBlock
350
1F
  3
ByLayer
350
20
  3
Global
350
21
  0
DICTIONARY
  5
F
330
A
100
AcDbDictionary
281
1
  3
Standard
350
2C
  0
DICTIONARY
  5
10
330
A
100
AcDbDictionary
281
1
  3
Standard
350
22
  0
DICTIONARY
  5
11
330
A
100
AcDbDictionary
281
1
  0
ACDBDICTIONARYWDFLT
  5
12
330
A
100
AcDbDictionary
281
1
  3
Normal
350
13
100
AcDbDictionaryWithDefault
340
13
  0
ACDBPLACEHOLDER
  5
13
330
12
  0
DICTIONARY
  5
14
330
A
100
AcDbDictionary
281
1
  0
DICTIONARY
  5
15
330
A
100
AcDbDictionary
281
1
  0
DICTIONARY
  5
16
330
A
100
AcDbDictionary
281
1
  0
LAYOUT
  5
1A
330
D
100
AcDbPlotSettings
  1

  4
A3
  6

 40
7.5
 41
20.0
 42
7.5
 43
20.0
 44
420.0
 45
297.0
 46
0.0
 47
0.0
 48
0.0
 49
0.0
140
0.0
141
0.0
142
1.0
143
1.0
 70
1024
 72
1
 73
0
 74
5
  7

 75
16
 76
0
 77
2
 78
300
147
1.0
148
0.0
149
0.0
100
AcDbLayout
  1
Model
 70
1
 71
0
 10
0.0
 20
0.0
 11
420.0
 21
297.0
 12
0.0
 22
0.0
 32
0.0
 14
1e+20
 24
1e+20
 34
1e+20
 15
-1e+20
 25
-1e+20
 35
-1e+20
146
0.0
 13
0.0
 23
0.0
 33
0.0
 16
1.0
 26
0.0
 36
0.0
 17
0.0
 27
1.0
 37
0.0
 76
1
330
17
  0
LAYOUT
  5
1E
330
D
100
AcDbPlotSettings
  1

  4
A3
  6

 40
7.5
 41
20.0
 42
7.5
 43
20.0
 44
420.0
 45
297.0
 46
0.0
 47
0.0
 48
0.0
 49
0.0
140
0.0
141
0.0
142
1.0
143
1.0
 70
0
 72
1
 73
0
 74
5
  7

 75
16
 76
0
 77
2
 78
300
147
1.0
148
0.0
149
0.0
100
AcDbLayout
  1
Layout1
 70
1
 71
1
 10
0.0
 20
0.0
 11
420.0
 21
297.0
 12
0.0
 22
0.0
 32
0.0
 14
1e+20
 24
1e+20
 34
1e+20
 15
-1e+20
 25
-1e+20
 35
-1e+20
146
0.0
 13
0.0
 23
0.0
 33
0.0
 16
1.0
 26
0.0
 36
0.0
 17
0.0
 27
1.0
 37
0.0
 76
1
330
1B
  0
MATERIAL
  5
1F
102
{ACAD_REACTORS
330
E
102
}
330
E
100
AcDbMaterial
  1
ByBlock
  2

 70
0
 40
1.0
 71
1
 41
1.0
 91
-1023410177
 42
1.0
 72
1
  3

 73
1
 74
1
 75
1
 44
0.5
 73
0
 45
1.0
 46
1.0
 77
1
  4

 78
1
 79
1
170
1
 48
1.0
171
1
  6

172
1
173
1
174
1
140
1.0
141
1.0
175
1
  7

176
1
177
1
178
1
143
1.0
179
1
  8

270
1
271
1
272
1
145
1.0
146
1.0
273
1
  9

274
1
275
1
276
1
 42
1.0
 72
1
  3

 73
1
 74
1
 75
1
 94
63
  0
MATERIAL
  5
20
102
{ACAD_REACTORS
330
E
102
}
330
E
100
AcDbMaterial
  1
ByLayer
  2

 70
0
 40
1.0
 71
1
 41
1.0
 91
-1023410177
 42
1.0
 72
1
  3

 73
1
 74
1
 75
1
 44
0.5
 73
0
 45
1.0
 46
1.0
 77
1
  4

 78
1
 79
1
170
1
 48
1.0
171
1
  6

172
1
173
1
174
1
140
1.0
141
1.0
175
1
  7

176
1
177
1
178
1
143
1.0
179
1
  8

270
1
271
1
272
1
145
1.0
146
1.0
273
1
  9

274
1
275
1
276
1
 42
1.0
 72
1
  3

 73
1
 74
1
 75
1
 94
63
  0
MATERIAL
  5
21
102
{ACAD_REACTORS
330
E
102
}
330
E
100
AcDbMaterial
  1
Global
  2

 70
0
 40
1.0
 71
1
 41
1.0
 91
-1023410177
 42
1.0
 72
1
  3

 73
1
 74
1
 75
1
 44
0.5
 73
0
 45
1.0
 46
1.0
 77
1
  4

 78
1
 79
1
170
1
 48
1.0
171
1
  6

172
1
173
1
174
1
140
1.0
141
1.0
175
1
  7

176
1
177
1
178
1
143
1.0
179
1
  8

270
1
271
1
272
1
145
1.0
146
1.0
273
1
  9

274
1
275
1
276
1
 42
1.0
 72
1
  3

 73
1
 74
1
 75
1
 94
63
  0
MLINESTYLE
  5
22
102
{ACAD_REACTORS
330
10
102
}
330
10
100
AcDbMlineStyle
  2
Standard
 70
0
  3

 62
256
 51
90.0
 52
90.0
 71
2
 49
0.5
 62
256
  6
BYLAYER
 49
-0.5
 62
256
  6
BYLAYER
  0
MLEADERSTYLE
  5
2C
102
{ACAD_REACTORS
330
F
102
}
330
F
100
AcDbMLeaderStyle
179
2
170
2
171
1
172
0
 90
2
 40
0.0
 41
0.0
173
1
 91
-1056964608
 92
-2
290
1
 42
2.0
291
1
 43
8.0
  3
Standard
 44
4.0
300

342
29
174
1
175
1
176
0
178
1
 93
-1056964608
 45
4.0
292
0
297
0
 46
4.0
 94
-1056964608
 47
1.0
 49
1.0
140
1.0
294
1
141
0.0
177
0
142
1.0
295
0
296
0
143
3.75
271
0
272
9
273
9
  0
DICTIONARY
  5
2D
330
A
100
AcDbDictionary
280
1
281
1
  3
CREATED_BY_EZDXF
350
2E
  3
WRITTEN_BY_EZDXF
350
35
  0
DICTIONARYVAR
  5
2E
330
2D
100
DictionaryVariables
280
0
  1
1.4.3 @ 2026-05-13T11:14:37.897021+00:00
  0
DICTIONARYVAR
  5
35
330
2D
100
DictionaryVariables
280
0
  1
1.4.3 @ 2026-05-13T11:14:37.898495+00:00
  0
ENDSEC
  0
EOF
