  0
SECTION
  2
HEADER
  9
$ACADVER
  1
AC1015
  9
$ACADMAINTVER
 70
6
  9
$DWGCODEPAGE
  3
ANSI_1252
  9
$INSBASE
 10
0.0
 20
0.0
 30
0.0
  9
$EXTMIN
 10
1e+20
 20
1e+20
 30
1e+20
  9
$EXTMAX
 10
-1e+20
 20
-1e+20
 30
-1e+20
  9
$LIMMIN
 10
0.0
 20
0.0
  9
$LIMMAX
 10
420.0
 20
297.0
  9
$ORTHOMODE
 70
0
  9
$REGENMODE
 70
1
  9
$FILLMODE
 70
1
  9
$QTEXTMODE
 70
0
  9
$MIRRTEXT
 70
1
  9
$LTSCALE
 40
1.0
  9
$ATTMODE
 70
1
  9
$TEXTSIZE
 40
2.5
  9
$TRACEWID
 40
1.0
  9
$TEXTSTYLE
  7
Standard
  9
$CLAYER
  8
0
  9
$CELTYPE
  6
ByLayer
  9
$CECOLOR
 62
256
  9
$CELTSCALE
 40
1.0
  9
$DISPSILH
 70
0
  9
$DIMSCALE
 40
1.0
  9
$DIMASZ
 40
2.5
  9
$DIMEXO
 40
0.625
  9
$DIMDLI
 40
3.75
  9
$DIMRND
 40
0.0
  9
$DIMDLE
 40
0.0
  9
$DIMEXE
 40
1.25
  9
$DIMTP
 40
0.0
  9
$DIMTM
 40
0.0
  9
$DIMTXT
 40
2.5
  9
$DIMCEN
 40
2.5
  9
$DIMTSZ
 40
0.0
  9
$DIMTOL
 70
0
  9
$DIMLIM
 70
0
  9
$DIMTIH
 70
0
  9
$DIMTOH
 70
0
  9
$DIMSE1
 70
0
  9
$DIMSE2
 70
0
  9
$DIMTAD
 70
1
  9
$DIMZIN
 70
8
  9
$DIMBLK
  1

  9
$DIMASO
 70
1
  9
$DIMSHO
 70
1
  9
$DIMPOST
  1

  9
$DIMAPOST
  1

  9
$DIMALT
 70
0
  9
$DIMALTD
 70
3
  9
$DIMALTF
 40
0.03937007874
  9
$DIMLFAC
 40
1.0
  9
$DIMTOFL
 70
1
  9
$DIMTVP
 40
0.0
  9
$DIMTIX
 70
0
  9
$DIMSOXD
 70
0
  9
$DIMSAH
 70
0
  9
$DIMBLK1
  1

  9
$DIMBLK2
  1

  9
$DIMSTYLE
  2
ISO-25
  9
$DIMCLRD
 70
0
  9
$DIMCLRE
 70
0
  9
$DIMCLRT
 70
0
  9
$DIMTFAC
 40
1.0
  9
$DIMGAP
 40
0.625
  9
$DIMJUST
 70
0
  9
$DIMSD1
 70
0
  9
$DIMSD2
 70
0
  9
$DIMTOLJ
 70
0
  9
$DIMTZIN
 70
8
  9
$DIMALTZ
 70
0
  9
$DIMALTTZ
 70
0
  9
$DIMUPT
 70
0
  9
$DIMDEC
 70
2
  9
$DIMTDEC
 70
2
  9
$DIMALTU
 70
2
  9
$DIMALTTD
 70
3
  9
$DIMTXSTY
  7
Standard
  9
$DIMAUNIT
 70
0
  9
$DIMADEC
 70
0
  9
$DIMALTRND
 40
0.0
  9
$DIMAZIN
 70
0
  9
$DIMDSEP
 70
44
  9
$DIMATFIT
 70
3
  9
$DIMFRAC
 70
0
  9
$DIMLDRBLK
  1

  9
$DIMLUNIT
 70
2
  9
$DIMLWD
 70
-2
  9
$DIMLWE
 70
-2
  9
$DIMTMOVE
 70
0
  9
$LUNITS
 70
2
  9
$LUPREC
 70
4
  9
$SKETCHINC
 40
1.0
  9
$FILLETRAD
 40
10.0
  9
$AUNITS
 70
0
  9
$AUPREC
 70
2
  9
$MENU
  1
.
  9
$ELEVATION
 40
0.0
  9
$PELEVATION
 40
0.0
  9
$THICKNESS
 40
0.0
  9
$LIMCHECK
 70
0
  9
$CHAMFERA
 40
0.0
  9
$CHAMFERB
 40
0.0
  9
$CHAMFERC
 40
0.0
  9
$CHAMFERD
 40
0.0
  9
$SKPOLY
 70
0
  9
$TDCREATE
 40
2461174.7599537037
  9
$TDUCREATE
 40
2458532.153996898
  9
$TDUPDATE
 40
2461174.7599537037
  9
$TDUUPDATE
 40
2458532.1544311
  9
$TDINDWG
 40
0.0
  9
$TDUSRTIMER
 40
0.0
  9
$USRTIMER
 70
1
  9
$ANGBASE
 50
0.0
  9
$ANGDIR
 70
0
  9
$PDMODE
 70
0
  9
$PDSIZE
 40
0.0
  9
$PLINEWID
 40
0.0
  9
$SPLFRAME
 70
0
  9
$SPLINETYPE
 70
6
  9
$SPLINESEGS
 70
8
  9
$HANDSEED
  5
35
  9
$SURFTAB1
 70
6
  9
$SURFTAB2
 70
6
  9
$SURFTYPE
 70
6
  9
$SURFU
 70
6
  9
$SURFV
 70
6
  9
$UCSBASE
  2

  9
$UCSNAME
  2

  9
$UCSORG
 10
0.0
 20
0.0
 30
0.0
  9
$UCSXDIR
 10
1.0
 20
0.0
 30
0.0
  9
$UCSYDIR
 10
0.0
 20
1.0
 30
0.0
  9
$UCSORTHOREF
  2

  9
$UCSORTHOVIEW
 70
0
  9
$UCSORGTOP
 10
0.0
 20
0.0
 30
0.0
  9
$UCSORGBOTTOM
 10
0.0
 20
0.0
 30
0.0
  9
$UCSORGLEFT
 10
0.0
 20
0.0
 30
0.0
  9
$UCSORGRIGHT
 10
0.0
 20
0.0
 30
0.0
  9
$UCSORGFRONT
 10
0.0
 20
0.0
 30
0.0
  9
$UCSORGBACK
 10
0.0
 20
0.0
 30
0.0
  9
$PUCSBASE
  2

  9
$PUCSNAME
  2

  9
$PUCSORG
 10
0.0
 20
0.0
 30
0.0
  9
$PUCSXDIR
 10
1.0
 20
0.0
 30
0.0
  9
$PUCSYDIR
 10
0.0
 20
1.0
 30
0.0
  9
$PUCSORTHOREF
  2

  9
$PUCSORTHOVIEW
 70
0
  9
$PUCSORGTOP
 10
0.0
 20
0.0
 30
0.0
  9
$PUCSORGBOTTOM
 10
0.0
 20
0.0
 30
0.0
  9
$PUCSORGLEFT
 10
0.0
 20
0.0
 30
0.0
  9
$PUCSORGRIGHT
 10
0.0
 20
0.0
 30
0.0
  9
$PUCSORGFRONT
 10
0.0
 20
0.0
 30
0.0
  9
$PUCSORGBACK
 10
0.0
 20
0.0
 30
0.0
  9
$USERI1
 70
0
  9
$USERI2
 70
0
  9
$USERI3
 70
0
  9
$USERI4
 70
0
  9
$USERI5
 70
0
  9
$USERR1
 40
0.0
  9
$USERR2
 40
0.0
  9
$USERR3
 40
0.0
  9
$USERR4
 40
0.0
  9
$USERR5
 40
0.0
  9
$WORLDVIEW
 70
1
  9
$SHADEDGE
 70
3
  9
$SHADEDIF
 70
70
  9
$TILEMODE
 70
1
  9
$MAXACTVP
 70
64
  9
$PINSBASE
 10
0.0
 20
0.0
 30
0.0
  9
$PLIMCHECK
 70
0
  9
$PEXTMIN
 10
1e+20
 20
1e+20
 30
1e+20
  9
$PEXTMAX
 10
-1e+20
 20
-1e+20
 30
-1e+20
  9
$PLIMMIN
 10
0.0
 20
0.0
  9
$PLIMMAX
 10
420.0
 20
297.0
  9
$UNITMODE
 70
0
  9
$VISRETAIN
 70
1
  9
$PLINEGEN
 70
0
  9
$PSLTSCALE
 70
1
  9
$TREEDEPTH
 70
3020
  9
$CMLSTYLE
  2
Standard
  9
$CMLJUST
 70
0
  9
$CMLSCALE
 40
20.0
  9
$PROXYGRAPHICS
 70
1
  9
$MEASUREMENT
 70
1
  9
$CELWEIGHT
370
-1
  9
$ENDCAPS
280
0
  9
$JOINSTYLE
280
0
  9
$LWDISPLAY
290
0
  9
$INSUNITS
 70
6
  9
$HYPERLINKBASE
  1

  9
$STYLESHEET
  1

  9
$XEDIT
290
1
  9
$CEPSNTYPE
380
0
  9
$PSTYLEMODE
290
1
  9
$FINGERPRINTGUID
  2
{7BF6C411-0C79-4508-A705-6FE8EAC229B7}
  9
$VERSIONGUID
  2
{A7463031-3E6A-402D-8E06-C4620674EF84}
  9
$EXTNAMES
290
1
  9
$PSVPSCALE
 40
0.0
  9
$OLESTARTUP
290
0
  0
ENDSEC
  0
SECTION
  2
CLASSES
  0
CLASS
  1
ACDBDICTIONARYWDFLT
  2
AcDbDictionaryWithDefault
  3
ObjectDBX Classes
 90
0
280
0
281
0
  0
CLASS
  1
SUN
  2
AcDbSun
  3
SCENEOE
 90
1153
280
0
281
0
  0
CLASS
  1
VISUALSTYLE
  2
AcDbVisualStyle
  3
ObjectDBX Classes
 90
4095
280
0
281
0
  0
CLASS
  1
MATERIAL
  2
AcDbMaterial
  3
ObjectDBX Classes
 90
1153
280
0
281
0
  0
CLASS
  1
SCALE
  2
AcDbScale
  3
ObjectDBX Classes
 90
1153
280
0
281
0
  0
CLASS
  1
TABLESTYLE
  2
AcDbTableStyle
  3
ObjectDBX Classes
 90
4095
280
0
281
0
  0
CLASS
  1
MLEADERSTYLE
  2
AcDbMLeaderStyle
  3
ACDB_MLEADERSTYLE_CLASS
 90
4095
280
0
281
0
  0
CLASS
  1
DICTIONARYVAR
  2
AcDbDictionaryVar
  3
ObjectDBX Classes
 90
0
280
0
281
0
  0
CLASS
  1
CELLSTYLEMAP
  2
AcDbCellStyleMap
  3
ObjectDBX Classes
 90
1152
280
0
281
0
  0
CLASS
  1
MENTALRAYRENDERSETTINGS
  2
AcDbMentalRayRenderSettings
  3
SCENEOE
 90
1024
280
0
281
0
  0
CLASS
  1
ACDBDETAILVIEWSTYLE
  2
AcDbDetailViewStyle
  3
ObjectDBX Classes
 90
1025
280
0
281
0
  0
CLASS
  1
ACDBSECTIONVIEWSTYLE
  2
AcDbSectionViewStyle
  3
ObjectDBX Classes
 90
1025
280
0
281
0
  0
CLASS
  1
RASTERVARIABLES
  2
AcDbRasterVariables
  3
ISM
 90
0
280
0
281
0
  0
CLASS
  1
ACDBPLACEHOLDER
  2
AcDbPlaceHolder
  3
ObjectDBX Classes
 90
0
280
0
281
0
  0
CLASS
  1
LAYOUT
  2
AcDbLayout
  3
ObjectDBX Classes
 90
0
280
0
281
0
  0
ENDSEC
  0
SECTION
  2
TABLES
  0
TABLE
  2
VPORT
  5
8
330
0
100
AcDbSymbolTable
 70
1
  0
VPORT
  5
23
330
8
100
AcDbSymbolTableRecord
100
AcDbViewportTableRecord
  2
*Active
 70
0
 10
0.0
 20
0.0
 11
1.0
 21
1.0
 12
0.0
 22
0.0
 13
0.0
 23
0.0
 14
0.5
 24
0.5
 15
0.5
 25
0.5
 16
0.0
 26
0.0
 36
1.0
 17
0.0
 27
0.0
 37
0.0
 40
1000.0
 41
1.34
 42
50.0
 43
0.0
 44
0.0
 50
0.0
 51
0.0
 71
0
 72
1000
 73
1
 74
3
 75
0
 76
0
 77
0
 78
0
281
0
 65
0
146
0.0
  0
ENDTAB
  0
TABLE
  2
LTYPE
  5
2
330
0
100
AcDbSymbolTable
 70
3
  0
LTYPE
  5
24
330
2
100
AcDbSymbolTableRecord
100
AcDbLinetypeTableRecord
  2
ByBlock
 70
0
  3

 72
65
 73
0
 40
0.0
  0
LTYPE
  5
25
330
2
100
AcDbSymbolTableRecord
100
AcDbLinetypeTableRecord
  2
ByLayer
 70
0
  3

 72
65
 73
0
 40
0.0
  0
LTYPE
  5
26
330
2
100
AcDbSymbolTableRecord
100
AcDbLinetypeTableRecord
  2
Continuous
 70
0
  3

 72
65
 73
0
 40
0.0
  0
ENDTAB
  0
TABLE
  2
LAYER
  5
1
330
0
100
AcDbSymbolTable
 70
3
  0
LAYER
  5
27
330
1
100
AcDbSymbolTableRecord
100
AcDbLayerTableRecord
  2
0
 70
0
 62
7
  6
Continuous
370
-3
390
13
  0
LAYER
  5
28
330
1
100
AcDbSymbolTableRecord
100
AcDbLayerTableRecord
  2
Defpoints
 70
0
 62
7
  6
Continuous
290
0
370
-3
390
13
  0
LAYER
  5
2F
330
1
100
AcDbSymbolTableRecord
100
AcDbLayerTableRecord
  2
LAYER_1
 70
0
 62
7
  6
CONTINUOUS
370
-3
390
13
  0
ENDTAB
  0
TABLE
  2
STYLE
  5
5
330
0
100
AcDbSymbolTable
 70
1
  0
STYLE
  5
29
330
5
100
AcDbSymbolTableRecord
100
AcDbTextStyleTableRecord
  2
Standard
 70
0
 40
0.0
 41
1.0
 50
0.0
 71
0
 42
2.5
  3
txt
  4

  0
ENDTAB
  0
TABLE
  2
VIEW
  5
7
330
0
100
AcDbSymbolTable
 70
0
  0
ENDTAB
  0
TABLE
  2
UCS
  5
6
330
0
100
AcDbSymbolTable
 70
0
  0
ENDTAB
  0
TABLE
  2
APPID
  5
3
330
0
100
AcDbSymbolTable
 70
3
  0
APPID
  5
2A
330
3
100
AcDbSymbolTableRecord
100
AcDbRegAppTableRecord
  2
ACAD
 70
0
  0
APPID
  5
32
330
3
100
AcDbSymbolTableRecord
100
AcDbRegAppTableRecord
  2
HATCHBACKGROUNDCOLOR
 70
0
  0
APPID
  5
33
330
3
100
AcDbSymbolTableRecord
100
AcDbRegAppTableRecord
  2
EZDXF
 70
0
  0
ENDTAB
  0
TABLE
  2
DIMSTYLE
  5
4
330
0
100
AcDbSymbolTable
 70
1
100
AcDbDimStyleTable
  0
DIMSTYLE
105
2B
330
4
100
AcDbSymbolTableRecord
100
AcDbDimStyleTableRecord
  2
Standard
 70
0
  3

  4

 40
1.0
 41
2.5
 42
0.625
 43
3.75
 44
1.25
 45
0.0
 46
0.0
 47
0.0
 48
0.0
140
2.5
141
2.5
142
0.0
143
0.03937007874
144
1.0
145
0.0
146
1.0
147
0.625
148
0.0
 71
0
 72
0
 73
0
 74
0
 75
0
 76
0
 77
1
 78
8
 79
3
170
0
171
3
172
1
173
0
174
0
175
0
176
0
177
0
178
0
179
2
271
2
272
2
273
2
274
3
275
0
276
0
277
2
278
44
279
0
280
0
281
0
282
0
283
0
284
8
285
0
286
0
288
0
289
3
371
-2
372
-2
  0
ENDTAB
  0
TABLE
  2
BLOCK_RECORD
  5
9
330
0
100
AcDbSymbolTable
 70
2
  0
BLOCK_RECORD
  5
17
330
9
100
AcDbSymbolTableRecord
100
AcDbBlockTableRecord
  2
*Model_Space
340
1A
  0
BLOCK_RECORD
  5
1B
330
9
100
AcDbSymbolTableRecord
100
AcDbBlockTableRecord
  2
*Paper_Space
340
1E
  0
ENDTAB
  0
ENDSEC
  0
SECTION
  2
BLOCKS
  0
BLOCK
  5
18
330
17
100
AcDbEntity
  8
0
100
AcDbBlockBegin
  2
*Model_Space
 70
0
 10
0.0
 20
0.0
 30
0.0
  3
*Model_Space
  1

  0
ENDBLK
  5
19
330
17
100
AcDbEntity
  8
0
100
AcDbBlockEnd
  0
BLOCK
  5
1C
330
1B
100
AcDbEntity
  8
0
100
AcDbBlockBegin
  2
*Paper_Space
 70
0
 10
0.0
 20
0.0
 30
0.0
  3
*Paper_Space
  1

  0
ENDBLK
  5
1D
330
1B
100
AcDbEntity
  8
0
100
AcDbBlockEnd
  0
ENDSEC
  0
SECTION
  2
ENTITIES
  0
SPLINE
  5
30
330
17
100
AcDbEntity
  8
LAYER_1
 62
7
100
AcDbSpline
 70
11
 71
3
 72
389
 73
385
 74
0
 40
0.0
 40
0.0
 40
0.0
 40
0.0
 40
0.0078125
 40
0.0078125
 40
0.0078125
 40
0.015625
 40
0.015625
 40
0.015625
 40
0.0234375
 40
0.0234375
 40
0.0234375
 40
0.03125
 40
0.03125
 40
0.03125
 40
0.0390625
 40
0.0390625
 40
0.0390625
 40
0.046875
 40
0.046875
 40
0.046875
 40
0.0546875
 40
0.0546875
 40
0.0546875
 40
0.0625
 40
0.0625
 40
0.0625
 40
0.0703125
 40
0.0703125
 40
0.0703125
 40
0.078125
 40
0.078125
 40
0.078125
 40
0.0859375
 40
0.0859375
 40
0.0859375
 40
0.09375
 40
0.09375
 40
0.09375
 40
0.1015625
 40
0.1015625
 40
0.1015625
 40
0.109375
 40
0.109375
 40
0.109375
 40
0.1171875
 40
0.1171875
 40
0.1171875
 40
0.125
 40
0.125
 40
0.125
 40
0.1328125
 40
0.1328125
 40
0.1328125
 40
0.140625
 40
0.140625
 40
0.140625
 40
0.1484375
 40
0.1484375
 40
0.1484375
 40
0.15625
 40
0.15625
 40
0.15625
 40
0.1640625
 40
0.1640625
 40
0.1640625
 40
0.171875
 40
0.171875
 40
0.171875
 40
0.1796875
 40
0.1796875
 40
0.1796875
 40
0.1875
 40
0.1875
 40
0.1875
 40
0.1953125
 40
0.1953125
 40
0.1953125
 40
0.203125
 40
0.203125
 40
0.203125
 40
0.2109375
 40
0.2109375
 40
0.2109375
 40
0.21875
 40
0.21875
 40
0.21875
 40
0.2265625
 40
0.2265625
 40
0.2265625
 40
0.234375
 40
0.234375
 40
0.234375
 40
0.2421875
 40
0.2421875
 40
0.2421875
 40
0.25
 40
0.25
 40
0.25
 40
0.2578125
 40
0.2578125
 40
0.2578125
 40
0.265625
 40
0.265625
 40
0.265625
 40
0.2734375
 40
0.2734375
 40
0.2734375
 40
0.28125
 40
0.28125
 40
0.28125
 40
0.2890625
 40
0.2890625
 40
0.2890625
 40
0.296875
 40
0.296875
 40
0.296875
 40
0.3046875
 40
0.3046875
 40
0.3046875
 40
0.3125
 40
0.3125
 40
0.3125
 40
0.3203125
 40
0.3203125
 40
0.3203125
 40
0.328125
 40
0.328125
 40
0.328125
 40
0.3359375
 40
0.3359375
 40
0.3359375
 40
0.34375
 40
0.34375
 40
0.34375
 40
0.3515625
 40
0.3515625
 40
0.3515625
 40
0.359375
 40
0.359375
 40
0.359375
 40
0.3671875
 40
0.3671875
 40
0.3671875
 40
0.375
 40
0.375
 40
0.375
 40
0.3828125
 40
0.3828125
 40
0.3828125
 40
0.390625
 40
0.390625
 40
0.390625
 40
0.3984375
 40
0.3984375
 40
0.3984375
 40
0.40625
 40
0.40625
 40
0.40625
 40
0.4140625
 40
0.4140625
 40
0.4140625
 40
0.421875
 40
0.421875
 40
0.421875
 40
0.4296875
 40
0.4296875
 40
0.4296875
 40
0.4375
 40
0.4375
 40
0.4375
 40
0.4453125
 40
0.4453125
 40
0.4453125
 40
0.453125
 40
0.453125
 40
0.453125
 40
0.4609375
 40
0.4609375
 40
0.4609375
 40
0.46875
 40
0.46875
 40
0.46875
 40
0.4765625
 40
0.4765625
 40
0.4765625
 40
0.484375
 40
0.484375
 40
0.484375
 40
0.4921875
 40
0.4921875
 40
0.4921875
 40
0.5
 40
0.5
 40
0.5
 40
0.5078125
 40
0.5078125
 40
0.5078125
 40
0.515625
 40
0.515625
 40
0.515625
 40
0.5234375
 40
0.5234375
 40
0.5234375
 40
0.53125
 40
0.53125
 40
0.53125
 40
0.5390625
 40
0.5390625
 40
0.5390625
 40
0.546875
 40
0.546875
 40
0.546875
 40
0.5546875
 40
0.5546875
 40
0.5546875
 40
0.5625
 40
0.5625
 40
0.5625
 40
0.5703125
 40
0.5703125
 40
0.5703125
 40
0.578125
 40
0.578125
 40
0.578125
 40
0.5859375
 40
0.5859375
 40
0.5859375
 40
0.59375
 40
0.59375
 40
0.59375
 40
0.6015625
 40
0.6015625
 40
0.6015625
 40
0.609375
 40
0.609375
 40
0.609375
 40
0.6171875
 40
0.6171875
 40
0.6171875
 40
0.625
 40
0.625
 40
0.625
 40
0.6328125
 40
0.6328125
 40
0.6328125
 40
0.640625
 40
0.640625
 40
0.640625
 40
0.6484375
 40
0.6484375
 40
0.6484375
 40
0.65625
 40
0.65625
 40
0.65625
 40
0.6640625
 40
0.6640625
 40
0.6640625
 40
0.671875
 40
0.671875
 40
0.671875
 40
0.6796875
 40
0.6796875
 40
0.6796875
 40
0.6875
 40
0.6875
 40
0.6875
 40
0.6953125
 40
0.6953125
 40
0.6953125
 40
0.703125
 40
0.703125
 40
0.703125
 40
0.7109375
 40
0.7109375
 40
0.7109375
 40
0.71875
 40
0.71875
 40
0.71875
 40
0.7265625
 40
0.7265625
 40
0.7265625
 40
0.734375
 40
0.734375
 40
0.734375
 40
0.7421875
 40
0.7421875
 40
0.7421875
 40
0.75
 40
0.75
 40
0.75
 40
0.7578125
 40
0.7578125
 40
0.7578125
 40
0.765625
 40
0.765625
 40
0.765625
 40
0.7734375
 40
0.7734375
 40
0.7734375
 40
0.78125
 40
0.78125
 40
0.78125
 40
0.7890625
 40
0.7890625
 40
0.7890625
 40
0.796875
 40
0.796875
 40
0.796875
 40
0.8046875
 40
0.8046875
 40
0.8046875
 40
0.8125
 40
0.8125
 40
0.8125
 40
0.8203125
 40
0.8203125
 40
0.8203125
 40
0.828125
 40
0.828125
 40
0.828125
 40
0.8359375
 40
0.8359375
 40
0.8359375
 40
0.84375
 40
0.84375
 40
0.84375
 40
0.8515625
 40
0.8515625
 40
0.8515625
 40
0.859375
 40
0.859375
 40
0.859375
 40
0.8671875
 40
0.8671875
 40
0.8671875
 40
0.875
 40
0.875
 40
0.875
 40
0.8828125
 40
0.8828125
 40
0.8828125
 40
0.890625
 40
0.890625
 40
0.890625
 40
0.8984375
 40
0.8984375
 40
0.8984375
 40
0.90625
 40
0.90625
 40
0.90625
 40
0.9140625
 40
0.9140625
 40
0.9140625
 40
0.921875
 40
0.921875
 40
0.921875
 40
0.9296875
 40
0.9296875
 40
0.9296875
 40
0.9375
 40
0.9375
 40
0.9375
 40
0.9453125
 40
0.9453125
 40
0.9453125
 40
0.953125
 40
0.953125
 40
0.953125
 40
0.9609375
 40
0.9609375
 40
0.9609375
 40
0.96875
 40
0.96875
 40
0.96875
 40
0.9765625
 40
0.9765625
 40
0.9765625
 40
0.984375
 40
0.984375
 40
0.984375
 40
0.9921875
 40
0.9921875
 40
0.9921875
 40
1.0
 40
1.0
 40
1.0
 40
1.0
 10
231.2229
 20
296.3609
 30
0.0
 10
231.2229
 20
296.3609
 30
0.0
 10
231.1781
 20
296.3631
 30
0.0
 10
231.1781
 20
296.3631
 30
0.0
 10
231.1781
 20
296.3631
 30
0.0
 10
231.0935
 20
296.3772
 30
0.0
 10
231.0935
 20
296.3772
 30
0.0
 10
231.0935
 20
296.3772
 30
0.0
 10
231.012
 20
296.4012
 30
0.0
 10
231.012
 20
296.4012
 30
0.0
 10
231.012
 20
296.4012
 30
0.0
 10
230.9707
 20
296.417
 30
0.0
 10
230.9707
 20
296.417
 30
0.0
 10
230.9707
 20
296.417
 30
0.0
 10
230.933
 20
296.4347
 30
0.0
 10
230.933
 20
296.4347
 30
0.0
 10
230.933
 20
296.4347
 30
0.0
 10
230.8613
 20
296.4777
 30
0.0
 10
230.8613
 20
296.4777
 30
0.0
 10
230.8613
 20
296.4777
 30
0.0
 10
230.7922
 20
296.531
 30
0.0
 10
230.7922
 20
296.531
 30
0.0
 10
230.7922
 20
296.531
 30
0.0
 10
230.7315
 20
296.5913
 30
0.0
 10
230.7315
 20
296.5913
 30
0.0
 10
230.7315
 20
296.5913
 30
0.0
 10
230.7061
 20
296.6227
 30
0.0
 10
230.7061
 20
296.6227
 30
0.0
 10
230.7061
 20
296.6227
 30
0.0
 10
230.6567
 20
296.695
 30
0.0
 10
230.6567
 20
296.695
 30
0.0
 10
230.6567
 20
296.695
 30
0.0
 10
230.6207
 20
296.7691
 30
0.0
 10
230.6207
 20
296.7691
 30
0.0
 10
230.6207
 20
296.7691
 30
0.0
 10
230.6056
 20
296.8079
 30
0.0
 10
230.6056
 20
296.8079
 30
0.0
 10
230.6056
 20
296.8079
 30
0.0
 10
230.5925
 20
296.8488
 30
0.0
 10
230.5925
 20
296.8488
 30
0.0
 10
230.5925
 20
296.8488
 30
0.0
 10
230.5752
 20
296.9197
 30
0.0
 10
230.5752
 20
296.9197
 30
0.0
 10
230.5752
 20
296.9197
 30
0.0
 10
230.4126
 20
301.1069
 30
0.0
 10
230.4126
 20
301.1069
 30
0.0
 10
230.4126
 20
301.1069
 30
0.0
 10
228.5708
 20
354.5005
 30
0.0
 10
228.5708
 20
354.5005
 30
0.0
 10
228.5708
 20
354.5005
 30
0.0
 10
228.351
 20
362.2111
 30
0.0
 10
228.351
 20
362.2111
 30
0.0
 10
228.351
 20
362.2111
 30
0.0
 10
228.1622
 20
369.3933
 30
0.0
 10
228.1622
 20
369.3933
 30
0.0
 10
228.1622
 20
369.3933
 30
0.0
 10
227.9915
 20
375.694
 30
0.0
 10
227.9915
 20
375.694
 30
0.0
 10
227.9915
 20
375.694
 30
0.0
 10
227.7304
 20
381.1465
 30
0.0
 10
227.7304
 20
381.1465
 30
0.0
 10
227.7234
 20
381.2329
 30
0.0
 10
227.5717
 20
383.121
 30
0.0
 10
227.4962
 20
383.7666
 30
0.0
 10
227.4154
 20
384.4421
 30
0.0
 10
227.2302
 20
385.7241
 30
0.0
 10
227.1124
 20
386.3662
 30
0.0
 10
227.0242
 20
386.841
 30
0.0
 10
226.822
 20
387.7484
 30
0.0
 10
226.7042
 20
388.1982
 30
0.0
 10
226.5857
 20
388.6465
 30
0.0
 10
226.3151
 20
389.5387
 30
0.0
 10
226.1567
 20
390.0002
 30
0.0
 10
226.0622
 20
390.2739
 30
0.0
 10
225.8611
 20
390.7974
 30
0.0
 10
225.7499
 20
391.0571
 30
0.0
 10
225.6342
 20
391.3298
 30
0.0
 10
225.3993
 20
391.8378
 30
0.0
 10
225.2698
 20
392.0833
 30
0.0
 10
225.1375
 20
392.3348
 30
0.0
 10
224.8528
 20
392.827
 30
0.0
 10
224.6973
 20
393.0612
 30
0.0
 10
224.5449
 20
393.2898
 30
0.0
 10
224.2087
 20
393.747
 30
0.0
 10
224.0178
 20
393.97
 30
0.0
 10
223.8291
 20
394.1908
 30
0.0
 10
223.4357
 20
394.5961
 30
0.0
 10
223.2233
 20
394.7877
 30
0.0
 10
223.0145
 20
394.9768
 30
0.0
 10
222.5697
 20
395.3289
 30
0.0
 10
222.3241
 20
395.4986
 30
0.0
 10
222.0832
 20
395.6654
 30
0.0
 10
221.596
 20
395.9579
 30
0.0
 10
221.3416
 20
396.0884
 30
0.0
 10
221.0799
 20
396.2225
 30
0.0
 10
220.5599
 20
396.4472
 30
0.0
 10
220.2911
 20
396.5424
 30
0.0
 10
220.0222
 20
396.637
 30
0.0
 10
219.4737
 20
396.7887
 30
0.0
 10
219.1844
 20
396.8493
 30
0.0
 10
218.8895
 20
396.9104
 30
0.0
 10
218.3226
 20
396.9873
 30
0.0
 10
218.0495
 20
397.0102
 30
0.0
 10
217.8389
 20
397.0268
 30
0.0
 10
217.4583
 20
397.0395
 30
0.0
 10
217.1443
 20
397.0395
 30
0.0
 10
217.0526
 20
397.0395
 30
0.0
 10
216.97
 20
397.0381
 30
0.0
 10
216.903
 20
397.036
 30
0.0
 10
216.6218
 20
397.0264
 30
0.0
 10
216.0577
 20
396.9753
 30
0.0
 10
215.7628
 20
396.9326
 30
0.0
 10
215.4746
 20
396.891
 30
0.0
 10
214.9144
 20
396.7767
 30
0.0
 10
214.6431
 20
396.71
 30
0.0
 10
214.3538
 20
396.638
 30
0.0
 10
213.8102
 20
396.4736
 30
0.0
 10
213.5516
 20
396.3851
 30
0.0
 10
213.2817
 20
396.2927
 30
0.0
 10
212.7518
 20
396.0831
 30
0.0
 10
212.4918
 20
395.9716
 30
0.0
 10
212.2315
 20
395.8591
 30
0.0
 10
211.7147
 20
395.6185
 30
0.0
 10
211.4639
 20
395.488
 30
0.0
 10
210.9865
 20
395.2389
 30
0.0
 10
210.0072
 20
394.6801
 30
0.0
 10
209.5077
 20
394.3598
 30
0.0
 10
209.0357
 20
394.0585
 30
0.0
 10
207.7248
 20
393.1018
 30
0.0
 10
207.6687
 20
393.0612
 30
0.0
 10
207.6687
 20
393.0612
 30
0.0
 10
205.933
 20
391.6289
 30
0.0
 10
205.933
 20
391.6289
 30
0.0
 10
205.933
 20
391.6289
 30
0.0
 10
204.3003
 20
390.0799
 30
0.0
 10
204.3003
 20
390.0799
 30
0.0
 10
204.3003
 20
390.0799
 30
0.0
 10
203.2861
 20
389.03
 30
0.0
 10
203.2861
 20
389.03
 30
0.0
 10
203.2861
 20
389.03
 30
0.0
 10
203.2459
 20
389.0025
 30
0.0
 10
203.2459
 20
389.0025
 30
0.0
 10
203.2459
 20
389.0025
 30
0.0
 10
203.1676
 20
388.9577
 30
0.0
 10
203.1676
 20
388.9577
 30
0.0
 10
203.1676
 20
388.9577
 30
0.0
 10
203.0931
 20
388.9284
 30
0.0
 10
203.0931
 20
388.9284
 30
0.0
 10
203.0931
 20
388.9284
 30
0.0
 10
203.0469
 20
388.9125
 30
0.0
 10
203.0469
 20
388.9125
 30
0.0
 10
203.0469
 20
388.9125
 30
0.0
 10
202.964
 20
388.8963
 30
0.0
 10
202.964
 20
388.8963
 30
0.0
 10
202.964
 20
388.8963
 30
0.0
 10
202.8815
 20
388.89
 30
0.0
 10
202.8815
 20
388.89
 30
0.0
 10
202.8815
 20
388.89
 30
0.0
 10
202.7954
 20
388.8942
 30
0.0
 10
202.7954
 20
388.8942
 30
0.0
 10
202.7954
 20
388.8942
 30
0.0
 10
202.7128
 20
388.9094
 30
0.0
 10
202.7128
 20
388.9094
 30
0.0
 10
202.7128
 20
388.9094
 30
0.0
 10
202.6705
 20
388.9207
 30
0.0
 10
202.6705
 20
388.9207
 30
0.0
 10
202.6705
 20
388.9207
 30
0.0
 10
202.6328
 20
388.9341
 30
0.0
 10
202.6328
 20
388.9341
 30
0.0
 10
202.6328
 20
388.9341
 30
0.0
 10
202.5929
 20
388.9506
 30
0.0
 10
202.5929
 20
388.9506
 30
0.0
 10
202.5929
 20
388.9506
 30
0.0
 10
202.5548
 20
388.9697
 30
0.0
 10
202.5548
 20
388.9697
 30
0.0
 10
202.5548
 20
388.9697
 30
0.0
 10
202.5156
 20
388.9912
 30
0.0
 10
202.5156
 20
388.9912
 30
0.0
 10
202.5156
 20
388.9912
 30
0.0
 10
202.4476
 20
389.0399
 30
0.0
 10
202.4476
 20
389.0399
 30
0.0
 10
202.4476
 20
389.0399
 30
0.0
 10
202.4172
 20
389.0667
 30
0.0
 10
202.4172
 20
389.0667
 30
0.0
 10
202.4172
 20
389.0667
 30
0.0
 10
202.3516
 20
389.1316
 30
0.0
 10
202.3516
 20
389.1316
 30
0.0
 10
202.3516
 20
389.1316
 30
0.0
 10
202.3061
 20
389.1958
 30
0.0
 10
202.3061
 20
389.1958
 30
0.0
 10
202.3061
 20
389.1958
 30
0.0
 10
202.2821
 20
389.2343
 30
0.0
 10
202.2821
 20
389.2343
 30
0.0
 10
202.2821
 20
389.2343
 30
0.0
 10
202.2627
 20
389.271
 30
0.0
 10
202.2627
 20
389.271
 30
0.0
 10
202.2627
 20
389.271
 30
0.0
 10
202.2302
 20
389.3493
 30
0.0
 10
202.2302
 20
389.3493
 30
0.0
 10
202.2302
 20
389.3493
 30
0.0
 10
202.2165
 20
389.3916
 30
0.0
 10
202.2165
 20
389.3916
 30
0.0
 10
202.2165
 20
389.3916
 30
0.0
 10
202.1996
 20
389.4745
 30
0.0
 10
202.1996
 20
389.4745
 30
0.0
 10
202.1996
 20
389.4745
 30
0.0
 10
202.1925
 20
389.5624
 30
0.0
 10
202.1925
 20
389.5624
 30
0.0
 10
202.1925
 20
389.5624
 30
0.0
 10
202.1932
 20
389.6005
 30
0.0
 10
202.1932
 20
389.6005
 30
0.0
 10
202.1932
 20
389.6005
 30
0.0
 10
202.2034
 20
389.6869
 30
0.0
 10
202.2034
 20
389.6869
 30
0.0
 10
202.2034
 20
389.6869
 30
0.0
 10
202.2235
 20
389.7701
 30
0.0
 10
202.2235
 20
389.7701
 30
0.0
 10
202.2235
 20
389.7701
 30
0.0
 10
202.2373
 20
389.8114
 30
0.0
 10
202.2373
 20
389.8114
 30
0.0
 10
202.2373
 20
389.8114
 30
0.0
 10
202.2525
 20
389.8481
 30
0.0
 10
202.2525
 20
389.8481
 30
0.0
 10
202.2525
 20
389.8481
 30
0.0
 10
202.6733
 20
390.5604
 30
0.0
 10
202.6733
 20
390.5604
 30
0.0
 10
202.6733
 20
390.5604
 30
0.0
 10
204.2002
 20
393.0799
 30
0.0
 10
204.2002
 20
393.0799
 30
0.0
 10
204.2002
 20
393.0799
 30
0.0
 10
205.7665
 20
395.5723
 30
0.0
 10
205.7665
 20
395.5723
 30
0.0
 10
205.7665
 20
395.5723
 30
0.0
 10
207.3864
 20
398.0273
 30
0.0
 10
207.3864
 20
398.0273
 30
0.0
 10
207.3864
 20
398.0273
 30
0.0
 10
209.0791
 20
400.43
 30
0.0
 10
209.0791
 20
400.43
 30
0.0
 10
209.089
 20
400.4427
 30
0.0
 10
210.4062
 20
402.1964
 30
0.0
 10
210.8617
 20
402.7608
 30
0.0
 10
211.3227
 20
403.3337
 30
0.0
 10
212.2742
 20
404.4595
 30
0.0
 10
212.7628
 20
404.9982
 30
0.0
 10
213.2464
 20
405.5323
 30
0.0
 10
214.2656
 20
406.5924
 30
0.0
 10
214.8064
 20
407.1085
 30
0.0
 10
215.3416
 20
407.6203
 30
0.0
 10
216.4475
 20
408.5915
 30
0.0
 10
217.0063
 20
409.0551
 30
0.0
 10
217.2787
 20
409.2805
 30
0.0
 10
217.8527
 20
409.7229
 30
0.0
 10
218.1652
 20
409.9529
 30
0.0
 10
218.4492
 20
410.1614
 30
0.0
 10
219.05
 20
410.5812
 30
0.0
 10
219.3696
 20
410.7904
 30
0.0
 10
219.6645
 20
410.9841
 30
0.0
 10
220.2868
 20
411.3711
 30
0.0
 10
220.6181
 20
411.5612
 30
0.0
 10
220.9215
 20
411.7355
 30
0.0
 10
221.5794
 20
412.09
 30
0.0
 10
221.9135
 20
412.2548
 30
0.0
 10
222.2366
 20
412.4132
 30
0.0
 10
222.9066
 20
412.7176
 30
0.0
 10
223.2537
 20
412.8577
 30
0.0
 10
223.5878
 20
412.9928
 30
0.0
 10
224.2778
 20
413.2443
 30
0.0
 10
224.6338
 20
413.3537
 30
0.0
 10
224.9675
 20
413.4581
 30
0.0
 10
225.6854
 20
413.649
 30
0.0
 10
226.047
 20
413.7241
 30
0.0
 10
226.3895
 20
413.7947
 30
0.0
 10
227.1198
 20
413.9125
 30
0.0
 10
227.4842
 20
413.9478
 30
0.0
 10
227.813
 20
413.9799
 30
0.0
 10
228.4311
 20
414.0077
 30
0.0
 10
228.8071
 20
414.0077
 30
0.0
 10
228.8071
 20
414.0077
 30
0.0
 10
228.9429
 20
414.0063
 30
0.0
 10
228.9429
 20
414.0063
 30
0.0
 10
229.3193
 20
413.9979
 30
0.0
 10
230.0517
 20
413.9347
 30
0.0
 10
230.3939
 20
413.8811
 30
0.0
 10
230.7604
 20
413.8243
 30
0.0
 10
231.4794
 20
413.6581
 30
0.0
 10
231.8107
 20
413.5615
 30
0.0
 10
232.1426
 20
413.4645
 30
0.0
 10
232.8344
 20
413.2143
 30
0.0
 10
233.1805
 20
413.0665
 30
0.0
 10
233.5188
 20
412.9226
 30
0.0
 10
234.1767
 20
412.5963
 30
0.0
 10
234.4847
 20
412.4195
 30
0.0
 10
234.8065
 20
412.2354
 30
0.0
 10
235.4185
 20
411.8336
 30
0.0
 10
235.6976
 20
411.6237
 30
0.0
 10
235.9798
 20
411.4109
 30
0.0
 10
236.5361
 20
410.9347
 30
0.0
 10
236.7993
 20
410.6793
 30
0.0
 10
237.0466
 20
410.4397
 30
0.0
 10
237.5419
 20
409.8982
 30
0.0
 10
237.7797
 20
409.6068
 30
0.0
 10
238.0104
 20
409.3246
 30
0.0
 10
238.4383
 20
408.7277
 30
0.0
 10
238.627
 20
408.437
 30
0.0
 10
238.8316
 20
408.1227
 30
0.0
 10
239.1929
 20
407.4933
 30
0.0
 10
239.3555
 20
407.1818
 30
0.0
 10
239.5256
 20
406.8555
 30
0.0
 10
239.8364
 20
406.1828
 30
0.0
 10
239.9715
 20
405.8618
 30
0.0
 10
240.1161
 20
405.5178
 30
0.0
 10
240.3772
 20
404.8338
 30
0.0
 10
240.4841
 20
404.5004
 30
0.0
 10
240.7127
 20
403.7895
 30
0.0
 10
241.0944
 20
402.3654
 30
0.0
 10
241.2404
 20
401.6775
 30
0.0
 10
241.3879
 20
400.9874
 30
0.0
 10
241.6073
 20
399.5601
 30
0.0
 10
241.6973
 20
398.7931
 30
0.0
 10
241.7823
 20
398.0812
 30
0.0
 10
241.8931
 20
396.6162
 30
0.0
 10
241.9283
 20
395.8785
 30
0.0
 10
241.9618
 20
395.1571
 30
0.0
 10
241.9812
 20
393.6881
 30
0.0
 10
241.9745
 20
392.9533
 30
0.0
 10
241.9675
 20
392.2343
 30
0.0
 10
241.9139
 20
390.7618
 30
0.0
 10
241.8729
 20
390.0227
 30
0.0
 10
241.8345
 20
389.308
 30
0.0
 10
241.7223
 20
387.838
 30
0.0
 10
241.656
 20
387.0968
 30
0.0
 10
241.5251
 20
385.6515
 30
0.0
 10
241.0372
 20
381.2971
 30
0.0
 10
241.0326
 20
381.2537
 30
0.0
 10
241.0326
 20
381.2537
 30
0.0
 10
232.814
 20
305.2668
 30
0.0
 10
232.814
 20
305.2668
 30
0.0
 10
232.814
 20
305.2668
 30
0.0
 10
231.901
 20
296.8591
 30
0.0
 10
231.901
 20
296.8591
 30
0.0
 10
231.901
 20
296.8591
 30
0.0
 10
231.8664
 20
296.7695
 30
0.0
 10
231.8664
 20
296.7695
 30
0.0
 10
231.8664
 20
296.7695
 30
0.0
 10
231.8474
 20
296.7264
 30
0.0
 10
231.8474
 20
296.7264
 30
0.0
 10
231.8474
 20
296.7264
 30
0.0
 10
231.8047
 20
296.6555
 30
0.0
 10
231.8047
 20
296.6555
 30
0.0
 10
231.8047
 20
296.6555
 30
0.0
 10
231.7796
 20
296.6213
 30
0.0
 10
231.7796
 20
296.6213
 30
0.0
 10
231.7796
 20
296.6213
 30
0.0
 10
231.7521
 20
296.5878
 30
0.0
 10
231.7521
 20
296.5878
 30
0.0
 10
231.7521
 20
296.5878
 30
0.0
 10
231.6928
 20
296.5289
 30
0.0
 10
231.6928
 20
296.5289
 30
0.0
 10
231.6928
 20
296.5289
 30
0.0
 10
231.6583
 20
296.5006
 30
0.0
 10
231.6583
 20
296.5006
 30
0.0
 10
231.6583
 20
296.5006
 30
0.0
 10
231.5874
 20
296.4534
 30
0.0
 10
231.5874
 20
296.4534
 30
0.0
 10
231.5874
 20
296.4534
 30
0.0
 10
231.5503
 20
296.4329
 30
0.0
 10
231.5503
 20
296.4329
 30
0.0
 10
231.5503
 20
296.4329
 30
0.0
 10
231.5129
 20
296.4156
 30
0.0
 10
231.5129
 20
296.4156
 30
0.0
 10
231.5129
 20
296.4156
 30
0.0
 10
231.4731
 20
296.4001
 30
0.0
 10
231.4731
 20
296.4001
 30
0.0
 10
231.4731
 20
296.4001
 30
0.0
 10
231.4332
 20
296.387
 30
0.0
 10
231.4332
 20
296.387
 30
0.0
 10
231.4332
 20
296.387
 30
0.0
 10
231.3457
 20
296.3666
 30
0.0
 10
231.3457
 20
296.3666
 30
0.0
 10
231.3457
 20
296.3666
 30
0.0
 10
231.2734
 20
296.3609
 30
0.0
 10
231.2734
 20
296.3609
 30
0.0
 10
231.2734
 20
296.3609
 30
0.0
 10
231.2229
 20
296.3609
 30
0.0
 10
231.2229
 20
296.3609
 30
0.0
  0
SPLINE
  5
31
330
17
100
AcDbEntity
  8
LAYER_1
 62
250
100
AcDbSpline
 70
11
 71
3
 72
500
 73
496
 74
0
 40
0.0
 40
0.0
 40
0.0
 40
0.0
 40
0.0060606060606061
 40
0.0060606060606061
 40
0.0060606060606061
 40
0.0121212121212121
 40
0.0121212121212121
 40
0.0121212121212121
 40
0.0181818181818182
 40
0.0181818181818182
 40
0.0181818181818182
 40
0.0242424242424242
 40
0.0242424242424242
 40
0.0242424242424242
 40
0.0303030303030303
 40
0.0303030303030303
 40
0.0303030303030303
 40
0.0363636363636364
 40
0.0363636363636364
 40
0.0363636363636364
 40
0.0424242424242424
 40
0.0424242424242424
 40
0.0424242424242424
 40
0.0484848484848485
 40
0.0484848484848485
 40
0.0484848484848485
 40
0.0545454545454545
 40
0.0545454545454545
 40
0.0545454545454545
 40
0.0606060606060606
 40
0.0606060606060606
 40
0.0606060606060606
 40
0.0666666666666667
 40
0.0666666666666667
 40
0.0666666666666667
 40
0.0727272727272727
 40
0.0727272727272727
 40
0.0727272727272727
 40
0.0787878787878788
 40
0.0787878787878788
 40
0.0787878787878788
 40
0.0848484848484849
 40
0.0848484848484849
 40
0.0848484848484849
 40
0.0909090909090909
 40
0.0909090909090909
 40
0.0909090909090909
 40
0.096969696969697
 40
0.096969696969697
 40
0.096969696969697
 40
0.103030303030303
 40
0.103030303030303
 40
0.103030303030303
 40
0.1090909090909091
 40
0.1090909090909091
 40
0.1090909090909091
 40
0.1151515151515152
 40
0.1151515151515152
 40
0.1151515151515152
 40
0.1212121212121212
 40
0.1212121212121212
 40
0.1212121212121212
 40
0.1272727272727273
 40
0.1272727272727273
 40
0.1272727272727273
 40
0.1333333333333333
 40
0.1333333333333333
 40
0.1333333333333333
 40
0.1393939393939394
 40
0.1393939393939394
 40
0.1393939393939394
 40
0.1454545454545454
 40
0.1454545454545454
 40
0.1454545454545454
 40
0.1515151515151515
 40
0.1515151515151515
 40
0.1515151515151515
 40
0.1575757575757576
 40
0.1575757575757576
 40
0.1575757575757576
 40
0.1636363636363636
 40
0.1636363636363636
 40
0.1636363636363636
 40
0.1696969696969697
 40
0.1696969696969697
 40
0.1696969696969697
 40
0.1757575757575758
 40
0.1757575757575758
 40
0.1757575757575758
 40
0.1818181818181818
 40
0.1818181818181818
 40
0.1818181818181818
 40
0.1878787878787879
 40
0.1878787878787879
 40
0.1878787878787879
 40
0.1939393939393939
 40
0.1939393939393939
 40
0.1939393939393939
 40
0.2
 40
0.2
 40
0.2
 40
0.2060606060606061
 40
0.2060606060606061
 40
0.2060606060606061
 40
0.2121212121212121
 40
0.2121212121212121
 40
0.2121212121212121
 40
0.2181818181818182
 40
0.2181818181818182
 40
0.2181818181818182
 40
0.2242424242424242
 40
0.2242424242424242
 40
0.2242424242424242
 40
0.2303030303030303
 40
0.2303030303030303
 40
0.2303030303030303
 40
0.2363636363636364
 40
0.2363636363636364
 40
0.2363636363636364
 40
0.2424242424242424
 40
0.2424242424242424
 40
0.2424242424242424
 40
0.2484848484848485
 40
0.2484848484848485
 40
0.2484848484848485
 40
0.2545454545454545
 40
0.2545454545454545
 40
0.2545454545454545
 40
0.2606060606060606
 40
0.2606060606060606
 40
0.2606060606060606
 40
0.2666666666666667
 40
0.2666666666666667
 40
0.2666666666666667
 40
0.2727272727272727
 40
0.2727272727272727
 40
0.2727272727272727
 40
0.2787878787878788
 40
0.2787878787878788
 40
0.2787878787878788
 40
0.2848484848484849
 40
0.2848484848484849
 40
0.2848484848484849
 40
0.2909090909090909
 40
0.2909090909090909
 40
0.2909090909090909
 40
0.296969696969697
 40
0.296969696969697
 40
0.296969696969697
 40
0.303030303030303
 40
0.303030303030303
 40
0.303030303030303
 40
0.3090909090909091
 40
0.3090909090909091
 40
0.3090909090909091
 40
0.3151515151515151
 40
0.3151515151515151
 40
0.3151515151515151
 40
0.3212121212121212
 40
0.3212121212121212
 40
0.3212121212121212
 40
0.3272727272727273
 40
0.3272727272727273
 40
0.3272727272727273
 40
0.3333333333333333
 40
0.3333333333333333
 40
0.3333333333333333
 40
0.3393939393939394
 40
0.3393939393939394
 40
0.3393939393939394
 40
0.3454545454545455
 40
0.3454545454545455
 40
0.3454545454545455
 40
0.3515151515151515
 40
0.3515151515151515
 40
0.3515151515151515
 40
0.3575757575757576
 40
0.3575757575757576
 40
0.3575757575757576
 40
0.3636363636363636
 40
0.3636363636363636
 40
0.3636363636363636
 40
0.3696969696969697
 40
0.3696969696969697
 40
0.3696969696969697
 40
0.3757575757575757
 40
0.3757575757575757
 40
0.3757575757575757
 40
0.3818181818181818
 40
0.3818181818181818
 40
0.3818181818181818
 40
0.3878787878787879
 40
0.3878787878787879
 40
0.3878787878787879
 40
0.3939393939393939
 40
0.3939393939393939
 40
0.3939393939393939
 40
0.4
 40
0.4
 40
0.4
 40
0.4060606060606061
 40
0.4060606060606061
 40
0.4060606060606061
 40
0.4121212121212121
 40
0.4121212121212121
 40
0.4121212121212121
 40
0.4181818181818182
 40
0.4181818181818182
 40
0.4181818181818182
 40
0.4242424242424243
 40
0.4242424242424243
 40
0.4242424242424243
 40
0.4303030303030303
 40
0.4303030303030303
 40
0.4303030303030303
 40
0.4363636363636363
 40
0.4363636363636363
 40
0.4363636363636363
 40
0.4424242424242424
 40
0.4424242424242424
 40
0.4424242424242424
 40
0.4484848484848485
 40
0.4484848484848485
 40
0.4484848484848485
 40
0.4545454545454545
 40
0.4545454545454545
 40
0.4545454545454545
 40
0.4606060606060606
 40
0.4606060606060606
 40
0.4606060606060606
 40
0.4666666666666667
 40
0.4666666666666667
 40
0.4666666666666667
 40
0.4727272727272727
 40
0.4727272727272727
 40
0.4727272727272727
 40
0.4787878787878788
 40
0.4787878787878788
 40
0.4787878787878788
 40
0.4848484848484849
 40
0.4848484848484849
 40
0.4848484848484849
 40
0.4909090909090909
 40
0.4909090909090909
 40
0.4909090909090909
 40
0.496969696969697
 40
0.496969696969697
 40
0.496969696969697
 40
0.503030303030303
 40
0.503030303030303
 40
0.503030303030303
 40
0.509090909090909
 40
0.509090909090909
 40
0.509090909090909
 40
0.5151515151515151
 40
0.5151515151515151
 40
0.5151515151515151
 40
0.5212121212121212
 40
0.5212121212121212
 40
0.5212121212121212
 40
0.5272727272727272
 40
0.5272727272727272
 40
0.5272727272727272
 40
0.5333333333333333
 40
0.5333333333333333
 40
0.5333333333333333
 40
0.5393939393939394
 40
0.5393939393939394
 40
0.5393939393939394
 40
0.5454545454545454
 40
0.5454545454545454
 40
0.5454545454545454
 40
0.5515151515151515
 40
0.5515151515151515
 40
0.5515151515151515
 40
0.5575757575757576
 40
0.5575757575757576
 40
0.5575757575757576
 40
0.5636363636363636
 40
0.5636363636363636
 40
0.5636363636363636
 40
0.5696969696969697
 40
0.5696969696969697
 40
0.5696969696969697
 40
0.5757575757575758
 40
0.5757575757575758
 40
0.5757575757575758
 40
0.5818181818181818
 40
0.5818181818181818
 40
0.5818181818181818
 40
0.5878787878787879
 40
0.5878787878787879
 40
0.5878787878787879
 40
0.593939393939394
 40
0.593939393939394
 40
0.593939393939394
 40
0.6
 40
0.6
 40
0.6
 40
0.6060606060606061
 40
0.6060606060606061
 40
0.6060606060606061
 40
0.6121212121212121
 40
0.6121212121212121
 40
0.6121212121212121
 40
0.6181818181818182
 40
0.6181818181818182
 40
0.6181818181818182
 40
0.6242424242424243
 40
0.6242424242424243
 40
0.6242424242424243
 40
0.6303030303030303
 40
0.6303030303030303
 40
0.6303030303030303
 40
0.6363636363636364
 40
0.6363636363636364
 40
0.6363636363636364
 40
0.6424242424242425
 40
0.6424242424242425
 40
0.6424242424242425
 40
0.6484848484848484
 40
0.6484848484848484
 40
0.6484848484848484
 40
0.6545454545454545
 40
0.6545454545454545
 40
0.6545454545454545
 40
0.6606060606060606
 40
0.6606060606060606
 40
0.6606060606060606
 40
0.6666666666666666
 40
0.6666666666666666
 40
0.6666666666666666
 40
0.6727272727272727
 40
0.6727272727272727
 40
0.6727272727272727
 40
0.6787878787878788
 40
0.6787878787878788
 40
0.6787878787878788
 40
0.6848484848484848
 40
0.6848484848484848
 40
0.6848484848484848
 40
0.6909090909090909
 40
0.6909090909090909
 40
0.6909090909090909
 40
0.696969696969697
 40
0.696969696969697
 40
0.696969696969697
 40
0.703030303030303
 40
0.703030303030303
 40
0.703030303030303
 40
0.7090909090909091
 40
0.7090909090909091
 40
0.7090909090909091
 40
0.7151515151515152
 40
0.7151515151515152
 40
0.7151515151515152
 40
0.7212121212121212
 40
0.7212121212121212
 40
0.7212121212121212
 40
0.7272727272727273
 40
0.7272727272727273
 40
0.7272727272727273
 40
0.7333333333333333
 40
0.7333333333333333
 40
0.7333333333333333
 40
0.7393939393939394
 40
0.7393939393939394
 40
0.7393939393939394
 40
0.7454545454545455
 40
0.7454545454545455
 40
0.7454545454545455
 40
0.7515151515151515
 40
0.7515151515151515
 40
0.7515151515151515
 40
0.7575757575757576
 40
0.7575757575757576
 40
0.7575757575757576
 40
0.7636363636363637
 40
0.7636363636363637
 40
0.7636363636363637
 40
0.7696969696969697
 40
0.7696969696969697
 40
0.7696969696969697
 40
0.7757575757575758
 40
0.7757575757575758
 40
0.7757575757575758
 40
0.7818181818181819
 40
0.7818181818181819
 40
0.7818181818181819
 40
0.7878787878787878
 40
0.7878787878787878
 40
0.7878787878787878
 40
0.793939393939394
 40
0.793939393939394
 40
0.793939393939394
 40
0.8
 40
0.8
 40
0.8
 40
0.806060606060606
 40
0.806060606060606
 40
0.806060606060606
 40
0.8121212121212121
 40
0.8121212121212121
 40
0.8121212121212121
 40
0.8181818181818182
 40
0.8181818181818182
 40
0.8181818181818182
 40
0.8242424242424242
 40
0.8242424242424242
 40
0.8242424242424242
 40
0.8303030303030303
 40
0.8303030303030303
 40
0.8303030303030303
 40
0.8363636363636363
 40
0.8363636363636363
 40
0.8363636363636363
 40
0.8424242424242424
 40
0.8424242424242424
 40
0.8424242424242424
 40
0.8484848484848485
 40
0.8484848484848485
 40
0.8484848484848485
 40
0.8545454545454545
 40
0.8545454545454545
 40
0.8545454545454545
 40
0.8606060606060606
 40
0.8606060606060606
 40
0.8606060606060606
 40
0.8666666666666667
 40
0.8666666666666667
 40
0.8666666666666667
 40
0.8727272727272727
 40
0.8727272727272727
 40
0.8727272727272727
 40
0.8787878787878788
 40
0.8787878787878788
 40
0.8787878787878788
 40
0.8848484848484849
 40
0.8848484848484849
 40
0.8848484848484849
 40
0.8909090909090909
 40
0.8909090909090909
 40
0.8909090909090909
 40
0.896969696969697
 40
0.896969696969697
 40
0.896969696969697
 40
0.9030303030303031
 40
0.9030303030303031
 40
0.9030303030303031
 40
0.9090909090909091
 40
0.9090909090909091
 40
0.9090909090909091
 40
0.9151515151515152
 40
0.9151515151515152
 40
0.9151515151515152
 40
0.9212121212121213
 40
0.9212121212121213
 40
0.9212121212121213
 40
0.9272727272727272
 40
0.9272727272727272
 40
0.9272727272727272
 40
0.9333333333333333
 40
0.9333333333333333
 40
0.9333333333333333
 40
0.9393939393939394
 40
0.9393939393939394
 40
0.9393939393939394
 40
0.9454545454545454
 40
0.9454545454545454
 40
0.9454545454545454
 40
0.9515151515151515
 40
0.9515151515151515
 40
0.9515151515151515
 40
0.9575757575757575
 40
0.9575757575757575
 40
0.9575757575757575
 40
0.9636363636363636
 40
0.9636363636363636
 40
0.9636363636363636
 40
0.9696969696969697
 40
0.9696969696969697
 40
0.9696969696969697
 40
0.9757575757575757
 40
0.9757575757575757
 40
0.9757575757575757
 40
0.9818181818181818
 40
0.9818181818181818
 40
0.9818181818181818
 40
0.9878787878787879
 40
0.9878787878787879
 40
0.9878787878787879
 40
0.9939393939393939
 40
0.9939393939393939
 40
0.9939393939393939
 40
1.0
 40
1.0
 40
1.0
 40
1.0
 10
201.9934
 20
389.6028
 30
0.0
 10
201.9934
 20
389.6028
 30
0.0
 10
201.9983
 20
389.6578
 30
0.0
 10
201.9983
 20
389.6578
 30
0.0
 10
201.9983
 20
389.6578
 30
0.0
 10
202.0043
 20
389.7122
 30
0.0
 10
202.0043
 20
389.7122
 30
0.0
 10
202.0043
 20
389.7122
 30
0.0
 10
202.016
 20
389.7665
 30
0.0
 10
202.016
 20
389.7665
 30
0.0
 10
202.016
 20
389.7665
 30
0.0
 10
202.0297
 20
389.8201
 30
0.0
 10
202.0297
 20
389.8201
 30
0.0
 10
202.0297
 20
389.8201
 30
0.0
 10
202.0463
 20
389.8723
 30
0.0
 10
202.0463
 20
389.8723
 30
0.0
 10
202.0463
 20
389.8723
 30
0.0
 10
202.0671
 20
389.9231
 30
0.0
 10
202.0671
 20
389.9231
 30
0.0
 10
202.0671
 20
389.9231
 30
0.0
 10
202.5003
 20
390.6615
 30
0.0
 10
202.5003
 20
390.6615
 30
0.0
 10
202.5003
 20
390.6615
 30
0.0
 10
204.0293
 20
393.1835
 30
0.0
 10
204.0293
 20
393.1835
 30
0.0
 10
204.0293
 20
393.1835
 30
0.0
 10
205.597
 20
395.6783
 30
0.0
 10
205.597
 20
395.6783
 30
0.0
 10
205.597
 20
395.6783
 30
0.0
 10
207.2191
 20
398.1375
 30
0.0
 10
207.2191
 20
398.1375
 30
0.0
 10
207.2191
 20
398.1375
 30
0.0
 10
208.9152
 20
400.5453
 30
0.0
 10
208.9152
 20
400.5453
 30
0.0
 10
208.9152
 20
400.5453
 30
0.0
 10
210.2438
 20
402.313
 30
0.0
 10
210.7052
 20
402.8863
 30
0.0
 10
211.1677
 20
403.4603
 30
0.0
 10
212.1192
 20
404.587
 30
0.0
 10
212.6145
 20
405.1324
 30
0.0
 10
213.1108
 20
405.6796
 30
0.0
 10
214.1339
 20
406.7436
 30
0.0
 10
214.6687
 20
407.2533
 30
0.0
 10
215.201
 20
407.7634
 30
0.0
 10
216.3105
 20
408.7382
 30
0.0
 10
216.8789
 20
409.2091
 30
0.0
 10
217.1635
 20
409.4451
 30
0.0
 10
217.7492
 20
409.8949
 30
0.0
 10
218.0469
 20
410.1143
 30
0.0
 10
218.3446
 20
410.3324
 30
0.0
 10
218.9507
 20
410.7553
 30
0.0
 10
219.2601
 20
410.9578
 30
0.0
 10
219.5688
 20
411.1607
 30
0.0
 10
220.1978
 20
411.5505
 30
0.0
 10
220.5192
 20
411.7347
 30
0.0
 10
220.8395
 20
411.9195
 30
0.0
 10
221.4932
 20
412.2705
 30
0.0
 10
221.8255
 20
412.4339
 30
0.0
 10
222.1582
 20
412.5972
 30
0.0
 10
222.8341
 20
412.9041
 30
0.0
 10
223.1795
 20
413.0431
 30
0.0
 10
223.5224
 20
413.1821
 30
0.0
 10
224.2198
 20
413.4361
 30
0.0
 10
224.5747
 20
413.5451
 30
0.0
 10
224.9289
 20
413.6552
 30
0.0
 10
225.644
 20
413.8446
 30
0.0
 10
226.0063
 20
413.9198
 30
0.0
 10
226.3675
 20
413.9949
 30
0.0
 10
227.0978
 20
414.111
 30
0.0
 10
227.465
 20
414.147
 30
0.0
 10
227.8344
 20
414.1829
 30
0.0
 10
228.577
 20
414.2154
 30
0.0
 10
228.9477
 20
414.2062
 30
0.0
 10
229.3185
 20
414.1978
 30
0.0
 10
230.0593
 20
414.136
 30
0.0
 10
230.4259
 20
414.0785
 30
0.0
 10
230.7903
 20
414.0224
 30
0.0
 10
231.5117
 20
413.8566
 30
0.0
 10
231.8666
 20
413.7536
 30
0.0
 10
232.2222
 20
413.6495
 30
0.0
 10
232.9186
 20
413.3959
 30
0.0
 10
233.259
 20
413.2505
 30
0.0
 10
233.5988
 20
413.1059
 30
0.0
 10
234.263
 20
412.7771
 30
0.0
 10
234.5841
 20
412.593
 30
0.0
 10
234.9037
 20
412.4099
 30
0.0
 10
235.5225
 20
412.0056
 30
0.0
 10
235.8174
 20
411.7837
 30
0.0
 10
236.1123
 20
411.5618
 30
0.0
 10
236.6739
 20
411.0799
 30
0.0
 10
236.9385
 20
410.8231
 30
0.0
 10
237.2038
 20
410.5659
 30
0.0
 10
237.7019
 20
410.0191
 30
0.0
 10
237.9347
 20
409.7333
 30
0.0
 10
238.1662
 20
409.4494
 30
0.0
 10
238.5948
 20
408.8532
 30
0.0
 10
238.7945
 20
408.5459
 30
0.0
 10
238.9959
 20
408.2379
 30
0.0
 10
239.3631
 20
407.6008
 30
0.0
 10
239.5325
 20
407.2745
 30
0.0
 10
239.7025
 20
406.9482
 30
0.0
 10
240.0126
 20
406.2789
 30
0.0
 10
240.1555
 20
405.9396
 30
0.0
 10
240.298
 20
405.6002
 30
0.0
 10
240.5619
 20
404.9112
 30
0.0
 10
240.6741
 20
404.5613
 30
0.0
 10
240.8995
 20
403.8614
 30
0.0
 10
241.2833
 20
402.4386
 30
0.0
 10
241.4364
 20
401.7193
 30
0.0
 10
241.5892
 20
401.0007
 30
0.0
 10
241.8097
 20
399.5465
 30
0.0
 10
241.8957
 20
398.8166
 30
0.0
 10
241.9825
 20
398.0874
 30
0.0
 10
242.0929
 20
396.6217
 30
0.0
 10
242.1279
 20
395.8879
 30
0.0
 10
242.1624
 20
395.1548
 30
0.0
 10
242.1811
 20
393.6858
 30
0.0
 10
242.1741
 20
392.9514
 30
0.0
 10
242.1674
 20
392.2162
 30
0.0
 10
242.113
 20
390.7458
 30
0.0
 10
242.0728
 20
390.0117
 30
0.0
 10
242.033
 20
389.2772
 30
0.0
 10
241.9208
 20
387.8114
 30
0.0
 10
241.8545
 20
387.079
 30
0.0
 10
241.7222
 20
385.6146
 30
0.0
 10
241.2311
 20
381.231
 30
0.0
 10
241.2311
 20
381.231
 30
0.0
 10
241.2311
 20
381.231
 30
0.0
 10
240.5996
 20
375.3848
 30
0.0
 10
240.5996
 20
375.3848
 30
0.0
 10
240.5996
 20
375.3848
 30
0.0
 10
239.3349
 20
363.6944
 30
0.0
 10
239.3349
 20
363.6944
 30
0.0
 10
239.3349
 20
363.6944
 30
0.0
 10
238.0699
 20
352.0016
 30
0.0
 10
238.0699
 20
352.0016
 30
0.0
 10
238.0699
 20
352.0016
 30
0.0
 10
236.8062
 20
340.3137
 30
0.0
 10
236.8062
 20
340.3137
 30
0.0
 10
236.8062
 20
340.3137
 30
0.0
 10
235.5419
 20
328.6216
 30
0.0
 10
235.5419
 20
328.6216
 30
0.0
 10
235.5419
 20
328.6216
 30
0.0
 10
234.2775
 20
316.938
 30
0.0
 10
234.2775
 20
316.938
 30
0.0
 10
234.2775
 20
316.938
 30
0.0
 10
233.0131
 20
305.2452
 30
0.0
 10
233.0131
 20
305.2452
 30
0.0
 10
233.0131
 20
305.2452
 30
0.0
 10
232.0994
 20
296.8374
 30
0.0
 10
232.0994
 20
296.8374
 30
0.0
 10
232.0994
 20
296.8374
 30
0.0
 10
232.0903
 20
296.8004
 30
0.0
 10
232.0903
 20
296.8004
 30
0.0
 10
232.0903
 20
296.8004
 30
0.0
 10
232.0726
 20
296.7467
 30
0.0
 10
232.0726
 20
296.7467
 30
0.0
 10
232.0726
 20
296.7467
 30
0.0
 10
232.0525
 20
296.6963
 30
0.0
 10
232.0525
 20
296.6963
 30
0.0
 10
232.0525
 20
296.6963
 30
0.0
 10
232.0296
 20
296.6451
 30
0.0
 10
232.0296
 20
296.6451
 30
0.0
 10
232.0296
 20
296.6451
 30
0.0
 10
232.0035
 20
296.5975
 30
0.0
 10
232.0035
 20
296.5975
 30
0.0
 10
232.0035
 20
296.5975
 30
0.0
 10
231.9746
 20
296.5506
 30
0.0
 10
231.9746
 20
296.5506
 30
0.0
 10
231.9746
 20
296.5506
 30
0.0
 10
231.9421
 20
296.5054
 30
0.0
 10
231.9421
 20
296.5054
 30
0.0
 10
231.9421
 20
296.5054
 30
0.0
 10
231.9079
 20
296.4624
 30
0.0
 10
231.9079
 20
296.4624
 30
0.0
 10
231.9079
 20
296.4624
 30
0.0
 10
231.8698
 20
296.4218
 30
0.0
 10
231.8698
 20
296.4218
 30
0.0
 10
231.8698
 20
296.4218
 30
0.0
 10
231.8299
 20
296.3841
 30
0.0
 10
231.8299
 20
296.3841
 30
0.0
 10
231.8299
 20
296.3841
 30
0.0
 10
231.7879
 20
296.3477
 30
0.0
 10
231.7879
 20
296.3477
 30
0.0
 10
231.7879
 20
296.3477
 30
0.0
 10
231.7431
 20
296.3164
 30
0.0
 10
231.7431
 20
296.3164
 30
0.0
 10
231.7431
 20
296.3164
 30
0.0
 10
231.6969
 20
296.286
 30
0.0
 10
231.6969
 20
296.286
 30
0.0
 10
231.6969
 20
296.286
 30
0.0
 10
231.6479
 20
296.2585
 30
0.0
 10
231.6479
 20
296.2585
 30
0.0
 10
231.6479
 20
296.2585
 30
0.0
 10
231.5992
 20
296.2349
 30
0.0
 10
231.5992
 20
296.2349
 30
0.0
 10
231.5992
 20
296.2349
 30
0.0
 10
231.5474
 20
296.2144
 30
0.0
 10
231.5474
 20
296.2144
 30
0.0
 10
231.5474
 20
296.2144
 30
0.0
 10
231.4951
 20
296.1975
 30
0.0
 10
231.4951
 20
296.1975
 30
0.0
 10
231.4951
 20
296.1975
 30
0.0
 10
231.4419
 20
296.183
 30
0.0
 10
231.4419
 20
296.183
 30
0.0
 10
231.4419
 20
296.183
 30
0.0
 10
231.3882
 20
296.171
 30
0.0
 10
231.3882
 20
296.171
 30
0.0
 10
231.3882
 20
296.171
 30
0.0
 10
231.3332
 20
296.1643
 30
0.0
 10
231.3332
 20
296.1643
 30
0.0
 10
231.3332
 20
296.1643
 30
0.0
 10
231.2789
 20
296.1608
 30
0.0
 10
231.2789
 20
296.1608
 30
0.0
 10
231.2789
 20
296.1608
 30
0.0
 10
231.2228
 20
296.1608
 30
0.0
 10
231.2228
 20
296.1608
 30
0.0
 10
231.2228
 20
296.1608
 30
0.0
 10
231.1678
 20
296.1636
 30
0.0
 10
231.1678
 20
296.1636
 30
0.0
 10
231.1678
 20
296.1636
 30
0.0
 10
231.1127
 20
296.1703
 30
0.0
 10
231.1127
 20
296.1703
 30
0.0
 10
231.1127
 20
296.1703
 30
0.0
 10
231.0584
 20
296.1802
 30
0.0
 10
231.0584
 20
296.1802
 30
0.0
 10
231.0584
 20
296.1802
 30
0.0
 10
231.0051
 20
296.1936
 30
0.0
 10
231.0051
 20
296.1936
 30
0.0
 10
231.0051
 20
296.1936
 30
0.0
 10
230.9522
 20
296.2102
 30
0.0
 10
230.9522
 20
296.2102
 30
0.0
 10
230.9522
 20
296.2102
 30
0.0
 10
230.9004
 20
296.2296
 30
0.0
 10
230.9004
 20
296.2296
 30
0.0
 10
230.9004
 20
296.2296
 30
0.0
 10
230.8503
 20
296.2525
 30
0.0
 10
230.8503
 20
296.2525
 30
0.0
 10
230.8503
 20
296.2525
 30
0.0
 10
230.8012
 20
296.279
 30
0.0
 10
230.8012
 20
296.279
 30
0.0
 10
230.8012
 20
296.279
 30
0.0
 10
230.755
 20
296.3082
 30
0.0
 10
230.755
 20
296.3082
 30
0.0
 10
230.755
 20
296.3082
 30
0.0
 10
230.7109
 20
296.34
 30
0.0
 10
230.7109
 20
296.34
 30
0.0
 10
230.7109
 20
296.34
 30
0.0
 10
230.6675
 20
296.3742
 30
0.0
 10
230.6675
 20
296.3742
 30
0.0
 10
230.6675
 20
296.3742
 30
0.0
 10
230.6262
 20
296.4127
 30
0.0
 10
230.6262
 20
296.4127
 30
0.0
 10
230.6262
 20
296.4127
 30
0.0
 10
230.5885
 20
296.4518
 30
0.0
 10
230.5885
 20
296.4518
 30
0.0
 10
230.5885
 20
296.4518
 30
0.0
 10
230.5525
 20
296.4949
 30
0.0
 10
230.5525
 20
296.4949
 30
0.0
 10
230.5525
 20
296.4949
 30
0.0
 10
230.5201
 20
296.539
 30
0.0
 10
230.5201
 20
296.539
 30
0.0
 10
230.5201
 20
296.539
 30
0.0
 10
230.4897
 20
296.5848
 30
0.0
 10
230.4897
 20
296.5848
 30
0.0
 10
230.4897
 20
296.5848
 30
0.0
 10
230.4629
 20
296.6342
 30
0.0
 10
230.4629
 20
296.6342
 30
0.0
 10
230.4629
 20
296.6342
 30
0.0
 10
230.4403
 20
296.6836
 30
0.0
 10
230.4403
 20
296.6836
 30
0.0
 10
230.4403
 20
296.6836
 30
0.0
 10
230.4195
 20
296.734
 30
0.0
 10
230.4195
 20
296.734
 30
0.0
 10
230.4195
 20
296.734
 30
0.0
 10
230.4022
 20
296.787
 30
0.0
 10
230.4022
 20
296.787
 30
0.0
 10
230.4022
 20
296.787
 30
0.0
 10
230.3878
 20
296.8416
 30
0.0
 10
230.3878
 20
296.8416
 30
0.0
 10
230.3878
 20
296.8416
 30
0.0
 10
230.3761
 20
296.8946
 30
0.0
 10
230.3761
 20
296.8946
 30
0.0
 10
230.3761
 20
296.8946
 30
0.0
 10
230.2128
 20
301.099
 30
0.0
 10
230.2128
 20
301.099
 30
0.0
 10
230.2128
 20
301.099
 30
0.0
 10
229.599
 20
318.8934
 30
0.0
 10
229.599
 20
318.8934
 30
0.0
 10
229.599
 20
318.8934
 30
0.0
 10
228.9844
 20
336.6964
 30
0.0
 10
228.9844
 20
336.6964
 30
0.0
 10
228.9844
 20
336.6964
 30
0.0
 10
228.6779
 20
345.5973
 30
0.0
 10
228.6779
 20
345.5973
 30
0.0
 10
228.6779
 20
345.5973
 30
0.0
 10
228.3709
 20
354.494
 30
0.0
 10
228.3709
 20
354.494
 30
0.0
 10
228.3709
 20
354.494
 30
0.0
 10
228.1512
 20
362.2054
 30
0.0
 10
228.1512
 20
362.2054
 30
0.0
 10
228.1512
 20
362.2054
 30
0.0
 10
227.9624
 20
369.3883
 30
0.0
 10
227.9624
 20
369.3883
 30
0.0
 10
227.9624
 20
369.3883
 30
0.0
 10
227.7917
 20
375.6889
 30
0.0
 10
227.7917
 20
375.6889
 30
0.0
 10
227.7917
 20
375.6889
 30
0.0
 10
227.5306
 20
381.1365
 30
0.0
 10
227.5306
 20
381.1365
 30
0.0
 10
227.5306
 20
381.1365
 30
0.0
 10
227.3733
 20
383.0933
 30
0.0
 10
227.2967
 20
383.7432
 30
0.0
 10
227.2198
 20
384.3923
 30
0.0
 10
227.0336
 20
385.687
 30
0.0
 10
226.915
 20
386.3297
 30
0.0
 10
226.8304
 20
386.7873
 30
0.0
 10
226.6286
 20
387.6978
 30
0.0
 10
226.5107
 20
388.1476
 30
0.0
 10
226.3915
 20
388.5995
 30
0.0
 10
226.1195
 20
389.4938
 30
0.0
 10
225.9671
 20
389.9355
 30
0.0
 10
225.8761
 20
390.1993
 30
0.0
 10
225.6757
 20
390.7218
 30
0.0
 10
225.566
 20
390.9786
 30
0.0
 10
225.4566
 20
391.2358
 30
0.0
 10
225.2231
 20
391.7434
 30
0.0
 10
225.0926
 20
391.9907
 30
0.0
 10
224.9631
 20
392.237
 30
0.0
 10
224.6841
 20
392.7192
 30
0.0
 10
224.5313
 20
392.9507
 30
0.0
 10
224.3768
 20
393.1821
 30
0.0
 10
224.0455
 20
393.6294
 30
0.0
 10
223.8656
 20
393.84
 30
0.0
 10
223.6843
 20
394.0524
 30
0.0
 10
223.2966
 20
394.4528
 30
0.0
 10
223.0892
 20
394.6394
 30
0.0
 10
222.8817
 20
394.8274
 30
0.0
 10
222.4407
 20
395.1746
 30
0.0
 10
222.2107
 20
395.334
 30
0.0
 10
221.9804
 20
395.4931
 30
0.0
 10
221.4995
 20
395.7828
 30
0.0
 10
221.2501
 20
395.9105
 30
0.0
 10
221.0014
 20
396.0382
 30
0.0
 10
220.4874
 20
396.2608
 30
0.0
 10
220.2249
 20
396.3535
 30
0.0
 10
219.9604
 20
396.4467
 30
0.0
 10
219.4174
 20
396.5963
 30
0.0
 10
219.143
 20
396.6534
 30
0.0
 10
218.8689
 20
396.7106
 30
0.0
 10
218.3122
 20
396.7875
 30
0.0
 10
218.0324
 20
396.8104
 30
0.0
 10
217.7527
 20
396.8333
 30
0.0
 10
217.1896
 20
396.8457
 30
0.0
 10
216.9092
 20
396.8361
 30
0.0
 10
216.6287
 20
396.8266
 30
0.0
 10
216.0685
 20
396.7748
 30
0.0
 10
215.7909
 20
396.7349
 30
0.0
 10
215.5132
 20
396.695
 30
0.0
 10
214.9629
 20
396.5829
 30
0.0
 10
214.6906
 20
396.5158
 30
0.0
 10
214.4193
 20
396.4481
 30
0.0
 10
213.8817
 20
396.2869
 30
0.0
 10
213.6164
 20
396.1959
 30
0.0
 10
213.3511
 20
396.1048
 30
0.0
 10
212.829
 20
395.8988
 30
0.0
 10
212.5711
 20
395.788
 30
0.0
 10
212.3136
 20
395.6769
 30
0.0
 10
211.8041
 20
395.4402
 30
0.0
 10
211.5554
 20
395.3107
 30
0.0
 10
211.0594
 20
395.0514
 30
0.0
 10
210.0865
 20
394.4933
 30
0.0
 10
209.6152
 20
394.1917
 30
0.0
 10
209.1431
 20
393.8897
 30
0.0
 10
207.7867
 20
392.8999
 30
0.0
 10
207.7867
 20
392.8999
 30
0.0
 10
207.7867
 20
392.8999
 30
0.0
 10
206.0599
 20
391.4746
 30
0.0
 10
206.0599
 20
391.4746
 30
0.0
 10
206.0599
 20
391.4746
 30
0.0
 10
204.4381
 20
389.9348
 30
0.0
 10
204.4381
 20
389.9348
 30
0.0
 10
204.4381
 20
389.9348
 30
0.0
 10
203.4299
 20
388.8909
 30
0.0
 10
203.4299
 20
388.8909
 30
0.0
 10
203.4299
 20
388.8909
 30
0.0
 10
203.4059
 20
388.8711
 30
0.0
 10
203.4059
 20
388.8711
 30
0.0
 10
203.4059
 20
388.8711
 30
0.0
 10
203.3611
 20
388.839
 30
0.0
 10
203.3611
 20
388.839
 30
0.0
 10
203.3611
 20
388.839
 30
0.0
 10
203.3135
 20
388.8105
 30
0.0
 10
203.3135
 20
388.8105
 30
0.0
 10
203.3135
 20
388.8105
 30
0.0
 10
203.2659
 20
388.7833
 30
0.0
 10
203.2659
 20
388.7833
 30
0.0
 10
203.2659
 20
388.7833
 30
0.0
 10
203.2151
 20
388.7607
 30
0.0
 10
203.2151
 20
388.7607
 30
0.0
 10
203.2151
 20
388.7607
 30
0.0
 10
203.1639
 20
388.7417
 30
0.0
 10
203.1639
 20
388.7417
 30
0.0
 10
203.1639
 20
388.7417
 30
0.0
 10
203.1117
 20
388.7237
 30
0.0
 10
203.1117
 20
388.7237
 30
0.0
 10
203.1117
 20
388.7237
 30
0.0
 10
203.0577
 20
388.711
 30
0.0
 10
203.0577
 20
388.711
 30
0.0
 10
203.0577
 20
388.711
 30
0.0
 10
203.0034
 20
388.7
 30
0.0
 10
203.0034
 20
388.7
 30
0.0
 10
203.0034
 20
388.7
 30
0.0
 10
202.9491
 20
388.6937
 30
0.0
 10
202.9491
 20
388.6937
 30
0.0
 10
202.9491
 20
388.6937
 30
0.0
 10
202.8947
 20
388.6905
 30
0.0
 10
202.8947
 20
388.6905
 30
0.0
 10
202.8947
 20
388.6905
 30
0.0
 10
202.8386
 20
388.6912
 30
0.0
 10
202.8386
 20
388.6912
 30
0.0
 10
202.8386
 20
388.6912
 30
0.0
 10
202.7829
 20
388.6947
 30
0.0
 10
202.7829
 20
388.6947
 30
0.0
 10
202.7829
 20
388.6947
 30
0.0
 10
202.7286
 20
388.7029
 30
0.0
 10
202.7286
 20
388.7029
 30
0.0
 10
202.7286
 20
388.7029
 30
0.0
 10
202.675
 20
388.7134
 30
0.0
 10
202.675
 20
388.7134
 30
0.0
 10
202.675
 20
388.7134
 30
0.0
 10
202.621
 20
388.7272
 30
0.0
 10
202.621
 20
388.7272
 30
0.0
 10
202.621
 20
388.7272
 30
0.0
 10
202.5695
 20
388.7441
 30
0.0
 10
202.5695
 20
388.7441
 30
0.0
 10
202.5695
 20
388.7441
 30
0.0
 10
202.5169
 20
388.7653
 30
0.0
 10
202.5169
 20
388.7653
 30
0.0
 10
202.5169
 20
388.7653
 30
0.0
 10
202.4689
 20
388.7889
 30
0.0
 10
202.4689
 20
388.7889
 30
0.0
 10
202.4689
 20
388.7889
 30
0.0
 10
202.4192
 20
388.8157
 30
0.0
 10
202.4192
 20
388.8157
 30
0.0
 10
202.4192
 20
388.8157
 30
0.0
 10
202.373
 20
388.8461
 30
0.0
 10
202.373
 20
388.8461
 30
0.0
 10
202.373
 20
388.8461
 30
0.0
 10
202.3289
 20
388.8785
 30
0.0
 10
202.3289
 20
388.8785
 30
0.0
 10
202.3289
 20
388.8785
 30
0.0
 10
202.2869
 20
388.9142
 30
0.0
 10
202.2869
 20
388.9142
 30
0.0
 10
202.2869
 20
388.9142
 30
0.0
 10
202.2477
 20
388.953
 30
0.0
 10
202.2477
 20
388.953
 30
0.0
 10
202.2477
 20
388.953
 30
0.0
 10
202.2089
 20
388.9918
 30
0.0
 10
202.2089
 20
388.9918
 30
0.0
 10
202.2089
 20
388.9918
 30
0.0
 10
202.1747
 20
389.0359
 30
0.0
 10
202.1747
 20
389.0359
 30
0.0
 10
202.1747
 20
389.0359
 30
0.0
 10
202.1423
 20
389.0803
 30
0.0
 10
202.1423
 20
389.0803
 30
0.0
 10
202.1423
 20
389.0803
 30
0.0
 10
202.1126
 20
389.1272
 30
0.0
 10
202.1126
 20
389.1272
 30
0.0
 10
202.1126
 20
389.1272
 30
0.0
 10
202.0865
 20
389.1756
 30
0.0
 10
202.0865
 20
389.1756
 30
0.0
 10
202.0865
 20
389.1756
 30
0.0
 10
202.0636
 20
389.2257
 30
0.0
 10
202.0636
 20
389.2257
 30
0.0
 10
202.0636
 20
389.2257
 30
0.0
 10
202.0435
 20
389.2772
 30
0.0
 10
202.0435
 20
389.2772
 30
0.0
 10
202.0435
 20
389.2772
 30
0.0
 10
202.0273
 20
389.3308
 30
0.0
 10
202.0273
 20
389.3308
 30
0.0
 10
202.0273
 20
389.3308
 30
0.0
 10
202.0135
 20
389.3827
 30
0.0
 10
202.0135
 20
389.3827
 30
0.0
 10
202.0135
 20
389.3827
 30
0.0
 10
202.0029
 20
389.4373
 30
0.0
 10
202.0029
 20
389.4373
 30
0.0
 10
202.0029
 20
389.4373
 30
0.0
 10
201.9969
 20
389.4927
 30
0.0
 10
201.9969
 20
389.4927
 30
0.0
 10
201.9969
 20
389.4927
 30
0.0
 10
201.9927
 20
389.5474
 30
0.0
 10
201.9927
 20
389.5474
 30
0.0
 10
201.9927
 20
389.5474
 30
0.0
 10
201.9934
 20
389.6028
 30
0.0
 10
201.9934
 20
389.6028
 30
0.0
  0
ENDSEC
  0
SECTION
  2
OBJECTS
  0
DICTIONARY
  5
A
330
0
100
AcDbDictionary
281
1
  3
ACAD_COLOR
350
B
  3
ACAD_GROUP
350
C
  3
ACAD_LAYOUT
350
D
  3
ACAD_MATERIAL
350
E
  3
ACAD_MLEADERSTYLE
350
F
  3
ACAD_MLINESTYLE
350
10
  3
ACAD_PLOTSETTINGS
350
11
  3
ACAD_PLOTSTYLENAME
350
12
  3
ACAD_SCALELIST
350
14
  3
ACAD_TABLESTYLE
350
15
  3
ACAD_VISUALSTYLE
350
16
  3
EZDXF_META
350
2D
  0
DICTIONARY
  5
B
330
A
100
AcDbDictionary
281
1
  0
DICTIONARY
  5
C
330
A
100
AcDbDictionary
281
1
  0
DICTIONARY
  5
D
330
A
100
AcDbDictionary
281
1
  3
Model
350
1A
  3
Layout1
350
1E
  0
DICTIONARY
  5
E
330
A
100
AcDbDictionary
281
1
  3
ByBlock
350
1F
  3
ByLayer
350
20
  3
Global
350
21
  0
DICTIONARY
  5
F
330
A
100
AcDbDictionary
281
1
  3
Standard
350
2C
  0
DICTIONARY
  5
10
330
A
100
AcDbDictionary
281
1
  3
Standard
350
22
  0
DICTIONARY
  5
11
330
A
100
AcDbDictionary
281
1
  0
ACDBDICTIONARYWDFLT
  5
12
330
A
100
AcDbDictionary
281
1
  3
Normal
350
13
100
AcDbDictionaryWithDefault
340
13
  0
ACDBPLACEHOLDER
  5
13
330
12
  0
DICTIONARY
  5
14
330
A
100
AcDbDictionary
281
1
  0
DICTIONARY
  5
15
330
A
100
AcDbDictionary
281
1
  0
DICTIONARY
  5
16
330
A
100
AcDbDictionary
281
1
  0
LAYOUT
  5
1A
330
D
100
AcDbPlotSettings
  1

  4
A3
  6

 40
7.5
 41
20.0
 42
7.5
 43
20.0
 44
420.0
 45
297.0
 46
0.0
 47
0.0
 48
0.0
 49
0.0
140
0.0
141
0.0
142
1.0
143
1.0
 70
1024
 72
1
 73
0
 74
5
  7

 75
16
 76
0
 77
2
 78
300
147
1.0
148
0.0
149
0.0
100
AcDbLayout
  1
Model
 70
1
 71
0
 10
0.0
 20
0.0
 11
420.0
 21
297.0
 12
0.0
 22
0.0
 32
0.0
 14
1e+20
 24
1e+20
 34
1e+20
 15
-1e+20
 25
-1e+20
 35
-1e+20
146
0.0
 13
0.0
 23
0.0
 33
0.0
 16
1.0
 26
0.0
 36
0.0
 17
0.0
 27
1.0
 37
0.0
 76
1
330
17
  0
LAYOUT
  5
1E
330
D
100
AcDbPlotSettings
  1

  4
A3
  6

 40
7.5
 41
20.0
 42
7.5
 43
20.0
 44
420.0
 45
297.0
 46
0.0
 47
0.0
 48
0.0
 49
0.0
140
0.0
141
0.0
142
1.0
143
1.0
 70
0
 72
1
 73
0
 74
5
  7

 75
16
 76
0
 77
2
 78
300
147
1.0
148
0.0
149
0.0
100
AcDbLayout
  1
Layout1
 70
1
 71
1
 10
0.0
 20
0.0
 11
420.0
 21
297.0
 12
0.0
 22
0.0
 32
0.0
 14
1e+20
 24
1e+20
 34
1e+20
 15
-1e+20
 25
-1e+20
 35
-1e+20
146
0.0
 13
0.0
 23
0.0
 33
0.0
 16
1.0
 26
0.0
 36
0.0
 17
0.0
 27
1.0
 37
0.0
 76
1
330
1B
  0
MATERIAL
  5
1F
102
{ACAD_REACTORS
330
E
102
}
330
E
100
AcDbMaterial
  1
ByBlock
  2

 70
0
 40
1.0
 71
1
 41
1.0
 91
-1023410177
 42
1.0
 72
1
  3

 73
1
 74
1
 75
1
 44
0.5
 73
0
 45
1.0
 46
1.0
 77
1
  4

 78
1
 79
1
170
1
 48
1.0
171
1
  6

172
1
173
1
174
1
140
1.0
141
1.0
175
1
  7

176
1
177
1
178
1
143
1.0
179
1
  8

270
1
271
1
272
1
145
1.0
146
1.0
273
1
  9

274
1
275
1
276
1
 42
1.0
 72
1
  3

 73
1
 74
1
 75
1
 94
63
  0
MATERIAL
  5
20
102
{ACAD_REACTORS
330
E
102
}
330
E
100
AcDbMaterial
  1
ByLayer
  2

 70
0
 40
1.0
 71
1
 41
1.0
 91
-1023410177
 42
1.0
 72
1
  3

 73
1
 74
1
 75
1
 44
0.5
 73
0
 45
1.0
 46
1.0
 77
1
  4

 78
1
 79
1
170
1
 48
1.0
171
1
  6

172
1
173
1
174
1
140
1.0
141
1.0
175
1
  7

176
1
177
1
178
1
143
1.0
179
1
  8

270
1
271
1
272
1
145
1.0
146
1.0
273
1
  9

274
1
275
1
276
1
 42
1.0
 72
1
  3

 73
1
 74
1
 75
1
 94
63
  0
MATERIAL
  5
21
102
{ACAD_REACTORS
330
E
102
}
330
E
100
AcDbMaterial
  1
Global
  2

 70
0
 40
1.0
 71
1
 41
1.0
 91
-1023410177
 42
1.0
 72
1
  3

 73
1
 74
1
 75
1
 44
0.5
 73
0
 45
1.0
 46
1.0
 77
1
  4

 78
1
 79
1
170
1
 48
1.0
171
1
  6

172
1
173
1
174
1
140
1.0
141
1.0
175
1
  7

176
1
177
1
178
1
143
1.0
179
1
  8

270
1
271
1
272
1
145
1.0
146
1.0
273
1
  9

274
1
275
1
276
1
 42
1.0
 72
1
  3

 73
1
 74
1
 75
1
 94
63
  0
MLINESTYLE
  5
22
102
{ACAD_REACTORS
330
10
102
}
330
10
100
AcDbMlineStyle
  2
Standard
 70
0
  3

 62
256
 51
90.0
 52
90.0
 71
2
 49
0.5
 62
256
  6
BYLAYER
 49
-0.5
 62
256
  6
BYLAYER
  0
MLEADERSTYLE
  5
2C
102
{ACAD_REACTORS
330
F
102
}
330
F
100
AcDbMLeaderStyle
179
2
170
2
171
1
172
0
 90
2
 40
0.0
 41
0.0
173
1
 91
-1056964608
 92
-2
290
1
 42
2.0
291
1
 43
8.0
  3
Standard
 44
4.0
300

342
29
174
1
175
1
176
0
178
1
 93
-1056964608
 45
4.0
292
0
297
0
 46
4.0
 94
-1056964608
 47
1.0
 49
1.0
140
1.0
294
1
141
0.0
177
0
142
1.0
295
0
296
0
143
3.75
271
0
272
9
273
9
  0
DICTIONARY
  5
2D
330
A
100
AcDbDictionary
280
1
281
1
  3
CREATED_BY_EZDXF
350
2E
  3
WRITTEN_BY_EZDXF
350
34
  0
DICTIONARYVAR
  5
2E
330
2D
100
DictionaryVariables
280
0
  1
1.4.3 @ 2026-05-13T11:14:20.804784+00:00
  0
DICTIONARYVAR
  5
34
330
2D
100
DictionaryVariables
280
0
  1
1.4.3 @ 2026-05-13T11:14:20.805783+00:00
  0
ENDSEC
  0
EOF
